<?xml version="1.0" encoding="utf-8"?>
<!-- Generator: Adobe Illustrator 20.0.0, SVG Export Plug-In . SVG Version: 6.00 Build 0)  -->
<svg version="1.1" id="Layer_1" xmlns="http://www.w3.org/2000/svg" xmlns:xlink="http://www.w3.org/1999/xlink" x="0px" y="0px"
	 viewBox="0 0 22 22" style="enable-background:new 0 0 22 22;" xml:space="preserve">
<style type="text/css">
	.st0{fill:#FFCA07;}
</style>
<path class="st0" d="M0,10.9975014C0,4.9229198,4.9245076,0,10.9990892,0C17.0754929,0,22,4.9229198,22,10.9975014
	c0,6.0764027-4.9245071,10.9990902-11.0009108,10.9990902c-1.1997585,0-2.3532419-0.1926689-3.43472-0.5456429
	c0.7832308-4.5380611,3.6495218-8.241787,7.4381037-9.8107243c0.4496355,0.5182781,1.1117373,0.8445425,1.8505125,0.8445425
	c1.3513813,0,2.4433193-1.0918913,2.4433193-2.443552c0-1.350913-1.091938-2.4456062-2.4433193-2.4456062
	c-1.3500719,0-2.4401426,1.0912371-2.4458389,2.4406099c-4.8340111,1.4537849-8.7486725,4.8264465-10.737359,9.1636124
	c-0.6317961-0.5633945-1.1945288-1.1995258-1.6817544-1.8936138c0.114872-4.2215471,2.2041419-7.9136553,5.3328638-10.0902462
	c0.4477673,0.5064178,1.1001096,0.8224559,1.8276792,0.8224559c1.3496065,0,2.4444857-1.0944595,2.4444857-2.4460735
	c0-1.3520813-1.0948792-2.4453733-2.4444857-2.4453733c-1.3511472,0-2.4462605,1.093292-2.4462605,2.4453733
	c0,0.0725188,0.0049968,0.1436367,0.008172,0.2115703C3.7981546,6.8260975,1.4090968,8.8482742,0.0086854,11.425703
	C0.0034555,11.2845411,0,11.1413717,0,10.9975014"/>
</svg>
