<svg id="SvgjsSvg1008" xmlns="http://www.w3.org/2000/svg" version="1.1" xmlns:xlink="http://www.w3.org/1999/xlink" xmlns:svgjs="http://svgjs.com/svgjs" width="26" height="26" viewBox="0 0 26 26"><title>Shape 1 copy</title><desc>Created with Avocode.</desc><defs id="SvgjsDefs1009"></defs><path id="SvgjsPath1010" d="M1284.74 564.449C1287.01 566.679 1289.65 568.808 1290.68 567.78C1292.16 566.308 1293.0800000000002 565.0269999999999 1296.3600000000001 567.6129999999999C1299.65 570.2009999999999 1297.14 571.9419999999999 1295.71 573.3689999999999C1294.05 575.0139999999999 1287.8500000000001 573.4839999999999 1281.7 567.4659999999999C1275.55 561.4469999999999 1273.96 555.3419999999999 1275.6100000000001 553.6949999999999C1277.0500000000002 552.2689999999999 1278.7900000000002 549.78 1281.44 553.0039999999999C1284.0900000000001 556.2259999999999 1282.8 557.1359999999999 1281.31 558.608C1280.28 559.636 1282.46 562.2189999999999 1284.74 564.449ZM1292.98 556.308C1294.4 557.717 1295.24 559.486 1295.5 561.179C1295.5 561.179 1295.61 561.857 1295.13 562.331C1294.64 562.82 1293.7800000000002 562.84 1293.2600000000002 562.326C1292.9500000000003 562.022 1292.8900000000003 561.5930000000001 1292.8900000000003 561.5930000000001C1292.7300000000002 560.7570000000001 1292.4600000000003 559.4970000000001 1291.1000000000004 558.157C1289.7400000000005 556.817 1288.4600000000003 556.551 1287.6200000000003 556.394C1287.6200000000003 556.394 1287.1800000000003 556.329 1286.8700000000003 556.025C1286.3500000000004 555.511 1286.3700000000003 554.67 1286.8700000000003 554.182C1287.3500000000004 553.707 1288.0400000000004 553.813 1288.0400000000004 553.813C1289.7500000000005 554.079 1291.5500000000004 554.899 1292.9800000000005 556.308ZM1294.48 554.824C1296.97 557.281 1298.03 560.0699999999999 1297.69 562.3299999999999C1297.69 562.3299999999999 1297.5700000000002 563.0459999999999 1298.04 563.5129999999999C1298.57 564.0389999999999 1299.42 564.0089999999999 1299.92 563.5169999999999C1300.24 563.1999999999999 1300.3100000000002 562.685 1300.3100000000002 562.685C1300.5900000000001 560.732 1300.2400000000002 556.804 1296.3500000000001 552.9749999999999C1292.47 549.1469999999999 1288.4900000000002 548.7919999999999 1286.5100000000002 549.074C1286.5100000000002 549.074 1285.9900000000002 549.1419999999999 1285.6700000000003 549.459C1285.1700000000003 549.952 1285.1400000000003 550.786 1285.6700000000003 551.3119999999999C1286.1500000000003 551.7789999999999 1286.8700000000003 551.6599999999999 1286.8700000000003 551.6599999999999C1289.1600000000003 551.3189999999998 1291.9900000000002 552.3669999999998 1294.4800000000002 554.8239999999998Z " fill="#c81f37" fill-opacity="1" transform="matrix(1,0,0,1,-1275,-548)"></path></svg>