<?xml version="1.0" encoding="utf-8"?>
<!-- Generator: Adobe Illustrator 20.0.0, SVG Export Plug-In . SVG Version: 6.00 Build 0)  -->
<svg version="1.1" id="Layer_1" xmlns="http://www.w3.org/2000/svg" xmlns:xlink="http://www.w3.org/1999/xlink" x="0px" y="0px"
	 viewBox="0 0 22 22" style="enable-background:new 0 0 22 22;" xml:space="preserve">
<style type="text/css">
	.st0{fill-rule:evenodd;clip-rule:evenodd;fill:#E20613;}
	.st1{fill-rule:evenodd;clip-rule:evenodd;fill:#FFFFFF;}
</style>
<path class="st0" d="M22,10.976799c0,6.1137218-4.9558716,11.0231438-11.0230789,11.0231438
	C4.9095321,21.9999428,0,17.0905209,0,10.976799C0,4.9095922,4.9095321,0.0000569,10.9769211,0.0000569
	C17.0441284,0.0000569,22,4.9095922,22,10.976799L22,10.976799z"/>
<path class="st1" d="M17.3730297,11.5243416c0,3.265933-2.7302284,5.8888054-6.0728235,5.8888054
	c-3.6974812,0-6.2171011-3.2333698-6.1519156-6.8565979c0-5.2967315,4.4208307-9.5839252,9.8835249-9.5839252
	c0.2273436,0,0.4525728,0.0079157,0.6762285,0.0225958c-1.9497843,0.9444718-3.2804308,2.7131317-3.347187,4.7550492
	C15.201642,6.2357049,17.3730297,8.6341343,17.3730297,11.5243416L17.3730297,11.5243416z"/>
</svg>
