<svg id="SvgjsSvg1085" xmlns="http://www.w3.org/2000/svg" version="1.1" xmlns:xlink="http://www.w3.org/1999/xlink" xmlns:svgjs="http://svgjs.com/svgjs" width="11" height="13" viewBox="0 0 11 13"><title>Forma 1</title><desc>Created with Avocode.</desc><defs id="SvgjsDefs1086"></defs><path id="SvgjsPath1087" d="M1327.5 51.9998C1324.47 51.9998 1322 54.4672 1322 57.5C1322 60.5328 1324.47 63.0002 1327.5 63.0002C1330.53 63.0002 1333 60.5328 1333 57.5C1333 54.4672 1330.53 51.9998 1327.5 51.9998ZM1327.5 61.8298C1325.11 61.8298 1323.17 59.8876 1323.17 57.5C1323.17 55.1124 1325.1100000000001 53.1702 1327.5 53.1702C1329.89 53.1702 1331.83 55.1124 1331.83 57.5C1331.83 59.8876 1329.8899999999999 61.8298 1327.5 61.8298ZM1330.37 57.3301L1327.8899999999999 57.3301L1327.8899999999999 54.3581C1327.8899999999999 54.1081 1327.6899999999998 53.9052 1327.4399999999998 53.9052C1327.1899999999998 53.9052 1326.9899999999998 54.1081 1326.9899999999998 54.3581L1326.9899999999998 57.783C1326.9899999999998 58.0332 1327.1899999999998 58.236000000000004 1327.4399999999998 58.236000000000004L1330.37 58.236000000000004C1330.62 58.236000000000004 1330.82 58.0332 1330.82 57.783C1330.82 57.5329 1330.62 57.3301 1330.37 57.3301Z " fill="#c81f37" fill-opacity="1" transform="matrix(1,0,0,1,-1322,-51)"></path></svg>