<?xml version="1.0" encoding="utf-8"?>
<!-- Generator: Adobe Illustrator 20.0.0, SVG Export Plug-In . SVG Version: 6.00 Build 0)  -->
<svg version="1.1" id="Layer_1" xmlns="http://www.w3.org/2000/svg" xmlns:xlink="http://www.w3.org/1999/xlink" x="0px" y="0px"
	 viewBox="0 0 22 22" style="enable-background:new 0 0 22 22;" xml:space="preserve">
<style type="text/css">
	.st0{fill:#00AEEF;}
</style>
<path class="st0" d="M11.0001287,8.4724236c-0.7814417,0-1.4152489-0.6372056-1.4152489-1.4223232V1.8351691
	c0-0.7845892,0.6338072-1.422075,1.4152489-1.422075c0.7811785,0,1.4147234,0.6374859,1.4147234,1.422075v5.2149315
	C12.4148521,7.835218,11.7813072,8.4724236,11.0001287,8.4724236"/>
<path class="st0" d="M7.6946063,10.8847227c-0.2412519,0.7473526-1.0394759,1.1553802-1.7831559,0.9125586l-4.9327822-1.6106081
	c-0.743682-0.2428226-1.1503973-1.0447216-0.9091475-1.7920666c0.2417741-0.7473536,1.0397357-1.1559014,1.7831557-0.913343
	l4.9335685,1.6116567C7.5294008,9.3360062,7.9361181,10.1378975,7.6946063,10.8847227"/>
<path class="st0" d="M14.3053904,10.8852186c0.2417736,0.7473536,1.0397358,1.1559086,1.7828913,0.9130869l4.9340935-1.6108723
	c0.74263-0.2425661,1.1493454-1.0449858,0.9080963-1.79181c-0.2412491-0.7473454-1.0402603-1.1561656-1.7828922-0.9138632
	l-4.933568,1.6124401C14.4708557,9.3365021,14.0641384,10.1383934,14.3053904,10.8852186"/>
<path class="st0" d="M4.2428637,21.3153381c-0.6327579-0.4612541-0.7730513-1.3504772-0.3141513-1.985857l3.0481462-4.219779
	c0.459424-0.6351166,1.3439212-0.7764587,1.9769416-0.3154621c0.6317101,0.4617815,0.77174,1.3515253,0.312315,1.9866419
	l-3.0478835,4.2190018C5.7595935,21.6360493,4.8745718,21.7768631,4.2428637,21.3153381"/>
<path class="st0" d="M17.7583923,21.3153381c0.6319675-0.4612541,0.7722626-1.3504772,0.3133621-1.985857l-3.0478821-4.219779
	c-0.459425-0.6351166-1.3444462-0.7764587-1.976943-0.3154621c-0.6314449,0.4617815-0.7722626,1.3515253-0.3128386,1.9866419
	l3.047884,4.2190018C16.2413998,21.6360493,17.1258965,21.7768631,17.7583923,21.3153381"/>
</svg>
