<?xml version="1.0" encoding="utf-8"?>
<!-- Generator: Adobe Illustrator 19.0.0, SVG Export Plug-In . SVG Version: 6.00 Build 0)  -->
<svg version="1.1" xmlns="http://www.w3.org/2000/svg" xmlns:xlink="http://www.w3.org/1999/xlink" x="0px" y="0px"
	 viewBox="0 222.6 612 346.8" style="enable-background:new 0 222.6 612 346.8;" xml:space="preserve">
<style type="text/css">
	.st0{fill:#FEFEFE;}
</style>
<g id="Шар_2">
</g>
<g id="Шар_1">
	<g id="Слой_x0020_1">
		<path class="st0" d="M595.2,305.9l-89.5-73.3c-11.4-9.3-31.9-12.7-45.7-7.5l-108.2,40.8c-13.7,5.2-27,21.3-29.4,35.8l-18.7,114.1
			c-2.4,14.5,5,34,16.3,43.3l89.5,73.3c11.4,9.3,31.9,12.7,45.7,7.5l108.2-40.8c13.7-5.2,27-21.3,29.3-35.8l18.8-114.1
			C613.9,334.7,606.6,315.2,595.2,305.9z M515.8,308.1l-2.6,18.5c-0.3,2-1,3.4-1.9,4.1c-0.9,0.7-2.3,1-4,1h-66.3l-7.7,30.3
			c5.3-1.7,10.5-2.9,15.6-3.4c5.1-0.6,9.9-0.8,14.4-0.8c15.3,0,27.4,3.8,36.2,11.4c8.8,7.6,13.2,18.7,13.2,33.2
			c0,10.2-1.9,19-5.6,26.6c-3.8,7.6-8.8,13.9-15.1,19c-6.3,5.1-13.7,8.9-22,11.5c-8.4,2.6-17.1,3.9-26.4,3.9
			c-8.7,0-17.9-1.1-27.4-3.4c-9.5-2.3-18.5-7-26.9-14.2c-1.9-1.4-2-3.3-0.5-5.6l11.2-17.3c1.2-1.6,2.4-2.4,3.4-2.4s2.5,0.6,4.3,1.9
			c5.3,3.6,11,6.3,17.1,8.1c6.1,1.8,12.1,2.7,18,2.7c11.7,0,20.7-2.5,26.8-7.5c6.2-5,9.2-11.9,9.2-20.8c0-6.3-2-11-6-14.2
			c-4-3.2-9.2-4.8-15.6-4.8c-6.6,0-12.2,0.8-16.8,2.5c-4.6,1.6-9.6,3.5-14.9,5.7c-1.9,0.8-4,1.3-6.4,1.5c-2.4,0.2-4.6,0-6.7-0.8
			l-7.7-2.3c-3.4-1.1-5.6-2.7-6.4-4.9c-0.9-2.2-0.8-5.1,0.1-8.7l14.1-58.6c1.6-6.1,3.9-10.5,7-13.2c3.1-2.7,7.2-4.1,12.2-4.1h79.2
			c2,0,3.4,0.2,4.1,0.7C515.9,304.1,516.1,305.6,515.8,308.1z"/>
		<path class="st0" d="M17.7,301.6c0.3-2.2,0.9-3.5,1.9-4.1c0.9-0.6,2.3-0.8,4-0.8h12.9c2,0,3.4,0.3,4.1,0.8
			c0.7,0.5,0.9,1.9,0.6,4.1L24.3,421.3c-1.6,11.9,3.4,17.8,15,17.8h63c1.7,0,2.7,0.3,3.1,1c0.3,0.7,0.3,1.8,0,3.2l-1.9,13.4
			c-0.3,1.6-0.7,2.7-1,3.4c-0.4,0.7-1.5,1.1-3.2,1.1H34.4c-7.5,0-13.6-1.1-18.4-3.2s-8.4-4.9-10.9-8.4c-2.5-3.5-4.1-7.7-4.7-12.4
			c-0.6-4.8-0.6-9.9,0.2-15.4L17.7,301.6z"/>
		<path class="st0" d="M158.3,398.6l-8.2,57.6c-0.3,2.2-0.8,3.6-1.5,4.1s-2.2,0.8-4.3,0.8h-16.8c-1.7,0-3-0.3-3.9-0.9
			c-0.9-0.6-1.1-2-0.8-4L143.5,310c0.6-4.4,1.9-7.7,4-9.9c2-2.3,5.5-3.4,10.3-3.4h52.9c7.2,0,13.6,1.1,19.3,3.3
			c5.7,2.2,10.5,5.3,14.4,9.3c3.9,4,6.9,8.8,8.9,14.4c2,5.6,3.1,11.8,3.1,18.5c0,5.5-0.9,11.5-2.6,18c-1.7,6.5-4.8,12.7-9.4,18.4
			c-4.5,5.7-10.7,10.5-18.6,14.3c-7.9,3.8-18.1,5.7-30.6,5.7H158.3z M169.3,322.4l-7.3,52h33.7c10.5,0,18.4-2.8,23.7-8.4
			c5.3-5.6,8-12.8,8-21.5c0-2.5-0.3-5.1-1-7.7c-0.7-2.7-2-5-3.7-7.1c-1.8-2.1-4.3-3.8-7.5-5.2c-3.2-1.3-7.3-2-12.3-2H169.3z"/>
		<path class="st0" d="M547.1,512.2L438.9,553c-13.7,5.2-34.3,1.8-45.7-7.5l-89.4-73.3c-11.4-9.3-18.7-28.8-16.4-43.3l18.8-114.1
			c1.2-7.1,4.9-14.6,10.1-21c-13,6-25,21.1-27.2,34.9l-18.8,114.1c-2.4,14.5,5,34,16.3,43.3l89.5,73.3c11.4,9.3,31.9,12.7,45.7,7.5
			L530,526.1c7-2.6,13.9-8.2,19.3-14.8C548.6,511.6,547.9,511.9,547.1,512.2z"/>
	</g>
</g>
</svg>
