<?xml version="1.0" encoding="utf-8"?>
<!-- Generator: Adobe Illustrator 19.2.1, SVG Export Plug-In . SVG Version: 6.00 Build 0)  -->
<svg version="1.1" id="Layer_1" xmlns="http://www.w3.org/2000/svg" xmlns:xlink="http://www.w3.org/1999/xlink" x="0px" y="0px"
	 viewBox="0 0 88.2 88.8" style="enable-background:new 0 0 88.2 88.8;" xml:space="preserve">
<style type="text/css">
	.st0{fill:none;stroke:#1A96D3;stroke-width:2;stroke-linecap:round;stroke-miterlimit:10;}
	.st1{fill:#0A97D8;}
	.st2{fill:none;stroke:#1796D4;stroke-miterlimit:10;}
	.st3{fill:#FFFFFF;}
	.st4{fill:#FFFFFF;stroke:#1A96D3;stroke-miterlimit:10;}
	.st5{fill:#56C847;}
	.st6{fill:#FFFFFF;stroke:#1A96D3;stroke-width:0.7;stroke-miterlimit:10;}
</style>
<g>
	<path class="st0" d="M46.3,46.9c0,7.3,23,7.5,23,0"/>
	<path class="st0" d="M83.4,68.7C89,56.6,88.3,50,82,42.9"/>
	<g>
		<path class="st1" d="M66.8,88.8L66.8,88.8c-0.1,0-0.2,0-0.3,0c-2.4-0.2-2.8-3.7-3.7-10.7c-0.7-5.7-2.1-16.4-5-16.6
			c-3,0.2-4.3,10.9-5,16.6c-0.9,7-1.3,10.5-3.7,10.7c-0.1,0-0.1,0-0.2,0c-4.1,0-11.4-9.1-12.7-20.3c-0.4-3.2-0.3-6.5,0.4-9.6
			c0.1-0.5-0.1-1.5-0.4-2c-2.9-4-4.4-9.3-4.4-14.7c0-13.6,4.8-21.1,13.6-21.1c2.4,0,5.1,1.3,7.7,2.5c1.6,0.8,3.3,1.6,4.8,2
			c1.5-0.4,3.2-1.2,4.8-2c2.6-1.2,5.2-2.5,7.7-2.5c8.8,0,13.7,7.5,13.7,21.1c0,5.5-1.6,10.7-4.4,14.7c-0.3,0.5-0.5,1.4-0.4,2
			c0.7,3.2,0.8,6.4,0.4,9.7C78.2,79.7,70.9,88.8,66.8,88.8z M57.8,58.5L57.8,58.5c5.6,0.2,6.9,10.3,8,19.3c0.4,2.9,0.8,6.7,1.4,8
			c2.3-0.8,8.2-7.8,9.3-17.5c0.4-2.9,0.2-5.9-0.4-8.7c-0.3-1.4,0.1-3.2,0.9-4.3c2.5-3.5,3.9-8.1,3.9-13c0-8.2-1.8-18.1-10.7-18.1
			c-1.7,0-4.1,1.1-6.4,2.2c-1.9,0.9-3.8,1.8-5.7,2.3l-0.4,0.1l-0.4-0.1c-1.9-0.5-3.8-1.4-5.7-2.3c-2.3-1.1-4.6-2.2-6.4-2.2
			c-8.8,0-10.6,9.8-10.6,18.1c0,4.8,1.4,9.4,3.9,13c0.8,1.2,1.2,3,0.9,4.3c-0.6,2.8-0.7,5.7-0.4,8.7c1.1,9.7,7,16.7,9.3,17.5
			c0.5-1.3,1-5.1,1.4-8C50.9,68.8,52.2,58.7,57.8,58.5L57.8,58.5z"/>
	</g>
	<g>
		<g>
			<g>
				<path class="st2" d="M70.1,36.8c0,3.3-1.9,5.1-4.4,5.1c-2.4,0-4.4-1.8-4.4-5.1s1.9-6,4.4-6C68.2,30.8,70.1,33.5,70.1,36.8z"/>
				<path class="st1" d="M69.1,38.3c0,2.6-1.5,3.6-3.3,3.6c-1.8,0-3.3-1-3.3-3.6c0-2.6,1.5-4.6,3.3-4.6
					C67.6,33.7,69.1,35.8,69.1,38.3z"/>
			</g>
			<path class="st3" d="M67.8,35.9c0,0.3-1.3-0.8-1.7-0.9c-0.7-0.2-1.1-0.3-1.2-0.6c0-0.3,0.6-0.4,1.3-0.2
				C67.1,34.4,67.8,35.6,67.8,35.9z"/>
		</g>
		<g>
			<path class="st2" d="M45.5,36.8c0,3.3,1.9,5.1,4.4,5.1s4.4-1.8,4.4-5.1s-1.9-6-4.4-6S45.5,33.5,45.5,36.8z"/>
			<path class="st1" d="M46.5,38.3c0,2.6,1.5,3.6,3.3,3.6s3.3-1,3.3-3.6c0-2.6-1.5-4.6-3.3-4.6S46.5,35.8,46.5,38.3z"/>
		</g>
		<path class="st3" d="M47.8,35.9c0,0.3,1.3-0.8,1.7-0.9c0.7-0.2,1.1-0.3,1.2-0.6c0-0.3-0.6-0.4-1.3-0.2
			C48.5,34.4,47.8,35.6,47.8,35.9z"/>
	</g>
	<path class="st4" d="M77.7,67.5c0.1,0.4,0.6,0.7,1,0.5l1.5-0.5L77,71.7c-0.3,0.4-0.2,0.9,0.1,1.1c0.4,0.3,0.9,0.2,1.1-0.1l2.5-3.2
		l-2.1,3.9c-0.2,0.4-0.1,0.9,0.3,1.1c0.4,0.2,0.9,0.1,1.1-0.3l2.1-4l-1.4,3.4c-0.2,0.4,0,0.9,0.5,1.1c0.4,0.2,0.9,0,1.1-0.5l1.4-3.6
		l-0.5,1.9c-0.1,0.4,0.1,0.9,0.6,1c0.4,0.1,0.9-0.1,1-0.6l1.2-4.7c0,0,0.6-0.9-0.2-1.5l0.9-1.6l-3.5-2l-0.9,1.7
		c-0.1,0.2-0.9,0.3-1.3,0.7l-2.7,1C77.7,66.6,77.6,67.1,77.7,67.5z"/>
	<g>
		<path class="st0" d="M18,25.1c2.1,13.2,6.4,18.2,15.5,20.6"/>
		<path class="st4" d="M23.7,25.3c-0.4-0.3-0.9-0.2-1.1,0.2l-0.9,1.3l0-5.3c0-0.4-0.4-0.8-0.8-0.8c-0.4,0-0.8,0.4-0.8,0.8l0,4.1
			l-0.7-4.4c-0.1-0.4-0.5-0.7-0.9-0.7c-0.4,0.1-0.7,0.5-0.7,0.9l0.7,4.5l-1-3.6c-0.1-0.4-0.6-0.7-1-0.6c-0.4,0.1-0.7,0.6-0.6,1
			l1,3.7l-0.7-1.9c-0.2-0.4-0.6-0.6-1.1-0.5c-0.4,0.2-0.6,0.6-0.5,1.1l1.9,4.5c0,0,0.1,1.1,1.1,1.1l0.3,1.8l4-0.5l-0.3-1.9
			c0-0.3,0.6-0.8,0.7-1.3l1.6-2.4C24.3,26,24.1,25.5,23.7,25.3z"/>
	</g>
	<g>
		<circle class="st3" cx="16.1" cy="16" r="9.8"/>
		<path class="st5" d="M31.4,21.1l0.8-4.4l-3.6-1.8c-0.1-1-0.3-2.1-0.7-3l2.5-3.1l-2.5-3.6l-3.8,1.3c-0.8-0.7-1.7-1.2-2.6-1.7
			l-0.4-4L16.7,0l-1.8,3.6c-1,0.1-2.1,0.3-3,0.7L8.8,1.7L5.1,4.3l1.3,3.8c-0.7,0.8-1.2,1.7-1.7,2.6l-4,0.4L0,15.5l3.6,1.8
			c0.1,1,0.3,2.1,0.7,3l-2.5,3.1L4.3,27l3.8-1.3c0.8,0.7,1.7,1.2,2.6,1.7l0.4,4l4.4,0.8l1.8-3.6c1-0.1,2.1-0.3,3-0.7l3.1,2.5
			l3.6-2.5l-1.3-3.8c0.7-0.8,1.2-1.7,1.7-2.6L31.4,21.1z M14.8,23c-3.8-0.7-6.4-4.3-5.7-8.2s4.3-6.4,8.2-5.7s6.4,4.3,5.7,8.2
			S18.7,23.7,14.8,23z"/>
		<ellipse transform="matrix(0.1986 -0.9801 0.9801 0.1986 -2.8725 28.6379)" class="st5" cx="16.1" cy="16.1" rx="3.5" ry="3.5"/>
	</g>
	<path class="st6" d="M20.9,29.7L20.9,29.7c-0.3-0.2-0.4-0.6-0.2-1l2-3.1c0.2-0.3,0.6-0.4,1-0.2l0,0c0.3,0.2,0.4,0.6,0.2,1l-2,3.1
		C21.6,29.8,21.2,29.9,20.9,29.7z"/>
	<polygon class="st3" points="20.7,30.1 18.3,31.4 20.5,28.3 21.4,29.4 	"/>
	<circle class="st3" cx="9.3" cy="42.5" r="0"/>
</g>
</svg>
