<?xml version="1.0" encoding="utf-8"?>
<!-- Generator: Adobe Illustrator 19.2.1, SVG Export Plug-In . SVG Version: 6.00 Build 0)  -->
<svg version="1.1" id="Layer_1" xmlns="http://www.w3.org/2000/svg" xmlns:xlink="http://www.w3.org/1999/xlink" x="0px" y="0px"
	 viewBox="0 0 77.2 72.6" style="enable-background:new 0 0 77.2 72.6;" xml:space="preserve">
<style type="text/css">
	.st0{fill:none;stroke:#1A96D3;stroke-width:2;stroke-linecap:round;stroke-miterlimit:10;}
	.st1{fill:#0A97D8;}
	.st2{fill:none;stroke:#1796D4;stroke-miterlimit:10;}
	.st3{fill:#FFFFFF;}
	.st4{fill:#FFFFFF;stroke:#1A96D3;stroke-miterlimit:10;}
	.st5{fill:#56C847;}
</style>
<g>
	<path class="st0" d="M35.3,26c0,7.3,23,7.5,23,0"/>
	<g>
		<path class="st1" d="M55.8,67.9L55.8,67.9c-0.1,0-0.2,0-0.3,0c-2.4-0.2-2.8-3.7-3.7-10.7c-0.7-5.7-2.1-16.4-5-16.6
			c-3,0.2-4.3,10.9-5,16.6c-0.9,7-1.3,10.5-3.7,10.7c-0.1,0-0.1,0-0.2,0c-4.1,0-11.4-9.1-12.7-20.3c-0.4-3.2-0.3-6.5,0.4-9.6
			c0.1-0.5-0.1-1.5-0.4-2c-2.9-4-4.4-9.3-4.4-14.7c0-13.6,4.8-21.1,13.7-21.1c2.4,0,5.1,1.3,7.7,2.5c1.6,0.8,3.3,1.6,4.8,2
			c1.5-0.4,3.2-1.2,4.8-2c2.6-1.2,5.2-2.5,7.7-2.5c8.8,0,13.6,7.5,13.6,21.1c0,5.5-1.6,10.7-4.4,14.7c-0.3,0.5-0.5,1.4-0.4,2
			c0.7,3.2,0.8,6.4,0.4,9.7C67.2,58.8,59.9,67.9,55.8,67.9z M46.8,37.6L46.8,37.6c5.6,0.2,6.9,10.3,8,19.3c0.4,2.9,0.8,6.7,1.4,8
			c2.3-0.8,8.2-7.8,9.3-17.5c0.4-2.9,0.2-5.9-0.4-8.7c-0.3-1.4,0.1-3.2,0.9-4.3c2.5-3.5,3.9-8.1,3.9-13c0-8.2-1.8-18.1-10.6-18.1
			c-1.7,0-4.1,1.1-6.4,2.2C51,6.3,49,7.3,47.1,7.7l-0.4,0.1l-0.4-0.1c-1.9-0.5-3.8-1.4-5.7-2.3c-2.3-1.1-4.6-2.2-6.4-2.2
			c-8.8,0-10.6,9.8-10.6,18.1c0,4.8,1.4,9.4,3.9,13c0.8,1.2,1.2,3,0.9,4.3c-0.6,2.8-0.7,5.7-0.4,8.7c1.1,9.7,7,16.7,9.3,17.5
			c0.5-1.3,1-5.1,1.4-8C39.9,47.9,41.2,37.8,46.8,37.6L46.8,37.6z"/>
	</g>
	<g>
		<g>
			<g>
				<path class="st2" d="M59.1,15.9c0,3.3-1.9,5.1-4.4,5.1s-4.4-1.8-4.4-5.1s1.9-6,4.4-6S59.1,12.6,59.1,15.9z"/>
				<path class="st1" d="M58.1,17.5c0,2.6-1.5,3.6-3.3,3.6s-3.3-1-3.3-3.6s1.5-4.6,3.3-4.6S58.1,14.9,58.1,17.5z"/>
			</g>
			<path class="st3" d="M56.8,15c0,0.3-1.3-0.8-1.7-0.9c-0.7-0.2-1.1-0.3-1.2-0.6c0-0.3,0.6-0.4,1.3-0.2
				C56.1,13.5,56.7,14.7,56.8,15z"/>
		</g>
		<g>
			<path class="st2" d="M34.5,15.9c0,3.3,1.9,5.1,4.4,5.1c2.4,0,4.4-1.8,4.4-5.1s-1.9-6-4.4-6C36.4,9.9,34.5,12.6,34.5,15.9z"/>
			<path class="st1" d="M35.5,17.5c0,2.6,1.5,3.6,3.3,3.6c1.8,0,3.3-1,3.3-3.6s-1.5-4.6-3.3-4.6C37,12.8,35.5,14.9,35.5,17.5z"/>
		</g>
		<path class="st3" d="M36.7,15c0,0.3,1.3-0.8,1.7-0.9c0.7-0.2,1.1-0.3,1.2-0.6c0-0.3-0.6-0.4-1.3-0.2C37.4,13.5,36.8,14.7,36.7,15z
			"/>
	</g>
	<g>
		<path class="st0" d="M72.4,47.8c5.6-12.1,4.9-18.7-1.3-25.8"/>
		<path class="st4" d="M66.7,46.6c0.1,0.4,0.6,0.7,1,0.5l1.5-0.5l-3.3,4.2c-0.3,0.4-0.2,0.9,0.1,1.1c0.4,0.3,0.9,0.2,1.1-0.1
			l2.5-3.2l-2.1,3.9c-0.2,0.4-0.1,0.9,0.3,1.1c0.4,0.2,0.9,0.1,1.1-0.3l2.1-4l-1.4,3.4c-0.2,0.4,0,0.9,0.5,1.1
			c0.4,0.2,0.9,0,1.1-0.5l1.4-3.6l-0.5,1.9c-0.1,0.4,0.1,0.9,0.6,1c0.4,0.1,0.9-0.1,1-0.6l1.2-4.7c0,0,0.6-0.9-0.2-1.5l0.9-1.6
			l-3.5-2l-0.9,1.7c-0.1,0.2-0.9,0.3-1.3,0.7l-2.7,1C66.7,45.7,66.6,46.2,66.7,46.6z"/>
	</g>
	<g>
		<circle class="st3" cx="16.8" cy="56.5" r="9.8"/>
		<path class="st5" d="M32,61.5l0.8-4.4l-3.6-1.8c-0.1-1-0.3-2.1-0.7-3l2.5-3.1l-2.5-3.6l-3.8,1.3c-0.8-0.7-1.7-1.2-2.6-1.7l-0.4-4
			l-4.4-0.8l-1.8,3.6c-1,0.1-2.1,0.3-3,0.7l-3.1-2.5l-3.6,2.5l1.3,3.8c-0.7,0.8-1.2,1.7-1.7,2.6l-4,0.4l-0.8,4.4l3.6,1.8
			c0.1,1,0.3,2.1,0.7,3l-2.5,3.1l2.5,3.6l3.8-1.3c0.8,0.7,1.7,1.2,2.6,1.7l0.4,4l4.4,0.8l1.8-3.6c1-0.1,2.1-0.3,3-0.7l3.1,2.5
			l3.6-2.5l-1.3-3.8c0.7-0.8,1.2-1.7,1.7-2.6L32,61.5z M15.5,63.5c-3.8-0.7-6.4-4.3-5.7-8.2s4.3-6.4,8.2-5.7s6.4,4.3,5.7,8.2
			S19.3,64.2,15.5,63.5z"/>
		<ellipse transform="matrix(0.1986 -0.9801 0.9801 0.1986 -42.0192 61.6961)" class="st5" cx="16.7" cy="56.5" rx="3.5" ry="3.5"/>
	</g>
	<g>
		<path class="st0" d="M13.5,49.3c-2.1-13.2,0.3-19.3,8.2-24.5"/>
		<path class="st4" d="M18.9,47.3c-0.3,0.4-0.8,0.4-1.1,0.1l-1.2-0.9l1.7,5c0.1,0.4-0.1,0.9-0.5,1c-0.4,0.1-0.9-0.1-1-0.5l-1.3-3.8
			l0.7,4.4c0.1,0.4-0.2,0.9-0.7,0.9c-0.4,0.1-0.9-0.2-0.9-0.7l-0.7-4.5l0.2,3.7c0,0.4-0.3,0.8-0.8,0.9c-0.4,0-0.8-0.3-0.9-0.8
			l-0.2-3.9l-0.1,2c0,0.4-0.4,0.8-0.9,0.8c-0.4,0-0.8-0.4-0.8-0.9l0.4-4.9c0,0-0.2-1,0.7-1.4l-0.3-1.8l3.9-0.7l0.4,1.9
			c0.1,0.3,0.8,0.6,1.1,1.1l2.3,1.8C19.1,46.4,19.1,46.9,18.9,47.3z"/>
	</g>
</g>
</svg>
