<?xml version="1.0" encoding="utf-8"?>
<!-- Generator: Adobe Illustrator 19.2.1, SVG Export Plug-In . SVG Version: 6.00 Build 0)  -->
<svg version="1.1" id="Layer_1" xmlns="http://www.w3.org/2000/svg" xmlns:xlink="http://www.w3.org/1999/xlink" x="0px" y="0px"
	 viewBox="0 0 59.2 70.4" style="enable-background:new 0 0 59.2 70.4;" xml:space="preserve">
<style type="text/css">
	.st0{fill:#0A97D8;}
	.st1{fill:none;stroke:#1A96D3;stroke-width:2;stroke-linecap:round;stroke-miterlimit:10;}
	.st2{fill:none;stroke:#1796D4;stroke-miterlimit:10;}
	.st3{fill:#FFFFFF;}
	.st4{fill:#FFFFFF;stroke:#1A96D3;stroke-miterlimit:10;}
	.st5{fill:#56C847;}
	.st6{fill:none;}
</style>
<g>
	<g>
		<path class="st0" d="M39.9,67.9L39.9,67.9c-0.1,0-0.2,0-0.3,0c-2.4-0.2-2.8-3.7-3.7-10.7c-0.7-5.7-2.1-16.4-5-16.6
			c-3,0.2-4.3,10.9-5,16.6c-0.9,7-1.3,10.5-3.7,10.7c-0.1,0-0.1,0-0.2,0c-4.1,0-11.4-9.1-12.7-20.3C8.9,44.4,9,41.1,9.7,38
			c0.1-0.5-0.1-1.5-0.4-2c-2.9-4-4.4-9.3-4.4-14.7C4.8,7.7,9.7,0.2,18.5,0.2c2.4,0,5.1,1.3,7.7,2.5c1.6,0.8,3.3,1.6,4.8,2
			c1.5-0.4,3.2-1.2,4.8-2c2.6-1.2,5.2-2.5,7.7-2.5C52.2,0.2,57,7.7,57,21.3c0,5.5-1.6,10.7-4.4,14.7c-0.3,0.5-0.5,1.4-0.4,2
			c0.7,3.2,0.8,6.4,0.4,9.7C51.3,58.8,44,67.9,39.9,67.9z M30.9,37.6L30.9,37.6c5.6,0.2,6.9,10.3,8,19.3c0.4,2.9,0.8,6.7,1.4,8
			c2.3-0.8,8.2-7.8,9.3-17.5c0.4-2.9,0.2-5.9-0.4-8.7c-0.3-1.4,0.1-3.2,0.9-4.3c2.5-3.5,3.9-8.1,3.9-13C54,13,52.2,3.2,43.3,3.2
			c-1.7,0-4.1,1.1-6.4,2.2c-1.9,0.9-3.8,1.8-5.7,2.3l-0.4,0.1l-0.4-0.1c-1.9-0.5-3.8-1.4-5.7-2.3c-2.3-1.1-4.6-2.2-6.4-2.2
			C9.7,3.2,7.8,13,7.8,21.3c0,4.8,1.4,9.4,3.9,13c0.8,1.2,1.2,3,0.9,4.3c-0.6,2.8-0.7,5.7-0.4,8.7c1.1,9.7,7,16.7,9.3,17.5
			c0.5-1.3,1-5.1,1.4-8C24,47.9,25.3,37.8,30.9,37.6L30.9,37.6z"/>
	</g>
	<path class="st1" d="M19.4,26c0,7.3,23,7.5,23,0"/>
	<g>
		<g>
			<g>
				<path class="st2" d="M43.2,16.5c0,3.3-1.9,5.1-4.4,5.1c-2.4,0-4.4-1.8-4.4-5.1s1.9-6,4.4-6C41.3,10.5,43.2,13.2,43.2,16.5z"/>
				<path class="st0" d="M42.2,18.1c0,2.6-1.5,3.6-3.3,3.6c-1.8,0-3.3-1-3.3-3.6s1.5-4.6,3.3-4.6C40.7,13.4,42.2,15.5,42.2,18.1z"/>
			</g>
			<path class="st3" d="M40.9,15.6c0,0.3-1.3-0.8-1.7-0.9c-0.7-0.2-1.1-0.3-1.2-0.6c0-0.3,0.6-0.4,1.3-0.2
				C40.2,14.1,40.9,15.3,40.9,15.6z"/>
		</g>
		<g>
			<path class="st2" d="M18.6,16.5c0,3.3,1.9,5.1,4.4,5.1s4.4-1.8,4.4-5.1s-1.9-6-4.4-6S18.6,13.2,18.6,16.5z"/>
			<path class="st0" d="M19.6,18.1c0,2.6,1.5,3.6,3.3,3.6s3.3-1,3.3-3.6s-1.5-4.6-3.3-4.6S19.6,15.5,19.6,18.1z"/>
		</g>
		<path class="st3" d="M20.9,15.6c0,0.3,1.3-0.8,1.7-0.9c0.7-0.2,1.1-0.3,1.2-0.6c0-0.3-0.6-0.4-1.3-0.2
			C21.6,14.1,20.9,15.3,20.9,15.6z"/>
	</g>
	<g>
		<path class="st1" d="M4.6,47.8C-0.9,35.7-0.3,29.2,6,22"/>
		<path class="st4" d="M10.3,46.6c-0.1,0.4-0.6,0.7-1,0.5l-1.5-0.5l3.3,4.2c0.3,0.4,0.2,0.9-0.1,1.1c-0.4,0.3-0.9,0.2-1.1-0.1
			l-2.5-3.2l2.1,3.9c0.2,0.4,0.1,0.9-0.3,1.1c-0.4,0.2-0.9,0.1-1.1-0.3l-2.1-4l1.4,3.4c0.2,0.4,0,0.9-0.5,1.1
			c-0.4,0.2-0.9,0-1.1-0.5l-1.4-3.6l0.5,1.9c0.1,0.4-0.1,0.9-0.6,1c-0.4,0.1-0.9-0.1-1-0.6L2,47.3c0,0-0.6-0.9,0.2-1.5l-0.9-1.6
			l3.5-2l0.9,1.7c0.1,0.2,0.9,0.3,1.3,0.7l2.7,1C10.3,45.7,10.4,46.2,10.3,46.6z"/>
	</g>
	<path class="st1" d="M47.4,46.8C58,39.8,60.3,31.5,56,23.1"/>
	<g>
		
			<rect x="23.7" y="45.4" transform="matrix(0.4614 0.8872 -0.8872 0.4614 67.2711 2.0029)" class="st3" width="16.5" height="21.9"/>
		<g>
			<path class="st5" d="M34.9,50.4c-0.5,0.2-1,0.1-1.3-0.4c-0.2-0.5-0.1-1,0.4-1.3c0.5-0.2,1-0.1,1.3,0.4
				C35.5,49.6,35.3,50.2,34.9,50.4L34.9,50.4z M34.9,50.4"/>
			
				<rect x="36.7" y="50.9" transform="matrix(0.8892 -0.4574 0.4574 0.8892 -21.2255 23.2932)" class="st5" width="1.6" height="9.1"/>
			<path class="st5" d="M31.6,52.1c-0.5,0.2-1,0.1-1.3-0.4c-0.2-0.5-0.1-1,0.4-1.3c0.5-0.2,1-0.1,1.3,0.4
				C32.2,51.3,32.1,51.9,31.6,52.1L31.6,52.1z M31.6,52.1"/>
			
				<rect x="33.4" y="52.6" transform="matrix(0.8892 -0.4574 0.4574 0.8892 -22.3625 21.9774)" class="st5" width="1.6" height="9.1"/>
			<path class="st5" d="M28,54c-0.5,0.2-1,0.1-1.3-0.4c-0.2-0.5-0.1-1,0.4-1.3c0.5-0.2,1-0.1,1.3,0.4C28.6,53.2,28.4,53.7,28,54
				L28,54z M28,54"/>
			
				<rect x="29.8" y="54.5" transform="matrix(0.8892 -0.4574 0.4574 0.8892 -23.6211 20.5209)" class="st5" width="1.6" height="9.1"/>
			<path class="st5" d="M24.7,55.7c-0.5,0.2-1,0.1-1.3-0.4c-0.2-0.5-0.1-1,0.4-1.3c0.5-0.2,1-0.1,1.3,0.4
				C25.3,54.9,25.1,55.4,24.7,55.7L24.7,55.7z M24.7,55.7"/>
			
				<rect x="26.5" y="56.2" transform="matrix(0.8892 -0.4574 0.4574 0.8892 -24.7582 19.2051)" class="st5" width="1.6" height="9.1"/>
			<path class="st5" d="M46.6,59l-1.8-3.6l1.1-0.6c0,0-0.7-3-1.6-4.8c-0.9-1.8-3-4.1-3-4.1l-1.1,0.6l-1.8-3.5
				c-0.3-0.5-0.9-0.7-1.4-0.5L18,52.5c-0.5,0.3-0.7,0.9-0.5,1.4l8.2,15.9c0.3,0.5,0.9,0.7,1.4,0.5l19.1-9.8
				C46.7,60.2,46.9,59.6,46.6,59L46.6,59z M43.5,50.6c0.2,0.5,0.1,1.1-0.4,1.3c-0.5,0.2-1.1,0.1-1.3-0.4c-0.2-0.5-0.1-1.1,0.4-1.3
				C42.7,49.9,43.3,50.1,43.5,50.6L43.5,50.6z M27.1,67.9l-7.2-14L37.1,45l1.3,2.5l-0.6,0.3l4.6,8.9l0.6-0.3l1.3,2.6L27.1,67.9
				L27.1,67.9z M27.1,67.9"/>
			
				<rect id="SVGID_4_" x="19.8" y="46.1" transform="matrix(0.8892 -0.4574 0.4574 0.8892 -22.0138 21.2033)" class="st6" width="26" height="19.9"/>
		</g>
	</g>
	<path class="st4" d="M39.3,44.1c-0.3-0.1,0.5,0.9,1,1.6l0.3,1.4L38.9,50c-0.4,0.1,0.5,1.8,0.7,2.2c0.2,0.4,1.1,0.6,1.9,0.4
		c0,0,0.2,0,0.8,0c0.4,0,0.9-0.3,1.3-0.6l2.9-2.4c0,0,1-0.4,0.7-1.4l1.9-0.5l-1.8-3.9l-1.7,0.8c-0.3,0.1-0.9-0.3-1.5-0.3L41.5,44
		C41.1,43.9,39.7,44.2,39.3,44.1z"/>
</g>
</svg>
