<?xml version="1.0" encoding="utf-8"?>
<!-- Generator: Adobe Illustrator 19.2.1, SVG Export Plug-In . SVG Version: 6.00 Build 0)  -->
<svg version="1.1" id="Layer_1" xmlns="http://www.w3.org/2000/svg" xmlns:xlink="http://www.w3.org/1999/xlink" x="0px" y="0px"
	 viewBox="0 0 67.3 73" style="enable-background:new 0 0 67.3 73;" xml:space="preserve">
<style type="text/css">
	.st0{fill:#0A97D8;}
	.st1{fill:none;stroke:#1A96D3;stroke-width:2;stroke-linecap:round;stroke-miterlimit:10;}
	.st2{fill:none;stroke:#1796D4;stroke-miterlimit:10;}
	.st3{fill:#FFFFFF;}
	.st4{fill:#FFFFFF;stroke:#1A96D3;stroke-miterlimit:10;}
	.st5{fill:#56C847;}
	.st6{fill:none;}
</style>
<g>
	<g>
		<path class="st0" d="M40.2,68.3L40.2,68.3c-0.1,0-0.2,0-0.3,0c-2.4-0.2-2.8-3.7-3.7-10.7c-0.7-5.7-2.1-16.4-5-16.6
			c-3,0.2-4.3,10.9-5,16.6c-0.9,7-1.3,10.5-3.7,10.7c-0.1,0-0.1,0-0.2,0C18,68.3,10.7,59.2,9.5,48c-0.4-3.2-0.3-6.5,0.4-9.6
			c0.1-0.5-0.1-1.5-0.4-2c-2.9-4-4.4-9.3-4.4-14.7C5.1,8.1,9.9,0.6,18.7,0.6c2.4,0,5.1,1.3,7.7,2.5c1.6,0.8,3.3,1.6,4.8,2
			c1.5-0.4,3.2-1.2,4.8-2c2.6-1.2,5.2-2.5,7.7-2.5c8.8,0,13.7,7.5,13.7,21.1c0,5.5-1.6,10.7-4.4,14.7c-0.3,0.5-0.5,1.4-0.4,2
			c0.7,3.2,0.8,6.4,0.4,9.7C51.6,59.2,44.3,68.3,40.2,68.3z M31.2,38L31.2,38c5.6,0.2,6.9,10.3,8,19.3c0.4,2.9,0.8,6.7,1.4,8
			c2.3-0.8,8.2-7.8,9.3-17.5c0.4-2.9,0.2-5.9-0.4-8.7c-0.3-1.4,0.1-3.2,0.9-4.3c2.5-3.5,3.9-8.1,3.9-13c0-8.2-1.8-18.1-10.7-18.1
			c-1.7,0-4.1,1.1-6.4,2.2c-1.9,0.9-3.8,1.8-5.7,2.3l-0.4,0.1l-0.4-0.1c-1.9-0.5-3.8-1.4-5.7-2.3c-2.3-1.1-4.6-2.2-6.4-2.2
			c-8.8,0-10.6,9.8-10.6,18.1c0,4.8,1.4,9.4,3.9,13c0.8,1.2,1.2,3,0.9,4.3c-0.6,2.8-0.7,5.7-0.4,8.7c1.1,9.7,7,16.7,9.3,17.5
			c0.5-1.3,1-5.1,1.4-8C24.3,48.3,25.5,38.2,31.2,38L31.2,38z"/>
	</g>
	<path class="st1" d="M19.7,26.4c0,7.3,23,7.5,23,0"/>
	<g>
		<g>
			<g>
				<path class="st2" d="M43.5,16.9c0,3.3-1.9,5.1-4.4,5.1c-2.4,0-4.4-1.8-4.4-5.1s1.9-6,4.4-6C41.5,10.9,43.5,13.6,43.5,16.9z"/>
				<path class="st0" d="M42.5,18.4c0,2.6-1.5,3.6-3.3,3.6c-1.8,0-3.3-1-3.3-3.6s1.5-4.6,3.3-4.6C41,13.8,42.5,15.9,42.5,18.4z"/>
			</g>
			<path class="st3" d="M41.2,16c0,0.3-1.3-0.8-1.7-0.9c-0.7-0.2-1.1-0.3-1.2-0.6c0-0.3,0.6-0.4,1.3-0.2
				C40.5,14.5,41.1,15.7,41.2,16z"/>
		</g>
		<g>
			<path class="st2" d="M18.8,16.9c0,3.3,1.9,5.1,4.4,5.1s4.4-1.8,4.4-5.1s-1.9-6-4.4-6S18.8,13.6,18.8,16.9z"/>
			<path class="st0" d="M19.9,18.4c0,2.6,1.5,3.6,3.3,3.6s3.3-1,3.3-3.6s-1.5-4.6-3.3-4.6S19.9,15.9,19.9,18.4z"/>
		</g>
		<path class="st3" d="M21.1,16c0,0.3,1.3-0.8,1.7-0.9c0.7-0.2,1.1-0.3,1.2-0.6c0-0.3-0.6-0.4-1.3-0.2C21.8,14.5,21.2,15.7,21.1,16z
			"/>
	</g>
	<g>
		<path class="st1" d="M4.9,48.2C-0.7,36.1,0,29.5,6.2,22.4"/>
		<path class="st4" d="M10.5,47c-0.1,0.4-0.6,0.7-1,0.5L8,47l3.3,4.2c0.3,0.4,0.2,0.9-0.1,1.1c-0.4,0.3-0.9,0.2-1.1-0.1L7.5,49
			l2.1,3.9c0.2,0.4,0.1,0.9-0.3,1.1c-0.4,0.2-0.9,0.1-1.1-0.3l-2.1-4l1.4,3.4c0.2,0.4,0,0.9-0.5,1.1c-0.4,0.2-0.9,0-1.1-0.5
			l-1.4-3.6L5,52c0.1,0.4-0.1,0.9-0.6,1c-0.4,0.1-0.9-0.1-1-0.6l-1.2-4.7c0,0-0.6-0.9,0.2-1.5l-0.9-1.6l3.5-2L6,44.3
			c0.1,0.2,0.9,0.3,1.3,0.7l2.7,1C10.5,46.1,10.7,46.5,10.5,47z"/>
	</g>
	<g>
		
			<rect x="46.6" y="47.8" transform="matrix(0.9702 0.2424 -0.2424 0.9702 15.8924 -11.5483)" class="st3" width="16.5" height="21.9"/>
		<g>
			<path class="st5" d="M52.3,52.7c-0.1,0.5-0.6,0.8-1.1,0.7c-0.5-0.1-0.8-0.6-0.7-1.1c0.1-0.5,0.6-0.8,1.1-0.7
				C52.1,51.7,52.4,52.2,52.3,52.7L52.3,52.7z M52.3,52.7"/>
			<rect x="57" y="49.5" transform="matrix(0.2468 -0.9691 0.9691 0.2468 -8.8421 96.7589)" class="st5" width="1.6" height="9.1"/>
			<path class="st5" d="M51.4,56.2c-0.1,0.5-0.6,0.8-1.1,0.7c-0.5-0.1-0.8-0.6-0.7-1.1c0.1-0.5,0.6-0.8,1.1-0.7
				C51.2,55.2,51.5,55.7,51.4,56.2L51.4,56.2z M51.4,56.2"/>
			
				<rect x="56.1" y="53.1" transform="matrix(0.2468 -0.9691 0.9691 0.2468 -12.9989 98.5721)" class="st5" width="1.6" height="9.1"/>
			<path class="st5" d="M50.4,60.2c-0.1,0.5-0.6,0.8-1.1,0.7c-0.5-0.1-0.8-0.6-0.7-1.1c0.1-0.5,0.6-0.8,1.1-0.7
				C50.2,59.2,50.5,59.7,50.4,60.2L50.4,60.2z M50.4,60.2"/>
			
				<rect x="55.1" y="57.1" transform="matrix(0.2468 -0.9691 0.9691 0.2468 -17.6001 100.5791)" class="st5" width="1.6" height="9.1"/>
			<path class="st5" d="M49.5,63.8c-0.1,0.5-0.6,0.8-1.1,0.7c-0.5-0.1-0.8-0.6-0.7-1.1c0.1-0.5,0.6-0.8,1.1-0.7
				C49.3,62.8,49.6,63.3,49.5,63.8L49.5,63.8z M49.5,63.8"/>
			
				<rect x="54.2" y="60.6" transform="matrix(0.2468 -0.9691 0.9691 0.2468 -21.7569 102.3923)" class="st5" width="1.6" height="9.1"/>
			<path class="st5" d="M66.5,49.6l-3.9-1l0.3-1.2c0,0-2.7-1.5-4.6-2c-1.9-0.5-5-0.5-5-0.5L53,46.1l-3.8-1c-0.6-0.1-1.1,0.2-1.3,0.8
				l-5.3,20.8c-0.1,0.6,0.2,1.1,0.8,1.3l17.3,4.4c0.6,0.1,1.1-0.2,1.3-0.8l5.3-20.8C67.4,50.3,67.1,49.7,66.5,49.6L66.5,49.6z
				 M58.2,46.3c0.5,0.1,0.8,0.7,0.7,1.2c-0.1,0.5-0.7,0.8-1.2,0.7C57.2,48,56.8,47.5,57,47C57.1,46.5,57.6,46.1,58.2,46.3L58.2,46.3
				z M60.2,70.1l-15.3-3.9l4.8-18.7l2.8,0.7l-0.2,0.7l9.7,2.5l0.2-0.7l2.9,0.7L60.2,70.1L60.2,70.1z M60.2,70.1"/>
			
				<rect id="SVGID_1_" x="42.1" y="48" transform="matrix(0.2468 -0.9691 0.9691 0.2468 -14.6567 97.1046)" class="st6" width="26" height="19.9"/>
		</g>
	</g>
	<g>
		<path class="st1" d="M57.8,47c5.5-12.1,4.8-18.7-1.5-25.8"/>
		<path class="st4" d="M51.3,45.1c0.1,0.4,0.9,0.4,1.6,0.3l1.7,0.3L51.4,50c-0.3,0.4-0.2,0.9,0.2,1.1c0.4,0.3,0.9,0.2,1.1-0.2
			l2.4-3.2l-2,3.9c-0.2,0.4-0.1,0.9,0.3,1.1c0.4,0.2,0.9,0.1,1.1-0.3l2.1-4l-1.3,3.4c-0.2,0.4,0,0.9,0.5,1.1c0.4,0.2,0.9,0,1.1-0.5
			l1.4-3.6l-0.5,1.9c-0.1,0.4,0.1,0.9,0.6,1c0.4,0.1,0.9-0.1,1-0.6l1.2-4.8c0,0,0.6-0.9-0.2-1.5l0.9-1.6l-3.5-1.9L56.6,43
			c-0.1,0.2-0.9,0.3-1.3,0.7l-2.9,0.4C51.9,44.3,51.1,44.7,51.3,45.1z"/>
	</g>
</g>
</svg>
