<?xml version="1.0" encoding="utf-8"?>
<!-- Generator: Adobe Illustrator 19.2.1, SVG Export Plug-In . SVG Version: 6.00 Build 0)  -->
<svg version="1.1" id="Layer_1" xmlns="http://www.w3.org/2000/svg" xmlns:xlink="http://www.w3.org/1999/xlink" x="0px" y="0px"
	 viewBox="0 0 66.5 89.1" style="enable-background:new 0 0 66.5 89.1;" xml:space="preserve">
<style type="text/css">
	.st0{fill:#0A97D8;}
	.st1{fill:none;stroke:#1A96D3;stroke-width:2;stroke-linecap:round;stroke-miterlimit:10;}
	.st2{fill:none;stroke:#1796D4;stroke-miterlimit:10;}
	.st3{fill:#FFFFFF;}
	.st4{fill:#FFFFFF;stroke:#1A96D3;stroke-miterlimit:10;}
	.st5{fill:#56C847;}
</style>
<g>
	<g>
		<path class="st0" d="M40.6,89.1L40.6,89.1c-0.1,0-0.2,0-0.3,0c-2.4-0.2-2.8-3.7-3.7-10.7c-0.7-5.7-2.1-16.4-5-16.6
			c-3,0.2-4.3,10.9-5,16.6c-0.9,7-1.3,10.5-3.7,10.7c-0.1,0-0.1,0-0.2,0c-4.1,0-11.4-9.1-12.7-20.3c-0.4-3.2-0.3-6.5,0.4-9.6
			c0.1-0.5-0.1-1.5-0.4-2c-2.9-4-4.4-9.3-4.4-14.7c0-13.6,4.8-21.1,13.7-21.1c2.4,0,5.1,1.3,7.7,2.5c1.6,0.8,3.3,1.6,4.8,2
			c1.5-0.4,3.2-1.2,4.8-2c2.6-1.2,5.2-2.5,7.7-2.5c8.8,0,13.7,7.5,13.7,21.1c0,5.5-1.6,10.7-4.4,14.7c-0.3,0.5-0.5,1.4-0.4,2
			c0.7,3.2,0.8,6.4,0.4,9.7C52.1,80,44.7,89.1,40.6,89.1z M31.6,58.8L31.6,58.8c5.6,0.2,6.9,10.3,8,19.3c0.4,2.9,0.8,6.7,1.4,8
			c2.3-0.8,8.2-7.8,9.3-17.5c0.4-2.9,0.2-5.9-0.4-8.7c-0.3-1.4,0.1-3.2,0.9-4.3c2.5-3.5,3.9-8.1,3.9-13c0-8.2-1.8-18.1-10.7-18.1
			c-1.7,0-4.1,1.1-6.4,2.2c-1.9,0.9-3.8,1.8-5.7,2.3L31.6,29l-0.4-0.1c-1.9-0.5-3.8-1.4-5.7-2.3c-2.3-1.1-4.6-2.2-6.4-2.2
			c-8.8,0-10.7,9.8-10.7,18.1c0,4.8,1.4,9.4,3.9,13c0.8,1.2,1.2,3,0.9,4.3c-0.6,2.8-0.7,5.7-0.4,8.7c1.1,9.7,7,16.7,9.3,17.5
			c0.5-1.3,1-5.1,1.4-8C24.7,69.1,26,59,31.6,58.8L31.6,58.8z"/>
	</g>
	<path class="st1" d="M20.1,47.2c0,7.3,23,7.5,23,0"/>
	<g>
		<g>
			<g>
				<path class="st2" d="M43.9,37.7c0,3.3-1.9,5.1-4.4,5.1s-4.4-1.8-4.4-5.1s1.9-6,4.4-6S43.9,34.4,43.9,37.7z"/>
				<path class="st0" d="M42.9,39.2c0,2.6-1.5,3.6-3.3,3.6s-3.3-1-3.3-3.6c0-2.6,1.5-4.6,3.3-4.6S42.9,36.7,42.9,39.2z"/>
			</g>
			<path class="st3" d="M41.6,36.8c0,0.3-1.3-0.8-1.7-0.9c-0.7-0.2-1.1-0.3-1.2-0.6c0-0.3,0.6-0.4,1.3-0.2
				C41,35.3,41.6,36.5,41.6,36.8z"/>
		</g>
		<g>
			<path class="st2" d="M19.3,37.7c0,3.3,1.9,5.1,4.4,5.1S28,41,28,37.7s-1.9-6-4.4-6S19.3,34.4,19.3,37.7z"/>
			<path class="st0" d="M20.3,39.2c0,2.6,1.5,3.6,3.3,3.6c1.8,0,3.3-1,3.3-3.6c0-2.6-1.5-4.6-3.3-4.6C21.8,34.6,20.3,36.7,20.3,39.2
				z"/>
		</g>
		<path class="st3" d="M21.6,36.8c0,0.3,1.3-0.8,1.7-0.9c0.7-0.2,1.1-0.3,1.2-0.6s-0.6-0.4-1.3-0.2C22.3,35.3,21.6,36.5,21.6,36.8z"
			/>
	</g>
	<g>
		<path class="st1" d="M5.4,69c-5.6-12.1-4.9-18.7,1.3-25.8"/>
		<path class="st4" d="M11,67.8c-0.1,0.4-0.6,0.7-1,0.5l-1.5-0.5l3.3,4.2c0.3,0.4,0.2,0.9-0.1,1.1c-0.4,0.3-0.9,0.2-1.1-0.1L8,69.8
			l2.1,3.9c0.2,0.4,0.1,0.9-0.3,1.1c-0.4,0.2-0.9,0.1-1.1-0.3l-2.1-4l1.4,3.4c0.2,0.4,0,0.9-0.5,1.1c-0.4,0.2-0.9,0-1.1-0.5
			l-1.4-3.6l0.5,1.9c0.1,0.4-0.1,0.9-0.6,1c-0.4,0.1-0.9-0.1-1-0.6l-1.2-4.7c0,0-0.6-0.9,0.2-1.5L2,65.4l3.5-2l0.9,1.7
			c0.1,0.2,0.9,0.3,1.3,0.7l2.7,1C11,66.9,11.2,67.3,11,67.8z"/>
	</g>
	<g>
		<path class="st1" d="M62.9,22.3c3,13,0.9,19.3-6.6,25"/>
		<path class="st4" d="M57.1,22.3c0.2-0.4,0.7-0.5,1.1-0.3l1.3,0.8L57.2,18c-0.2-0.4,0-0.9,0.4-1.1c0.4-0.2,0.9,0,1.1,0.4l1.8,3.7
			l-1.2-4.3c-0.1-0.4,0.1-0.9,0.6-1c0.4-0.1,0.9,0.1,1,0.6l1.2,4.3l-0.6-3.6c-0.1-0.4,0.2-0.9,0.7-0.9c0.4-0.1,0.9,0.2,0.9,0.7
			l0.6,3.8l-0.1-2c0-0.4,0.3-0.8,0.8-0.9c0.4,0,0.8,0.3,0.9,0.8l0.2,4.9c0,0,0.4,1-0.5,1.5l0.6,1.8l-3.8,1.2L61,25.9
			c-0.1-0.3-0.8-0.5-1.2-0.9l-2.5-1.5C56.9,23.2,56.9,22.7,57.1,22.3z"/>
	</g>
	<g>
		<g>
			<path class="st5" d="M46.6,15c-0.1-1-3.7-0.9-4.2-0.6l0.8,3.9C43.2,18.3,46.7,16,46.6,15z"/>
		</g>
		<g>
			<path class="st5" d="M9.7,15.9c0,0,1-13,3.8-14c2.8-1,14.5-2.4,18.3-1.7c3.9,0.8,7.3,2.2,8.8,7.2c1.5,4.9,1.9,8.2,1.9,8.2
				s-7.5,1.5-13.9,1.6C18.5,17.4,9.7,15.9,9.7,15.9z"/>
		</g>
		<g>
			<path class="st5" d="M9.8,16.5L9,21.4c0,0,3.9,1.6,15.3,1C31.5,22,38.9,21,38.9,21l4.2-2.7l-0.5-2c0,0-8.6,1.4-14.8,1.7
				C18.3,18.4,9.8,16.5,9.8,16.5z"/>
		</g>
		<g>
			<path class="st5" d="M8.5,22.6c0,0-5.6,3.3-4.5,5.4c0.5,1.1,6.2,1.3,12.1,0.8c5.9-0.5,12-1.8,14.4-2.9c4.7-2.3,8.1-4.5,8.1-4.5
				S14.5,25,8.5,22.6z"/>
		</g>
		<g>
			<path class="st5" d="M31.3,25.5c0,0,13.7-7,15.1-10.5c0.5-1.1,1.4,4.3-1,5.8C41.1,23.6,31.3,25.5,31.3,25.5z"/>
		</g>
	</g>
</g>
</svg>
