<?xml version="1.0" encoding="utf-8"?>
<!-- Generator: Adobe Illustrator 19.2.1, SVG Export Plug-In . SVG Version: 6.00 Build 0)  -->
<svg version="1.1" id="Layer_1" xmlns="http://www.w3.org/2000/svg" xmlns:xlink="http://www.w3.org/1999/xlink" x="0px" y="0px"
	 viewBox="0 0 62.7 87.8" style="enable-background:new 0 0 62.7 87.8;" xml:space="preserve">
<style type="text/css">
	.st0{fill:#0A97D8;}
	.st1{fill:none;stroke:#1A96D3;stroke-width:2;stroke-linecap:round;stroke-miterlimit:10;}
	.st2{fill:none;stroke:#1796D4;stroke-miterlimit:10;}
	.st3{fill:#FFFFFF;}
	.st4{fill:#FFFFFF;stroke:#1A96D3;stroke-miterlimit:10;}
	.st5{fill:#56C847;}
</style>
<g>
	<g>
		<g>
			<path class="st0" d="M40,87.9L40,87.9c-0.1,0-0.2,0-0.3,0c-2.4-0.2-2.8-3.7-3.7-10.7c-0.7-5.7-2.1-16.4-5-16.6
				c-3,0.2-4.3,10.9-5,16.6c-0.9,7-1.3,10.5-3.7,10.7c-0.1,0-0.1,0-0.2,0c-4.1,0-11.4-9.1-12.7-20.3C9,64.4,9.1,61.1,9.8,58
				c0.1-0.5-0.1-1.5-0.4-2C6.5,52,5,46.7,5,41.3c0-13.6,4.8-21.1,13.7-21.1c2.4,0,5.1,1.3,7.7,2.5c1.6,0.8,3.3,1.6,4.8,2
				c1.5-0.4,3.2-1.2,4.8-2c2.6-1.2,5.2-2.5,7.7-2.5c8.8,0,13.7,7.5,13.7,21.1c0,5.5-1.6,10.7-4.4,14.7c-0.3,0.5-0.5,1.4-0.4,2
				c0.7,3.2,0.8,6.4,0.4,9.7C51.5,78.8,44.2,87.9,40,87.9z M31,57.6L31,57.6c5.6,0.2,6.9,10.3,8,19.3c0.4,2.9,0.8,6.7,1.4,8
				c2.3-0.8,8.2-7.8,9.3-17.5c0.4-2.9,0.2-5.9-0.4-8.7c-0.3-1.4,0.1-3.2,0.9-4.3c2.5-3.5,3.9-8.1,3.9-13c0-8.2-1.8-18.1-10.7-18.1
				c-1.7,0-4.1,1.1-6.4,2.2c-1.9,0.9-3.8,1.8-5.7,2.3L31,27.8l-0.4-0.1c-1.9-0.5-3.8-1.4-5.7-2.3c-2.3-1.1-4.6-2.2-6.4-2.2
				C9.8,23.2,8,33,8,41.3c0,4.8,1.4,9.4,3.9,13c0.8,1.2,1.2,3,0.9,4.3c-0.6,2.8-0.7,5.7-0.4,8.7c1.1,9.7,7,16.7,9.3,17.5
				c0.5-1.3,1-5.1,1.4-8C24.2,67.9,25.4,57.8,31,57.6L31,57.6z"/>
		</g>
		<path class="st1" d="M19.5,46c0,7.3,23,7.5,23,0"/>
		<g>
			<g>
				<g>
					<path class="st2" d="M43.4,36.5c0,3.3-1.9,5.1-4.4,5.1s-4.4-1.8-4.4-5.1c0-3.3,1.9-6,4.4-6S43.4,33.2,43.4,36.5z"/>
					<path class="st0" d="M42.4,38c0,2.6-1.5,3.6-3.3,3.6s-3.3-1-3.3-3.6c0-2.6,1.5-4.6,3.3-4.6S42.4,35.5,42.4,38z"/>
				</g>
				<path class="st3" d="M41.1,35.6c0,0.3-1.3-0.8-1.7-0.9c-0.7-0.2-1.1-0.3-1.2-0.6c0-0.3,0.6-0.4,1.3-0.2
					C40.4,34.1,41,35.3,41.1,35.6z"/>
			</g>
			<g>
				<path class="st2" d="M18.7,36.5c0,3.3,1.9,5.1,4.4,5.1s4.4-1.8,4.4-5.1c0-3.3-1.9-6-4.4-6S18.7,33.2,18.7,36.5z"/>
				<path class="st0" d="M19.7,38c0,2.6,1.5,3.6,3.3,3.6s3.3-1,3.3-3.6c0-2.6-1.5-4.6-3.3-4.6S19.7,35.5,19.7,38z"/>
			</g>
			<path class="st3" d="M21,35.6c0,0.3,1.3-0.8,1.7-0.9c0.7-0.2,1.1-0.3,1.2-0.6c0-0.3-0.6-0.4-1.3-0.2C21.7,34.1,21.1,35.3,21,35.6
				z"/>
		</g>
		<g>
			<path class="st1" d="M4.8,67.8C-0.8,55.7-0.1,49.1,6.1,42"/>
			<path class="st4" d="M10.4,66.6c-0.1,0.4-0.6,0.7-1,0.5l-1.5-0.5l3.3,4.2c0.3,0.4,0.2,0.9-0.1,1.1c-0.4,0.3-0.9,0.2-1.1-0.1
				l-2.5-3.2l2.1,3.9c0.2,0.4,0.1,0.9-0.3,1.1c-0.4,0.2-0.9,0.1-1.1-0.3l-2.1-4l1.4,3.4c0.2,0.4,0,0.9-0.5,1.1
				c-0.4,0.2-0.9,0-1.1-0.5l-1.4-3.6l0.5,1.9c0.1,0.4-0.1,0.9-0.6,1c-0.4,0.1-0.9-0.1-1-0.6l-1.2-4.7c0,0-0.6-0.9,0.2-1.5l-0.9-1.6
				l3.5-2l0.9,1.7c0.1,0.2,0.9,0.3,1.3,0.7l2.7,1C10.4,65.7,10.6,66.2,10.4,66.6z"/>
		</g>
		<g>
			<path class="st1" d="M57.7,66.6c5.5-12.1,4.8-18.7-1.5-25.8"/>
			<path class="st4" d="M52,65.4c0.1,0.4,0.6,0.6,1,0.5l1.5-0.5l-3.2,4.2c-0.3,0.4-0.2,0.9,0.2,1.1c0.4,0.3,0.9,0.2,1.1-0.2l2.4-3.2
				l-2,3.9c-0.2,0.4-0.1,0.9,0.3,1.1c0.4,0.2,0.9,0.1,1.1-0.3l2.1-4l-1.3,3.4c-0.2,0.4,0,0.9,0.5,1.1c0.4,0.2,0.9,0,1.1-0.5l1.4-3.6
				l-0.5,1.9c-0.1,0.4,0.1,0.9,0.6,1c0.4,0.1,0.9-0.1,1-0.6l1.2-4.8c0,0,0.6-0.9-0.2-1.5l0.9-1.6L57.4,61l-0.9,1.7
				c-0.1,0.2-0.9,0.3-1.3,0.7l-2.7,1C52,64.5,51.8,65,52,65.4z"/>
		</g>
	</g>
	<g>
		<g>
			<path class="st5" d="M52.8,20.2c0.2-1-3.4-1.7-4-1.5l-0.1,4C48.7,22.7,52.7,21.2,52.8,20.2z"/>
		</g>
		<g>
			<path class="st5" d="M16.6,12.8c0,0,3.9-12.5,6.8-12.8c2.9-0.3,14.6,0.9,18.2,2.5c3.6,1.6,6.6,3.8,7,9c0.3,5.1,0.1,8.4,0.1,8.4
				s-7.6-0.2-13.9-1.5C24.9,16.3,16.6,12.8,16.6,12.8z"/>
		</g>
		<g>
			<path class="st5" d="M16.6,13.5l-1.9,4.6c0,0,3.5,2.5,14.7,4.4c7.1,1.2,14.6,1.9,14.6,1.9l4.7-1.7l0-2.1c0,0-8.7-0.5-14.8-1.6
				C24.5,17.2,16.6,13.5,16.6,13.5z"/>
		</g>
		<g>
			<path class="st5" d="M14,19.1c0,0-6.2,1.9-5.6,4.3c0.3,1.2,5.8,2.6,11.6,3.4c5.9,0.8,12.1,1,14.7,0.4c5-1.2,8.9-2.5,8.9-2.5
				S19.3,22.9,14,19.1z"/>
		</g>
		<g>
			<path class="st5" d="M35.5,27c0,0,14.9-3.8,17.1-6.8c0.7-1,0.4,4.5-2.2,5.4C45.5,27.4,35.5,27,35.5,27z"/>
		</g>
	</g>
</g>
</svg>
