<?xml version="1.0" encoding="utf-8"?>
<!-- Generator: Adobe Illustrator 19.2.1, SVG Export Plug-In . SVG Version: 6.00 Build 0)  -->
<svg version="1.1" id="Layer_1" xmlns="http://www.w3.org/2000/svg" xmlns:xlink="http://www.w3.org/1999/xlink" x="0px" y="0px"
	 viewBox="0 0 69.6 68.6" style="enable-background:new 0 0 69.6 68.6;" xml:space="preserve">
<style type="text/css">
	.st0{fill:none;stroke:#1A96D3;stroke-width:2.0813;stroke-miterlimit:10;}
	.st1{fill:#0A97D8;}
	.st2{fill:none;stroke:#1A96D3;stroke-width:2;stroke-linecap:round;stroke-miterlimit:10;}
	.st3{fill:#56C847;}
	.st4{fill:none;stroke:#1796D4;stroke-miterlimit:10;}
	.st5{fill:#FFFFFF;}
	.st6{fill:#FFFFFF;stroke:#1A96D3;stroke-miterlimit:10;}
</style>
<g>
	<path class="st0" d="M59.8,39c13.4,2.2,10.3-8.2-4.3-14.3"/>
	<g>
		<path class="st1" d="M39.6,68.6L39.6,68.6c-0.1,0-0.2,0-0.3,0c-2.4-0.2-2.8-3.7-3.7-10.7c-0.7-5.7-2.1-16.4-5-16.6
			c-3,0.2-4.3,10.9-5,16.6c-0.9,7-1.3,10.5-3.7,10.7c-0.1,0-0.1,0-0.2,0c-4.1,0-11.4-9.1-12.7-20.3c-0.4-3.2-0.3-6.5,0.4-9.6
			c0.1-0.5-0.1-1.5-0.4-2c-2.9-4-4.4-9.3-4.4-14.7C4.5,8.4,9.3,0.9,18.2,0.9c2.4,0,5.1,1.3,7.7,2.5c1.6,0.8,3.3,1.6,4.8,2
			c1.5-0.4,3.2-1.2,4.8-2c2.6-1.2,5.2-2.5,7.7-2.5c8.8,0,13.7,7.5,13.7,21.1c0,5.5-1.6,10.7-4.4,14.7c-0.3,0.5-0.5,1.4-0.4,2
			c0.7,3.2,0.8,6.4,0.4,9.7C51,59.5,43.7,68.6,39.6,68.6z M30.6,38.3L30.6,38.3c5.6,0.2,6.9,10.3,8,19.3c0.4,2.9,0.8,6.7,1.4,8
			c2.3-0.8,8.2-7.8,9.3-17.5c0.4-2.9,0.2-5.9-0.4-8.7C48.6,38,49,36.1,49.8,35c2.5-3.5,3.9-8.1,3.9-13c0-8.2-1.8-18.1-10.7-18.1
			c-1.7,0-4.1,1.1-6.4,2.2C34.8,7,32.8,8,31,8.4l-0.4,0.1l-0.4-0.1C28.3,8,26.4,7,24.5,6.1c-2.3-1.1-4.6-2.2-6.4-2.2
			C9.3,3.9,7.5,13.8,7.5,22c0,4.8,1.4,9.4,3.9,13c0.8,1.2,1.2,3,0.9,4.3c-0.6,2.8-0.7,5.7-0.4,8.7c1.1,9.7,7,16.7,9.3,17.5
			c0.5-1.3,1-5.1,1.4-8C23.7,48.6,25,38.5,30.6,38.3L30.6,38.3z"/>
	</g>
	<path class="st2" d="M19.1,26.7c0,7.3,23,7.5,23,0"/>
	<path class="st3" d="M60.3,34.7l-8.7-9.3c0,0,0,0,0,0L49,24.7l-1.7-1.8c1.5-1.8,2.3-4.1,2.4-6.5c0.1-2.9-0.9-5.6-2.9-7.7
		c-2-2.1-4.6-3.3-7.5-3.4c-2.9-0.1-5.6,0.9-7.7,2.9s-3.3,4.6-3.4,7.5c-0.1,2.9,0.9,5.6,2.9,7.7c2,2.1,4.6,3.3,7.5,3.4
		c2.4,0.1,4.7-0.6,6.6-2l1.7,1.8l0.6,2.6c0,0,0,0,0,0l8.7,9.3c0,0,0.1,0,0.1,0c2.6,1.2,5.1-0.9,3.9-3.7
		C60.4,34.9,60.4,34.8,60.3,34.7z M39.2,7.8c2.2,0.1,4.3,1,5.8,2.6c1.5,1.6,2.3,3.7,2.2,5.9c-0.1,2.2-1,4.3-2.6,5.8
		c-1.6,1.5-3.7,2.3-5.9,2.2c-2.2-0.1-4.3-1-5.8-2.6c-1.5-1.6-2.3-3.7-2.2-5.9c0.1-2.2,1-4.3,2.6-5.8C34.9,8.5,37,7.7,39.2,7.8z"/>
	<g>
		<g>
			<path class="st4" d="M43.4,17c0,3.3-1.9,5.1-4.4,5.1s-4.4-1.8-4.4-5.1s1.9-6,4.4-6S43.4,13.6,43.4,17z"/>
			<path class="st1" d="M42.4,18.5c0,2.6-1.5,3.6-3.3,3.6s-3.3-1-3.3-3.6s1.5-4.6,3.3-4.6S42.4,15.9,42.4,18.5z"/>
		</g>
		<path class="st5" d="M41.1,16.1c0,0.3-1.3-0.8-1.7-0.9c-0.7-0.2-1.1-0.3-1.2-0.6c0-0.3,0.6-0.4,1.3-0.2
			C40.5,14.6,41.1,15.8,41.1,16.1z"/>
	</g>
	<path class="st5" d="M20.5,16.1c0,0.3,1.3-0.8,1.7-0.9c0.7-0.2,1.1-0.3,1.2-0.6c0-0.3-0.6-0.4-1.3-0.2
		C21.2,14.6,20.5,15.8,20.5,16.1z"/>
	<g>
		<path class="st2" d="M4.8,49.4c-5.6-12.1-4.9-18.7,1.3-25.8"/>
		<path class="st6" d="M10.5,48.1c-0.1,0.4-0.6,0.7-1,0.5L8,48.1l3.3,4.2c0.3,0.4,0.2,0.9-0.1,1.1c-0.4,0.3-0.9,0.2-1.1-0.1
			l-2.5-3.2l2.1,3.9c0.2,0.4,0.1,0.9-0.3,1.1c-0.4,0.2-0.9,0.1-1.1-0.3l-2.1-4l1.4,3.4c0.2,0.4,0,0.9-0.5,1.1
			c-0.4,0.2-0.9,0-1.1-0.5l-1.4-3.6L5,53.2c0.1,0.4-0.1,0.9-0.6,1c-0.4,0.1-0.9-0.1-1-0.6l-1.2-4.7c0,0-0.6-0.9,0.2-1.5l-0.9-1.6
			l3.5-2l0.9,1.7c0.1,0.2,0.9,0.3,1.3,0.7l2.7,1C10.5,47.2,10.6,47.7,10.5,48.1z"/>
	</g>
	<path class="st6" d="M57.2,31.2c-0.4,0.2,0.9,0.9,1,1.3l0.9,1.9l-5.7,1.2c-0.4-0.3,0,0.2-0.1,0.6c-0.2,0.4,0.2,1.1,0.6,1.3
		c0,0,1,0.4,0.9,0.8c-0.1,0.4,0.2,0.7,0.7,0.8l3.6,0.8c0,0,0.9,0.5,1.5-0.3l1.5,1.2l2-3.8l-1.7-0.9c-0.2-0.1-0.3-0.9-0.7-1.3
		l-1.2-2.2C60.5,32.2,57.6,31.1,57.2,31.2z"/>
	<path class="st2" d="M24.3,16.5c-2-1.7-5.1-1.2-7,1"/>
</g>
</svg>
