<?xml version="1.0" encoding="utf-8"?>
<!-- Generator: Adobe Illustrator 19.2.1, SVG Export Plug-In . SVG Version: 6.00 Build 0)  -->
<svg version="1.1" id="Layer_1" xmlns="http://www.w3.org/2000/svg" xmlns:xlink="http://www.w3.org/1999/xlink" x="0px" y="0px"
	 viewBox="0 0 79.2 69.8" style="enable-background:new 0 0 79.2 69.8;" xml:space="preserve">
<style type="text/css">
	.st0{fill:#56C847;}
	.st1{fill:#0A97D8;}
	.st2{fill:none;stroke:#1A96D3;stroke-width:2;stroke-linecap:round;stroke-miterlimit:10;}
	.st3{fill:none;stroke:#1796D4;stroke-miterlimit:10;}
	.st4{fill:#FFFFFF;}
	.st5{fill:#FFFFFF;stroke:#1A96D3;stroke-miterlimit:10;}
</style>
<g>
	<path class="st0" d="M61.8,31.4L63.5,44c0,0,0,0,0,0l1.6,2.1l0.3,2.4c-2.3,0.6-4.3,2-5.7,3.9c-1.7,2.3-2.5,5.1-2.1,8
		c0.4,2.9,1.9,5.4,4.2,7.1s5.1,2.5,8,2.1s5.4-1.9,7.1-4.2c1.7-2.3,2.5-5.1,2.1-8c-0.4-2.9-1.9-5.4-4.2-7.1c-1.9-1.4-4.2-2.2-6.5-2.2
		L68,45.7l1-2.5c0,0,0,0,0-0.1l-1.7-12.6c0,0-0.1-0.1-0.1-0.1c-1.4-2.5-4.7-2.2-5.3,0.7C61.8,31.2,61.8,31.3,61.8,31.4z M63.4,65.6
		c-1.8-1.3-2.9-3.3-3.2-5.5c-0.3-2.2,0.3-4.4,1.6-6.1c1.3-1.8,3.3-2.9,5.5-3.2c2.2-0.3,4.4,0.3,6.1,1.6c1.8,1.3,2.9,3.3,3.2,5.5
		c0.3,2.2-0.3,4.4-1.6,6.1c-1.3,1.8-3.3,2.9-5.5,3.2C67.4,67.5,65.2,66.9,63.4,65.6z"/>
	<g>
		<path class="st1" d="M40.9,67.7L40.9,67.7c-0.1,0-0.2,0-0.3,0C38.3,67.5,37.9,64,37,57c-0.7-5.7-2.1-16.4-5-16.6
			c-3,0.2-4.3,10.9-5,16.6c-0.9,7-1.3,10.5-3.7,10.7c-0.1,0-0.1,0-0.2,0c-4.1,0-11.4-9.1-12.7-20.3c-0.4-3.2-0.3-6.5,0.4-9.6
			c0.1-0.5-0.1-1.5-0.4-2c-2.9-4-4.4-9.3-4.4-14.7C5.9,7.5,10.7,0,19.5,0c2.4,0,5.1,1.3,7.7,2.5c1.6,0.8,3.3,1.6,4.8,2
			c1.5-0.4,3.2-1.2,4.8-2C39.3,1.3,42,0,44.4,0C53.2,0,58,7.5,58,21.1c0,5.5-1.6,10.7-4.4,14.7c-0.3,0.5-0.5,1.4-0.4,2
			c0.7,3.2,0.8,6.4,0.4,9.7C52.4,58.6,45.1,67.7,40.9,67.7z M31.9,37.4L31.9,37.4c5.6,0.2,6.9,10.3,8,19.3c0.4,2.9,0.8,6.7,1.4,8
			c2.3-0.8,8.2-7.8,9.3-17.5c0.4-2.9,0.2-5.9-0.4-8.7c-0.3-1.4,0.1-3.2,0.9-4.3c2.5-3.5,3.9-8.1,3.9-13C55,12.8,53.2,3,44.4,3
			c-1.7,0-4.1,1.1-6.4,2.2c-1.9,0.9-3.8,1.8-5.7,2.3l-0.4,0.1l-0.4-0.1c-1.9-0.5-3.8-1.4-5.7-2.3C23.6,4.1,21.3,3,19.5,3
			C10.7,3,8.9,12.8,8.9,21.1c0,4.8,1.4,9.4,3.9,13c0.8,1.2,1.2,3,0.9,4.3c-0.6,2.8-0.7,5.7-0.4,8.7c1.1,9.7,7,16.7,9.3,17.5
			c0.5-1.3,1-5.1,1.4-8C25.1,47.7,26.3,37.6,31.9,37.4L31.9,37.4z"/>
	</g>
	<path class="st2" d="M20.4,25.8c0,7.3,23,7.5,23,0"/>
	<g>
		<g>
			<g>
				<path class="st3" d="M44.3,16.3c0,3.3-1.9,5.1-4.4,5.1c-2.4,0-4.4-1.8-4.4-5.1s1.9-6,4.4-6C42.3,10.3,44.3,13,44.3,16.3z"/>
				<path class="st1" d="M43.3,17.8c0,2.6-1.5,3.6-3.3,3.6c-1.8,0-3.3-1-3.3-3.6s1.5-4.6,3.3-4.6C41.8,13.2,43.3,15.3,43.3,17.8z"/>
			</g>
			<path class="st4" d="M42,15.4c0,0.3-1.3-0.8-1.7-0.9c-0.7-0.2-1.1-0.3-1.2-0.6c0-0.3,0.6-0.4,1.3-0.2
				C41.3,13.9,41.9,15.1,42,15.4z"/>
		</g>
		<g>
			<path class="st3" d="M19.6,16.3c0,3.3,1.9,5.1,4.4,5.1s4.4-1.8,4.4-5.1s-1.9-6-4.4-6S19.6,13,19.6,16.3z"/>
			<path class="st1" d="M20.6,17.8c0,2.6,1.5,3.6,3.3,3.6s3.3-1,3.3-3.6s-1.5-4.6-3.3-4.6S20.6,15.3,20.6,17.8z"/>
		</g>
		<path class="st4" d="M21.9,15.4c0,0.3,1.3-0.8,1.7-0.9c0.7-0.2,1.1-0.3,1.2-0.6c0-0.3-0.6-0.4-1.3-0.2
			C22.6,13.9,22,15.1,21.9,15.4z"/>
	</g>
	<g>
		<path class="st2" d="M5.7,47.6C0.1,35.5,0.8,28.9,7,21.8"/>
		<path class="st5" d="M11.3,46.4c-0.1,0.4-0.6,0.7-1,0.5l-1.5-0.5l3.3,4.2c0.3,0.4,0.2,0.9-0.1,1.1c-0.4,0.3-0.9,0.2-1.1-0.1
			l-2.5-3.2l2.1,3.9c0.2,0.4,0.1,0.9-0.3,1.1c-0.4,0.2-0.9,0.1-1.1-0.3l-2.1-4l1.4,3.4c0.2,0.4,0,0.9-0.5,1.1
			c-0.4,0.2-0.9,0-1.1-0.5l-1.4-3.6l0.5,1.9c0.1,0.4-0.1,0.9-0.6,1c-0.4,0.1-0.9-0.1-1-0.6l-1.2-4.7c0,0-0.6-0.9,0.2-1.5L2.4,44
			l3.5-2l0.9,1.7c0.1,0.2,0.9,0.3,1.3,0.7l2.7,1C11.3,45.5,11.5,46,11.3,46.4z"/>
	</g>
	<g>
		<path class="st2" d="M67.9,43.5c0.5-13.3-2.6-19.1-11.1-23.3"/>
		<path class="st5" d="M62.2,44.5c0.3,0.3,0.8,0.4,1.1,0.1l1.2-1l-1.4,5.1c-0.1,0.4,0.1,0.9,0.6,1c0.4,0.1,0.9-0.1,1-0.6l1.1-3.9
			l-0.4,4.4c0,0.4,0.3,0.8,0.7,0.9c0.4,0,0.8-0.3,0.9-0.7l0.4-4.5l0.1,3.7c0,0.4,0.4,0.8,0.8,0.8c0.4,0,0.8-0.4,0.8-0.8L69,45l0.2,2
			c0.1,0.4,0.5,0.8,0.9,0.7c0.4-0.1,0.8-0.5,0.7-0.9L70.1,42c0,0,0.2-1.1-0.8-1.3l0.2-1.8l-4-0.5l-0.2,1.9c0,0.3-0.7,0.6-1,1.1
			l-2.2,2C61.9,43.6,61.9,44.1,62.2,44.5z"/>
	</g>
</g>
</svg>
