<?xml version="1.0" encoding="utf-8"?>
<!-- Generator: Adobe Illustrator 19.2.1, SVG Export Plug-In . SVG Version: 6.00 Build 0)  -->
<svg version="1.1" id="Layer_1" xmlns="http://www.w3.org/2000/svg" xmlns:xlink="http://www.w3.org/1999/xlink" x="0px" y="0px"
	 viewBox="0 0 76.7 78.8" style="enable-background:new 0 0 76.7 78.8;" xml:space="preserve">
<style type="text/css">
	.st0{fill:#0A97D8;}
	.st1{fill:#1796D4;}
	.st2{fill:none;stroke:#1A96D3;stroke-width:2;stroke-linecap:round;stroke-miterlimit:10;}
	.st3{fill:#FFFFFF;}
	.st4{fill:#56C847;}
	.st5{fill:none;stroke:#1796D4;stroke-miterlimit:10;}
	.st6{fill:#FFFFFF;stroke:#1A96D3;stroke-miterlimit:10;}
	.st7{fill:none;}
</style>
<g>
	<g>
		<path class="st0" d="M45.3,78.8L45.3,78.8c-0.1,0-0.2,0-0.3,0c-2.4-0.2-2.8-3.7-3.7-10.7c-0.7-5.7-2.1-16.4-5-16.6
			c-3,0.2-4.3,10.9-5,16.6c-0.9,7-1.3,10.5-3.7,10.7c-0.1,0-0.1,0-0.2,0c-4.1,0-11.4-9.1-12.7-20.3c-0.4-3.2-0.3-6.5,0.4-9.6
			c0.1-0.5-0.1-1.5-0.4-2c-2.9-4-4.4-9.3-4.4-14.7c0-13.6,4.8-21.1,13.7-21.1c2.4,0,5.1,1.3,7.7,2.5c1.6,0.8,3.3,1.6,4.8,2
			c1.5-0.4,3.2-1.2,4.8-2c2.6-1.2,5.2-2.5,7.7-2.5c8.8,0,13.7,7.5,13.7,21.1c0,5.5-1.6,10.7-4.4,14.7c-0.3,0.5-0.5,1.4-0.4,2
			c0.7,3.2,0.8,6.4,0.4,9.7C56.7,69.7,49.4,78.8,45.3,78.8z M36.3,48.4L36.3,48.4c5.6,0.2,6.9,10.3,8,19.3c0.4,2.9,0.8,6.7,1.4,8
			c2.3-0.8,8.2-7.8,9.3-17.5c0.4-2.9,0.2-5.9-0.4-8.7c-0.3-1.4,0.1-3.2,0.9-4.3c2.5-3.5,3.9-8.1,3.9-13c0-8.2-1.8-18.1-10.7-18.1
			c-1.7,0-4.1,1.1-6.4,2.2c-1.9,0.9-3.8,1.8-5.7,2.3l-0.4,0.1l-0.4-0.1c-1.9-0.5-3.8-1.4-5.7-2.3c-2.3-1.1-4.6-2.2-6.4-2.2
			c-8.8,0-10.7,9.8-10.7,18.1c0,4.8,1.4,9.4,3.9,13c0.8,1.2,1.2,3,0.9,4.3c-0.6,2.8-0.7,5.7-0.4,8.7c1.1,9.7,7,16.7,9.3,17.5
			c0.5-1.3,1-5.1,1.4-8C29.4,58.8,30.7,48.6,36.3,48.4L36.3,48.4z"/>
	</g>
	<path class="st1" d="M24.8,36.9c0,8.5,23,8.7,23,0"/>
	<path class="st2" d="M22.2,27.3"/>
	<path class="st2" d="M49,27.3"/>
	<path class="st3" d="M39.5,39.2h-2.5c-0.2,0-0.4-0.2-0.4-0.4l-0.1-3H40l-0.1,2.9C39.9,39,39.7,39.2,39.5,39.2z"/>
	<path class="st3" d="M35.6,39.2H33c-0.2,0-0.4-0.2-0.4-0.4l-0.1-3h3.6L36,38.8C36,39,35.8,39.2,35.6,39.2z"/>
	<path class="st3" d="M39.5,42H37c-0.2,0-0.4,0.2-0.4,0.4l-0.1,3H40l-0.1-2.9C39.9,42.2,39.7,42,39.5,42z"/>
	<path class="st3" d="M35.6,42H33c-0.2,0-0.4,0.2-0.4,0.4l-0.1,3h3.6L36,42.5C36,42.2,35.8,42,35.6,42z"/>
	<polygon class="st4" points="10.2,19.6 7.6,12.3 0.4,9.8 7.6,7.2 10.2,0 12.8,7.2 20,9.8 12.8,12.3 	"/>
	<polygon class="st4" points="13.2,31.3 11.5,26.7 6.9,25 11.5,23.3 13.2,18.7 14.9,23.3 19.5,25 14.9,26.7 	"/>
	<g>
		<g>
			<g>
				<path class="st5" d="M48.8,27.1c0,3.3-1.9,5.1-4.4,5.1c-2.4,0-4.4-1.8-4.4-5.1s1.9-6,4.4-6C46.8,21.1,48.8,23.8,48.8,27.1z"/>
				<path class="st0" d="M47.8,28.7c0,2.6-1.5,3.6-3.3,3.6s-3.3-1-3.3-3.6s1.5-4.6,3.3-4.6S47.8,26.1,47.8,28.7z"/>
			</g>
			<path class="st3" d="M46.5,26.3c0,0.3-1.3-0.8-1.7-0.9c-0.7-0.2-1.1-0.3-1.2-0.6s0.6-0.4,1.3-0.2C45.8,24.8,46.4,26,46.5,26.3z"
				/>
		</g>
		<g>
			<path class="st5" d="M24.1,27.1c0,3.3,1.9,5.1,4.4,5.1s4.4-1.8,4.4-5.1s-1.9-6-4.4-6S24.1,23.8,24.1,27.1z"/>
			<path class="st0" d="M25.1,28.7c0,2.6,1.5,3.6,3.3,3.6c1.8,0,3.3-1,3.3-3.6s-1.5-4.6-3.3-4.6C26.6,24.1,25.1,26.1,25.1,28.7z"/>
		</g>
		<path class="st3" d="M26.4,26.3c0,0.3,1.3-0.8,1.7-0.9c0.7-0.2,1.1-0.3,1.2-0.6s-0.6-0.4-1.3-0.2C27.1,24.8,26.5,26,26.4,26.3z"/>
	</g>
	<g>
		<path class="st2" d="M10.5,60.9c-5.6-12.1-4.9-18.7,1.3-25.8"/>
		<path class="st6" d="M16.1,59.6c-0.1,0.4-0.6,0.7-1,0.5l-1.5-0.5l3.3,4.2c0.3,0.4,0.2,0.9-0.1,1.1c-0.4,0.3-0.9,0.2-1.1-0.1
			l-2.5-3.2l2.1,3.9c0.2,0.4,0.1,0.9-0.3,1.1c-0.4,0.2-0.9,0.1-1.1-0.3l-2.1-4l1.4,3.4c0.2,0.4,0,0.9-0.5,1.1
			c-0.4,0.2-0.9,0-1.1-0.5l-1.4-3.6l0.5,1.9c0.1,0.4-0.1,0.9-0.6,1c-0.4,0.1-0.9-0.1-1-0.6l-1.2-4.7c0,0-0.6-0.9,0.2-1.5l-0.9-1.6
			l3.5-2l0.9,1.7c0.1,0.2,0.9,0.3,1.3,0.7l2.7,1C16.1,58.7,16.3,59.2,16.1,59.6z"/>
	</g>
	<g>
		<polygon class="st3" points="71.2,49.9 65,57.6 54.9,46.9 58.8,42.1 		"/>
		<g>
			<path class="st4" d="M65.2,59.7C65,60,65,60.3,65.2,60.5l1.5,1.3c0.2,0.2,0.6,0.2,0.8-0.1L76,51.4c0.2-0.2,0.2-0.6-0.1-0.8
				l-1.5-1.3c-0.2-0.2-0.6-0.2-0.8,0.1L65.2,59.7z M65.2,59.7"/>
			<path class="st4" d="M54,46.1c-0.1,0.1-0.1,0.3-0.1,0.4c0,0.1,0.1,0.2,0.1,0.3l10.4,11.4c0.1,0.1,0.3,0.2,0.4,0.2
				c0.2,0,0.3-0.1,0.4-0.2l6.8-8.2c0,0,0,0,0,0c0.1-0.1,0.1-0.3,0.1-0.4c0-0.1-0.1-0.3-0.2-0.4c0,0-0.1-0.1-0.2-0.1L59,40.8
				c-0.2-0.2-0.5-0.1-0.7,0.1L54,46.1z M70.7,49.7l-5.9,7.1l-9.6-10.4l3.6-4.3L70.7,49.7z M70.7,49.7"/>
			<path class="st4" d="M52,37.8l-2.2,2.7c-0.2,0.2-0.2,0.5,0,0.7l3.3,3.6c0.1,0.1,0.3,0.2,0.4,0.2c0.2,0,0.3-0.1,0.4-0.2L57,41
				c0,0,0,0,0,0c0.2-0.2,0.2-0.6-0.1-0.8c-0.1,0-0.1-0.1-0.2-0.1l-4.1-2.5C52.5,37.5,52.2,37.5,52,37.8L52,37.8z M52,37.8"/>
			
				<rect x="50.5" y="36.3" transform="matrix(0.9956 -9.349087e-002 9.349087e-002 0.9956 -4.3228 6.1527)" class="st7" width="26" height="25.9"/>
		</g>
	</g>
	<g>
		<path class="st2" d="M62.3,60.9c5.6-12.1,4.9-18.7-1.3-25.8"/>
		<path class="st6" d="M56.6,59.6c0.1,0.4,0.6,0.7,1,0.5l1.5-0.5l-3.3,4.2c-0.3,0.4-0.2,0.9,0.1,1.1c0.4,0.3,0.9,0.2,1.1-0.1
			l2.5-3.2l-2.1,3.9c-0.2,0.4-0.1,0.9,0.3,1.1c0.4,0.2,0.9,0.1,1.1-0.3l2.1-4l-1.4,3.4c-0.2,0.4,0,0.9,0.5,1.1
			c0.4,0.2,0.9,0,1.1-0.5l1.4-3.6l-0.5,1.9c-0.1,0.4,0.1,0.9,0.6,1c0.4,0.1,0.9-0.1,1-0.6l1.2-4.7c0,0,0.6-0.9-0.2-1.5l0.9-1.6
			l-3.5-2l-0.9,1.7c-0.1,0.2-0.9,0.3-1.3,0.7l-2.7,1C56.6,58.7,56.5,59.2,56.6,59.6z"/>
	</g>
</g>
</svg>
