<?xml version="1.0" encoding="utf-8"?>
<!-- Generator: Adobe Illustrator 19.2.1, SVG Export Plug-In . SVG Version: 6.00 Build 0)  -->
<svg version="1.1" id="Layer_1" xmlns="http://www.w3.org/2000/svg" xmlns:xlink="http://www.w3.org/1999/xlink" x="0px" y="0px"
	 viewBox="0 0 72.6 68.6" style="enable-background:new 0 0 72.6 68.6;" xml:space="preserve">
<style type="text/css">
	.st0{fill:#0A97D8;}
	.st1{fill:none;stroke:#1A96D3;stroke-width:2;stroke-linecap:round;stroke-miterlimit:10;}
	.st2{fill:none;stroke:#1796D4;stroke-miterlimit:10;}
	.st3{fill:#FFFFFF;}
	.st4{fill:#FFFFFF;stroke:#1A96D3;stroke-miterlimit:10;}
	.st5{fill:#56C847;}
	.st6{fill:none;}
</style>
<g>
	<g>
		<path class="st0" d="M40.9,68L40.9,68c-0.1,0-0.2,0-0.3,0c-2.4-0.2-2.8-3.7-3.7-10.7c-0.7-5.7-2.1-16.4-5-16.6
			c-3,0.2-4.3,10.9-5,16.6c-0.9,7-1.3,10.5-3.7,10.7c-0.1,0-0.1,0-0.2,0c-4.1,0-11.4-9.1-12.7-20.3c-0.4-3.2-0.3-6.5,0.4-9.6
			c0.1-0.5-0.1-1.5-0.4-2c-2.9-4-4.4-9.3-4.4-14.7c0-13.6,4.8-21.1,13.7-21.1c2.4,0,5.1,1.3,7.7,2.5c1.6,0.8,3.3,1.6,4.8,2
			c1.5-0.4,3.2-1.2,4.8-2c2.6-1.2,5.2-2.5,7.7-2.5C53.1,0.3,58,7.8,58,21.4c0,5.5-1.6,10.7-4.4,14.7c-0.3,0.5-0.5,1.4-0.4,2
			c0.7,3.2,0.8,6.4,0.4,9.7C52.3,58.9,45,68,40.9,68z M31.9,37.7L31.9,37.7c5.6,0.2,6.9,10.3,8,19.3c0.4,2.9,0.8,6.7,1.4,8
			c2.3-0.8,8.2-7.8,9.3-17.5c0.4-2.9,0.2-5.9-0.4-8.7c-0.3-1.4,0.1-3.2,0.9-4.3c2.5-3.5,3.9-8.1,3.9-13c0-8.2-1.8-18.1-10.7-18.1
			c-1.7,0-4.1,1.1-6.4,2.2c-1.9,0.9-3.8,1.8-5.7,2.3l-0.4,0.1l-0.4-0.1c-1.9-0.5-3.8-1.4-5.7-2.3c-2.3-1.1-4.6-2.2-6.4-2.2
			c-8.8,0-10.6,9.8-10.6,18.1c0,4.8,1.4,9.4,3.9,13c0.8,1.2,1.2,3,0.9,4.3c-0.6,2.8-0.7,5.7-0.4,8.7c1.1,9.7,7,16.7,9.3,17.5
			c0.5-1.3,1-5.1,1.4-8C25,48,26.3,37.9,31.9,37.7L31.9,37.7z"/>
	</g>
	<path class="st1" d="M20.4,26.1c0,7.3,23,7.5,23,0"/>
	<g>
		<g>
			<g>
				<path class="st2" d="M44.2,16.6c0,3.3-1.9,5.1-4.4,5.1s-4.4-1.8-4.4-5.1s1.9-6,4.4-6S44.2,13.3,44.2,16.6z"/>
				<path class="st0" d="M43.2,18.1c0,2.6-1.5,3.6-3.3,3.6s-3.3-1-3.3-3.6c0-2.6,1.5-4.6,3.3-4.6S43.2,15.6,43.2,18.1z"/>
			</g>
			<path class="st3" d="M41.9,15.7c0,0.3-1.3-0.8-1.7-0.9c-0.7-0.2-1.1-0.3-1.2-0.6c0-0.3,0.6-0.4,1.3-0.2
				C41.2,14.2,41.8,15.4,41.9,15.7z"/>
		</g>
		<g>
			<path class="st2" d="M19.6,16.6c0,3.3,1.9,5.1,4.4,5.1s4.4-1.8,4.4-5.1s-1.9-6-4.4-6S19.6,13.3,19.6,16.6z"/>
			<path class="st0" d="M20.6,18.1c0,2.6,1.5,3.6,3.3,3.6s3.3-1,3.3-3.6c0-2.6-1.5-4.6-3.3-4.6S20.6,15.6,20.6,18.1z"/>
		</g>
		<path class="st3" d="M21.8,15.7c0,0.3,1.3-0.8,1.7-0.9c0.7-0.2,1.1-0.3,1.2-0.6c0-0.3-0.6-0.4-1.3-0.2
			C22.5,14.2,21.9,15.4,21.8,15.7z"/>
	</g>
	<g>
		<path class="st1" d="M5.6,47.9C0,35.8,0.7,29.2,6.9,22.1"/>
		<path class="st4" d="M11.2,46.7c-0.1,0.4-0.6,0.7-1,0.5l-1.5-0.5l3.3,4.2c0.3,0.4,0.2,0.9-0.1,1.1c-0.4,0.3-0.9,0.2-1.1-0.1
			l-2.5-3.2l2.1,3.9c0.2,0.4,0.1,0.9-0.3,1.1c-0.4,0.2-0.9,0.1-1.1-0.3l-2.1-4l1.4,3.4c0.2,0.4,0,0.9-0.5,1.1
			c-0.4,0.2-0.9,0-1.1-0.5l-1.4-3.6l0.5,1.9c0.1,0.4-0.1,0.9-0.6,1c-0.4,0.1-0.9-0.1-1-0.6L3,47.4c0,0-0.6-0.9,0.2-1.5l-0.9-1.6
			l3.5-2L6.7,44c0.1,0.2,0.9,0.3,1.3,0.7l2.7,1C11.2,45.7,11.4,46.2,11.2,46.7z"/>
	</g>
	<g>
		<polygon class="st3" points="67.6,35.6 61.4,43.3 51.3,32.6 55.3,27.7 		"/>
		<g>
			<path class="st5" d="M61.6,45.4c-0.2,0.2-0.2,0.6,0.1,0.8l1.5,1.3c0.2,0.2,0.6,0.2,0.8-0.1l8.5-10.2c0.2-0.2,0.2-0.6-0.1-0.8
				l-1.5-1.3c-0.2-0.2-0.6-0.2-0.8,0.1L61.6,45.4z M61.6,45.4"/>
			<path class="st5" d="M50.4,31.7c-0.1,0.1-0.1,0.3-0.1,0.4c0,0.1,0.1,0.2,0.1,0.3l10.4,11.4c0.1,0.1,0.3,0.2,0.4,0.2
				c0.2,0,0.3-0.1,0.4-0.2l6.8-8.2c0,0,0,0,0,0c0.1-0.1,0.1-0.3,0.1-0.4c0-0.1-0.1-0.3-0.2-0.4c0,0-0.1-0.1-0.2-0.1l-12.9-8.3
				c-0.2-0.2-0.5-0.1-0.7,0.1L50.4,31.7z M67.1,35.4l-5.9,7.1l-9.6-10.4l3.6-4.3L67.1,35.4z M67.1,35.4"/>
			<path class="st5" d="M48.4,23.4l-2.2,2.7c-0.2,0.2-0.2,0.5,0,0.7l3.3,3.6c0.1,0.1,0.3,0.2,0.4,0.2c0.2,0,0.3-0.1,0.4-0.2l3.1-3.7
				c0,0,0,0,0,0c0.2-0.2,0.2-0.6-0.1-0.8c-0.1,0-0.1-0.1-0.2-0.1l-4.1-2.5C48.9,23.2,48.6,23.2,48.4,23.4L48.4,23.4z M48.4,23.4"/>
			
				<rect x="46.9" y="21.9" transform="matrix(0.9956 -9.349087e-002 9.349087e-002 0.9956 -2.9978 5.7566)" class="st6" width="26" height="25.9"/>
		</g>
	</g>
	<g>
		<path class="st1" d="M58.5,46.7C64,34.5,63.2,28,56.9,20.9"/>
		<path class="st4" d="M52.8,45.5c0.1,0.4,0.6,0.6,1,0.5l1.5-0.5l-3.2,4.2c-0.3,0.4-0.2,0.9,0.2,1.1c0.4,0.3,0.9,0.2,1.1-0.2
			l2.4-3.2l-2,3.9c-0.2,0.4-0.1,0.9,0.3,1.1c0.4,0.2,0.9,0.1,1.1-0.3l2.1-4L56,51.6c-0.2,0.4,0,0.9,0.5,1.1c0.4,0.2,0.9,0,1.1-0.5
			l1.4-3.6l-0.5,1.9c-0.1,0.4,0.1,0.9,0.6,1c0.4,0.1,0.9-0.1,1-0.6l1.2-4.8c0,0,0.6-0.9-0.2-1.5l0.9-1.6l-3.5-1.9l-0.9,1.7
			C57.2,43,56.4,43,56,43.4l-2.7,1C52.8,44.6,52.7,45.1,52.8,45.5z"/>
	</g>
</g>
</svg>
