<?xml version="1.0" encoding="utf-8"?>
<!-- Generator: Adobe Illustrator 19.2.1, SVG Export Plug-In . SVG Version: 6.00 Build 0)  -->
<svg version="1.1" id="Layer_1" xmlns="http://www.w3.org/2000/svg" xmlns:xlink="http://www.w3.org/1999/xlink" x="0px" y="0px"
	 viewBox="0 0 52.2 68.6" style="enable-background:new 0 0 52.2 68.6;" xml:space="preserve">
<style type="text/css">
	.st0{fill:none;stroke:#1A96D3;stroke-width:2;stroke-linecap:round;stroke-miterlimit:10;}
	.st1{fill:#0A97D8;}
	.st2{fill:none;stroke:#1796D4;stroke-miterlimit:10;}
	.st3{fill:#FFFFFF;}
	.st4{fill:#56C847;}
	.st5{fill:#FFFFFF;stroke:#1A96D3;stroke-miterlimit:10;}
</style>
<g>
	<path class="st0" d="M14.6,26.4c0,7.3,23,7.5,23,0"/>
	<g>
		<path class="st1" d="M35.1,68.3L35.1,68.3c-0.1,0-0.2,0-0.3,0c-2.4-0.2-2.8-3.7-3.7-10.7c-0.7-5.7-2.1-16.4-5-16.6
			c-3,0.2-4.3,10.9-5,16.6c-0.9,7-1.3,10.5-3.7,10.7c-0.1,0-0.1,0-0.2,0c-4.1,0-11.4-9.1-12.7-20.3c-0.4-3.2-0.3-6.5,0.4-9.6
			c0.1-0.5-0.1-1.5-0.4-2C1.6,32.4,0,27.2,0,21.7C0,8.1,4.8,0.7,13.7,0.7c2.4,0,5.1,1.3,7.7,2.5c1.6,0.8,3.3,1.6,4.8,2
			c1.5-0.4,3.2-1.2,4.8-2c2.6-1.2,5.2-2.5,7.7-2.5c8.8,0,13.7,7.5,13.7,21.1c0,5.5-1.6,10.7-4.4,14.7c-0.3,0.5-0.5,1.4-0.4,2
			c0.7,3.2,0.8,6.4,0.4,9.7C46.5,59.3,39.2,68.3,35.1,68.3z M26.1,38L26.1,38c5.6,0.2,6.9,10.3,8,19.3c0.4,2.9,0.8,6.7,1.4,8
			c2.3-0.8,8.2-7.8,9.3-17.5c0.4-2.9,0.2-5.9-0.4-8.7c-0.3-1.4,0.1-3.2,0.9-4.3c2.5-3.5,3.9-8.1,3.9-13c0-8.2-1.8-18.1-10.7-18.1
			c-1.7,0-4.1,1.1-6.4,2.2c-1.9,0.9-3.8,1.8-5.7,2.3l-0.4,0.1l-0.4-0.1c-1.9-0.5-3.8-1.4-5.7-2.3c-2.3-1.1-4.6-2.2-6.4-2.2
			C4.8,3.7,3,13.5,3,21.7c0,4.8,1.4,9.4,3.9,13c0.8,1.2,1.2,3,0.9,4.3c-0.6,2.8-0.7,5.7-0.4,8.7c1.1,9.7,7,16.7,9.3,17.5
			c0.5-1.3,1-5.1,1.4-8C19.2,48.4,20.5,38.2,26.1,38L26.1,38z"/>
	</g>
	<g>
		<g>
			<g>
				<path class="st2" d="M38.4,16.3c0,3.3-1.9,5.1-4.4,5.1s-4.4-1.8-4.4-5.1s1.9-6,4.4-6S38.4,13,38.4,16.3z"/>
				<path class="st1" d="M37.4,17.9c0,2.6-1.5,3.6-3.3,3.6s-3.3-1-3.3-3.6c0-2.6,1.5-4.6,3.3-4.6S37.4,15.3,37.4,17.9z"/>
			</g>
			<path class="st3" d="M36.1,15.4c0,0.3-1.3-0.8-1.7-0.9c-0.7-0.2-1.1-0.3-1.2-0.6c0-0.3,0.6-0.4,1.3-0.2
				C35.4,13.9,36.1,15.2,36.1,15.4z"/>
		</g>
		<g>
			<path class="st2" d="M13.8,16.3c0,3.3,1.9,5.1,4.4,5.1s4.4-1.8,4.4-5.1s-1.9-6-4.4-6S13.8,13,13.8,16.3z"/>
			<path class="st1" d="M14.8,17.9c0,2.6,1.5,3.6,3.3,3.6s3.3-1,3.3-3.6c0-2.6-1.5-4.6-3.3-4.6S14.8,15.3,14.8,17.9z"/>
		</g>
		<path class="st3" d="M16.1,15.4c0,0.3,1.3-0.8,1.7-0.9c0.7-0.2,1.1-0.3,1.2-0.6c0-0.3-0.6-0.4-1.3-0.2
			C16.8,13.9,16.1,15.2,16.1,15.4z"/>
	</g>
	<g>
		<path class="st3" d="M26.6,36.7c0.7,0.6,1.2,1.1,1.2,1.1c0.3,0.3,0.3,0.7,0,1c-0.3,0.3-0.7,0.3-1,0c0,0-4.6-4.8-7.4-2.8
			c-1.2,0.9-2,2.1-2.1,3.6c-0.2,1.9,0.5,3.7,1.1,4.7h14c0.4-0.7,0.7-1.5,0.8-2.4c0.2-1.7-0.4-3.5-1.7-5
			C30.2,35.4,27.7,36.2,26.6,36.7z"/>
		<path class="st4" d="M32.6,36.1c-2.5-2.9-6.6-0.6-7.2-0.3c-1.9-1.3-4.6-2.4-6.7-0.8c-1.5,1.2-2.4,2.7-2.6,4.5
			c-0.3,2.4,0.8,4.8,1.5,5.9h0c0,0.3,0,0.8,0,0.8h6.7v1.7h-4.5c0.1,0.5,0.2,1,0.4,1.6h4.1v1.7h-3.7c0.2,0.6,0.3,1.1,0.5,1.7h3.1v1.7
			h-2.5c0.2,0.6,0.5,1.2,0.8,1.7h1.7v1.7h-1.3c0.8,1,1.7,1.6,2.7,1.6c0,0,0,0,0,0c0,0,0,0,0,0c1,0,1.9-0.6,2.7-1.6H27v-1.7h1.7
			c0.3-0.5,0.6-1.1,0.8-1.7H27v-1.7h3.1c0.2-0.6,0.4-1.1,0.5-1.7H27v-1.7h4.1c0.1-0.6,0.3-1.1,0.4-1.6H27v-1.7h6.4c0,0,0-0.4,0-0.8
			h0c0.7-1,1.1-2.1,1.2-3.2C34.8,40.7,34.6,38.5,32.6,36.1L32.6,36.1z M33.2,42c-0.1,0.8-0.4,1.6-0.8,2.3H18.5
			c-0.5-0.9-1.3-2.8-1.1-4.7c0.2-1.4,0.9-2.6,2.1-3.5c2.7-2.1,7.3,2.7,7.3,2.7c0.3,0.3,0.7,0.3,1,0c0.3-0.3,0.3-0.7,0-1
			c-0.1-0.1-0.5-0.5-1.2-1.1c1.1-0.5,3.5-1.4,4.9,0.3C32.8,38.6,33.4,40.3,33.2,42L33.2,42z M33.2,42"/>
	</g>
	<g>
		<path class="st0" d="M15.5,49.2C3.9,42.5,0.7,36.8,1.6,27.3"/>
		<path class="st5" d="M17.3,43.7c0.1,0.4-0.2,0.9-0.6,1l-1.5,0.4l5,1.8c0.4,0.2,0.6,0.6,0.5,1c-0.2,0.4-0.6,0.6-1,0.5L15.8,47
			l3.8,2.2c0.4,0.2,0.5,0.7,0.3,1.1c-0.2,0.4-0.7,0.5-1.1,0.3l-3.9-2.3l3,2.2c0.4,0.3,0.4,0.8,0.2,1.1c-0.3,0.4-0.8,0.4-1.1,0.2
			l-3.1-2.3l1.5,1.3c0.3,0.3,0.4,0.8,0.1,1.1c-0.3,0.3-0.8,0.4-1.1,0.1l-3.5-3.4c0,0-1-0.5-0.6-1.4l-1.6-0.9l1.9-3.5l1.7,0.9
			c0.2,0.1,0.9-0.2,1.5-0.2l2.8-0.6C16.8,43,17.2,43.3,17.3,43.7z"/>
	</g>
	<g>
		<path class="st0" d="M36.1,48.6c11.7-6.5,15-12.2,14.2-21.6"/>
		<path class="st5" d="M32.3,44.3c-0.1,0.4,0.1,0.9,0.5,1l1.5,0.5l-5.1,1.5c-0.4,0.1-0.7,0.6-0.6,1c0.1,0.4,0.6,0.7,1,0.6l3.9-1.1
			l-4,1.9c-0.4,0.2-0.6,0.7-0.4,1.1c0.2,0.4,0.7,0.6,1.1,0.4l4.1-2l-3.1,2c-0.4,0.2-0.5,0.7-0.3,1.1c0.2,0.4,0.7,0.5,1.1,0.3
			l3.3-2.1l-1.6,1.2c-0.4,0.3-0.4,0.8-0.1,1.1c0.3,0.4,0.8,0.4,1.1,0.1l3.8-3.1c0,0,1-0.4,0.7-1.4l1.7-0.8L39.3,44l-1.7,0.8
			c-0.3,0.1-0.9-0.3-1.5-0.3l-2.8-0.8C32.8,43.5,32.4,43.8,32.3,44.3z"/>
	</g>
</g>
</svg>
