<?xml version="1.0" encoding="utf-8"?>
<!-- Generator: Adobe Illustrator 19.2.1, SVG Export Plug-In . SVG Version: 6.00 Build 0)  -->
<svg version="1.1" id="Layer_1" xmlns="http://www.w3.org/2000/svg" xmlns:xlink="http://www.w3.org/1999/xlink" x="0px" y="0px"
	 viewBox="0 0 71 68.6" style="enable-background:new 0 0 71 68.6;" xml:space="preserve">
<style type="text/css">
	.st0{fill:#56C847;}
	.st1{fill:none;stroke:#1A96D3;stroke-width:2;stroke-linecap:round;stroke-miterlimit:10;}
	.st2{fill:#0A97D8;}
	.st3{fill:none;stroke:#1796D4;stroke-miterlimit:10;}
	.st4{fill:#FFFFFF;}
	.st5{fill:#FFFFFF;stroke:#1A96D3;stroke-miterlimit:10;}
</style>
<g>
	<path class="st0" d="M16.1,46.2c-2.3-2.6-6.1-0.6-6.7-0.3c-1.8-1.2-4.2-2.3-6.2-0.7c-1.4,1.1-2.2,2.5-2.4,4.2
		c-0.3,2.3,0.7,4.5,1.4,5.5h0c0,0.3,0,0.7,0,0.7h6.2V57H4.2c0.1,0.4,0.2,0.9,0.3,1.5h3.8V60H5c0.1,0.5,0.3,1.1,0.5,1.6h2.9v1.5H6
		c0.2,0.6,0.5,1.1,0.7,1.6h1.6v1.5H7.1c0.7,0.9,1.5,1.5,2.5,1.5c0,0,0,0,0,0c0,0,0,0,0,0c0.9,0,1.7-0.6,2.5-1.5h-1.2v-1.5h1.6
		c0.3-0.5,0.5-1,0.7-1.6h-2.3v-1.5h2.9c0.2-0.5,0.3-1.1,0.5-1.6h-3.4v-1.5h3.8c0.1-0.5,0.2-1,0.3-1.5h-4.1v-1.5h5.9c0,0,0-0.4,0-0.7
		h0c0.6-0.9,1-1.9,1.1-3C18.1,50.4,17.9,48.3,16.1,46.2L16.1,46.2z M16.6,51.6c-0.1,0.8-0.4,1.5-0.8,2.2H3c-0.5-0.9-1.2-2.6-1-4.3
		C2.2,48.1,2.8,47,4,46.2c2.5-1.9,6.7,2.5,6.8,2.5c0.2,0.3,0.7,0.3,0.9,0c0.3-0.2,0.3-0.6,0-0.9c-0.1-0.1-0.5-0.5-1.1-1.1
		c1-0.5,3.3-1.3,4.6,0.2C16.3,48.4,16.8,50,16.6,51.6L16.6,51.6z M16.6,51.6"/>
	<path class="st1" d="M28.9,25.8c0,7.3,23,7.5,23,0"/>
	<g>
		<path class="st2" d="M49.4,67.7L49.4,67.7c-0.1,0-0.2,0-0.3,0c-2.4-0.2-2.8-3.7-3.7-10.7c-0.7-5.7-2.1-16.4-5-16.6
			c-3,0.2-4.3,10.9-5,16.6c-0.9,7-1.3,10.5-3.7,10.7c-0.1,0-0.1,0-0.2,0c-4.1,0-11.4-9.1-12.7-20.3c-0.4-3.2-0.3-6.5,0.4-9.6
			c0.1-0.5-0.1-1.5-0.4-2c-2.9-4-4.4-9.3-4.4-14.7C14.3,7.5,19.2,0,28,0c2.4,0,5.1,1.3,7.7,2.5c1.6,0.8,3.3,1.6,4.8,2
			c1.5-0.4,3.2-1.2,4.8-2C47.8,1.3,50.4,0,52.9,0c8.8,0,13.7,7.5,13.7,21.1c0,5.5-1.6,10.7-4.4,14.7c-0.3,0.5-0.5,1.4-0.4,2
			c0.7,3.2,0.8,6.4,0.4,9.7C60.8,58.6,53.5,67.7,49.4,67.7z M40.4,37.4L40.4,37.4c5.6,0.2,6.9,10.3,8,19.3c0.4,2.9,0.8,6.7,1.4,8
			c2.3-0.8,8.2-7.8,9.3-17.5c0.4-2.9,0.2-5.9-0.4-8.7c-0.3-1.4,0.1-3.2,0.9-4.3c2.5-3.5,3.9-8.1,3.9-13C63.5,12.8,61.7,3,52.9,3
			c-1.7,0-4.1,1.1-6.4,2.2c-1.9,0.9-3.8,1.8-5.7,2.3l-0.4,0.1L40,7.5c-1.9-0.5-3.8-1.4-5.7-2.3C32.1,4.1,29.7,3,28,3
			c-8.8,0-10.6,9.8-10.6,18.1c0,4.8,1.4,9.4,3.9,13c0.8,1.2,1.2,3,0.9,4.3c-0.6,2.8-0.7,5.7-0.4,8.7c1.1,9.7,7,16.7,9.3,17.5
			c0.5-1.3,1-5.1,1.4-8C33.5,47.7,34.8,37.6,40.4,37.4L40.4,37.4z"/>
	</g>
	<g>
		<g>
			<g>
				<path class="st3" d="M52.7,15.7c0,3.3-1.9,5.1-4.4,5.1S44,19,44,15.7s1.9-6,4.4-6S52.7,12.4,52.7,15.7z"/>
				<path class="st2" d="M51.7,17.2c0,2.6-1.5,3.6-3.3,3.6s-3.3-1-3.3-3.6c0-2.6,1.5-4.6,3.3-4.6S51.7,14.7,51.7,17.2z"/>
			</g>
			<path class="st4" d="M50.4,14.8c0,0.3-1.3-0.8-1.7-0.9c-0.7-0.2-1.1-0.3-1.2-0.6c0-0.3,0.6-0.4,1.3-0.2
				C49.7,13.3,50.4,14.5,50.4,14.8z"/>
		</g>
		<g>
			<path class="st3" d="M28.1,15.7c0,3.3,1.9,5.1,4.4,5.1c2.4,0,4.4-1.8,4.4-5.1s-1.9-6-4.4-6C30,9.7,28.1,12.4,28.1,15.7z"/>
			<path class="st2" d="M29.1,17.2c0,2.6,1.5,3.6,3.3,3.6c1.8,0,3.3-1,3.3-3.6c0-2.6-1.5-4.6-3.3-4.6C30.6,12.6,29.1,14.7,29.1,17.2
				z"/>
		</g>
		<path class="st4" d="M30.4,14.8c0,0.3,1.3-0.8,1.7-0.9c0.7-0.2,1.1-0.3,1.2-0.6c0-0.3-0.6-0.4-1.3-0.2
			C31.1,13.3,30.4,14.5,30.4,14.8z"/>
	</g>
	<g>
		<path class="st1" d="M66,47.6c5.6-12.1,4.9-18.7-1.3-25.8"/>
		<path class="st5" d="M60.3,46.4c0.1,0.4,0.6,0.7,1,0.5l1.5-0.5l-3.3,4.2c-0.3,0.4-0.2,0.9,0.1,1.1c0.4,0.3,0.9,0.2,1.1-0.1
			l2.5-3.2l-2.1,3.9c-0.2,0.4-0.1,0.9,0.3,1.1c0.4,0.2,0.9,0.1,1.1-0.3l2.1-4l-1.4,3.4c-0.2,0.4,0,0.9,0.5,1.1
			c0.4,0.2,0.9,0,1.1-0.5l1.4-3.6l-0.5,1.9c-0.1,0.4,0.1,0.9,0.6,1c0.4,0.1,0.9-0.1,1-0.6l1.2-4.7c0,0,0.6-0.9-0.2-1.5l0.9-1.6
			l-3.5-2l-0.9,1.7c-0.1,0.2-0.9,0.3-1.3,0.7l-2.7,1C60.4,45.5,60.2,46,60.3,46.4z"/>
	</g>
	<path class="st1" d="M7.1,49C5,35.9,7.4,29.7,15.3,24.5"/>
	<path class="st5" d="M10.1,46.2l1.7,5c0.1,0.4-0.1,0.9-0.5,1c-0.4,0.1-0.9-0.1-1-0.5L9,48l0.7,4.4c0.1,0.4-0.2,0.9-0.7,0.9
		c-0.4,0.1-0.9-0.2-0.9-0.7l-0.7-4.5l0.2,3.7c0,0.4-0.3,0.8-0.8,0.9c-0.4,0-0.8-0.3-0.9-0.8L5.8,48l-0.1,2c0,0.4-0.4,0.8-0.9,0.8
		c-0.4,0-0.8-0.4-0.8-0.9l0.4-4.9c0,0-0.2-1,0.7-1.4l-0.3-1.8l3.9-0.7L9.1,43c0.1,0.3,0.8,0.6,1.1,1.1l2.3,0.8
		C12.5,44.9,10.9,45.4,10.1,46.2z"/>
</g>
</svg>
