<?xml version="1.0" encoding="utf-8"?>
<!-- Generator: Adobe Illustrator 19.2.1, SVG Export Plug-In . SVG Version: 6.00 Build 0)  -->
<svg version="1.1" id="Layer_1" xmlns="http://www.w3.org/2000/svg" xmlns:xlink="http://www.w3.org/1999/xlink" x="0px" y="0px"
	 viewBox="0 0 68.3 68.2" style="enable-background:new 0 0 68.3 68.2;" xml:space="preserve">
<style type="text/css">
	.st0{fill:#0A97D8;}
	.st1{fill:none;stroke:#1A96D3;stroke-width:2;stroke-linecap:round;stroke-miterlimit:10;}
	.st2{fill:none;stroke:#1796D4;stroke-miterlimit:10;}
	.st3{fill:#FFFFFF;}
	.st4{fill:#FFFFFF;stroke:#1A96D3;stroke-miterlimit:10;}
	.st5{fill:#56C847;}
</style>
<g>
	<g>
		<path class="st0" d="M41.1,67.7L41.1,67.7c-0.1,0-0.2,0-0.3,0C38.4,67.5,38,64,37.1,57c-0.7-5.7-2.1-16.4-5-16.6
			c-3,0.2-4.3,10.9-5,16.6c-0.9,7-1.3,10.5-3.7,10.7c-0.1,0-0.1,0-0.2,0c-4.1,0-11.4-9.1-12.7-20.3c-0.4-3.2-0.3-6.5,0.4-9.6
			c0.1-0.5-0.1-1.5-0.4-2C7.6,31.8,6,26.5,6,21.1C6,7.5,10.8,0,19.6,0c2.4,0,5.1,1.3,7.7,2.5c1.6,0.8,3.3,1.6,4.8,2
			c1.5-0.4,3.2-1.2,4.8-2C39.4,1.3,42.1,0,44.5,0c8.8,0,13.7,7.5,13.7,21.1c0,5.5-1.6,10.7-4.4,14.7c-0.3,0.5-0.5,1.4-0.4,2
			c0.7,3.2,0.8,6.4,0.4,9.7C52.5,58.6,45.2,67.7,41.1,67.7z M32.1,37.4L32.1,37.4c5.6,0.2,6.9,10.3,8,19.3c0.4,2.9,0.8,6.7,1.4,8
			c2.3-0.8,8.2-7.8,9.3-17.5c0.4-2.9,0.2-5.9-0.4-8.7c-0.3-1.4,0.1-3.2,0.9-4.3c2.5-3.5,3.9-8.1,3.9-13C55.2,12.8,53.3,3,44.5,3
			c-1.7,0-4.1,1.1-6.4,2.2c-1.9,0.9-3.8,1.8-5.7,2.3l-0.4,0.1l-0.4-0.1C29.8,7,27.9,6.1,26,5.2C23.7,4.1,21.4,3,19.6,3
			C10.8,3,9,12.8,9,21.1c0,4.8,1.4,9.4,3.9,13c0.8,1.2,1.2,3,0.9,4.3c-0.6,2.8-0.7,5.7-0.4,8.7c1.1,9.7,7,16.7,9.3,17.5
			c0.5-1.3,1-5.1,1.4-8C25.2,47.7,26.5,37.6,32.1,37.4L32.1,37.4z"/>
	</g>
	<path class="st1" d="M20.6,25.8c0,7.3,23,7.5,23,0"/>
	<g>
		<g>
			<g>
				<path class="st2" d="M44.4,16.3c0,3.3-1.9,5.1-4.4,5.1s-4.4-1.8-4.4-5.1s1.9-6,4.4-6S44.4,13,44.4,16.3z"/>
				<path class="st0" d="M43.4,17.8c0,2.6-1.5,3.6-3.3,3.6s-3.3-1-3.3-3.6s1.5-4.6,3.3-4.6S43.4,15.3,43.4,17.8z"/>
			</g>
			<path class="st3" d="M42.1,15.4c0,0.3-1.3-0.8-1.7-0.9c-0.7-0.2-1.1-0.3-1.2-0.6c0-0.3,0.6-0.4,1.3-0.2
				C41.4,13.9,42.1,15.1,42.1,15.4z"/>
		</g>
		<g>
			<path class="st2" d="M19.8,16.3c0,3.3,1.9,5.1,4.4,5.1s4.4-1.8,4.4-5.1s-1.9-6-4.4-6S19.8,13,19.8,16.3z"/>
			<path class="st0" d="M20.8,17.8c0,2.6,1.5,3.6,3.3,3.6c1.8,0,3.3-1,3.3-3.6s-1.5-4.6-3.3-4.6C22.3,13.2,20.8,15.3,20.8,17.8z"/>
		</g>
		<path class="st3" d="M22.1,15.4c0,0.3,1.3-0.8,1.7-0.9c0.7-0.2,1.1-0.3,1.2-0.6c0-0.3-0.6-0.4-1.3-0.2
			C22.7,13.9,22.1,15.1,22.1,15.4z"/>
	</g>
	<g>
		<path class="st1" d="M5.8,47.6C0.2,35.5,0.9,28.9,7.1,21.8"/>
		<path class="st4" d="M11.5,46.4c-0.1,0.4-0.6,0.7-1,0.5L9,46.4l3.3,4.2c0.3,0.4,0.2,0.9-0.1,1.1c-0.4,0.3-0.9,0.2-1.1-0.1
			l-2.5-3.2l2.1,3.9c0.2,0.4,0.1,0.9-0.3,1.1c-0.4,0.2-0.9,0.1-1.1-0.3l-2.1-4l1.4,3.4c0.2,0.4,0,0.9-0.5,1.1
			c-0.4,0.2-0.9,0-1.1-0.5l-1.4-3.6l0.5,1.9c0.1,0.4-0.1,0.9-0.6,1c-0.4,0.1-0.9-0.1-1-0.6l-1.2-4.7c0,0-0.6-0.9,0.2-1.5L2.5,44
			L6,42l0.9,1.7c0.1,0.2,0.9,0.3,1.3,0.7l2.7,1C11.4,45.5,11.6,46,11.5,46.4z"/>
	</g>
	<g>
		<path class="st5" d="M68.3,42.1c0.2-4.1-2.2-7-5.9-7c-1,0-1.9,0.7-2.8,1.1c-0.4,0.2-0.7,0.3-1.1,0.4c0,0,0,0,0,0
			c-0.3,0-0.5-0.1-0.7-0.2c0,0,0,0,0,0c0,0,0,0,0,0c-1-0.5-1.8-1.3-3-1.3c-1.7,0-3.2,0.6-4.3,1.6c-1.4,1.2-2.2,3.1-2.3,5.3
			c-0.2,2.7,0.6,8.4,3.1,10.6c0.9,0.8-0.7,14.7,2.7,15.5c1.6,0.4-0.3-12.9,3.6-13.1c3.9,0.3,0.5,13.5,2.1,13.1
			C63,67.5,63,53.5,64,52.7C66.7,50.5,68.1,44.9,68.3,42.1z M57.7,51.9L57.7,51.9c-1.2-0.4-7.7-3-8.2-9.8c-0.1-1.3,0.7-3.3,1.8-4.2
			c0.9-0.8,2.3-1.7,3.4-1.3c1.8,0.2,2.9,1.7,3.7,2c0.8-0.4,2-1.9,3.9-2c1.2-0.4,2.5,0.5,3.3,1.3c1,1,1.6,2.9,1.4,4.2
			C65.6,48.9,58.9,51.5,57.7,51.9z"/>
		<path class="st3" d="M65.5,37.6c-0.9-0.8-2.1-1.7-3.4-1.3c-1.9,0.2-3.1,1.8-3.9,2.1c-0.7-0.3-1.9-1.9-3.7-2
			c-1.2-0.4-2.5,0.5-3.5,1.4c-1.1,1-1.9,3-1.8,4.3c0.7,6.9,7.3,9.4,8.5,9.8l0.1,0c1.2-0.4,8-3.1,9.2-10.1
			C67.1,40.5,66.5,38.6,65.5,37.6z"/>
	</g>
	<g>
		<path class="st1" d="M58.7,46.4c5.5-12.1,4.8-18.7-1.5-25.8"/>
		<path class="st4" d="M53,45.2c0.1,0.4,0.6,0.6,1,0.5l1.5-0.5l-3.2,4.2c-0.3,0.4-0.2,0.9,0.2,1.1c0.4,0.3,0.9,0.2,1.1-0.2l2.4-3.2
			l-2,3.9c-0.2,0.4-0.1,0.9,0.3,1.1c0.4,0.2,0.9,0.1,1.1-0.3l2.1-4l-1.3,3.4c-0.2,0.4,0,0.9,0.5,1.1c0.4,0.2,0.9,0,1.1-0.5l1.4-3.6
			l-0.5,1.9c-0.1,0.4,0.1,0.9,0.6,1c0.4,0.1,0.9-0.1,1-0.6l1.2-4.8c0,0,0.6-0.9-0.2-1.5l0.9-1.6l-3.5-1.9l-0.9,1.7
			c-0.1,0.2-0.9,0.3-1.3,0.7l-2.7,1C53,44.3,52.9,44.8,53,45.2z"/>
	</g>
</g>
</svg>
