<?xml version="1.0" encoding="utf-8"?>
<!-- Generator: Adobe Illustrator 19.2.1, SVG Export Plug-In . SVG Version: 6.00 Build 0)  -->
<svg version="1.1" id="Layer_1" xmlns="http://www.w3.org/2000/svg" xmlns:xlink="http://www.w3.org/1999/xlink" x="0px" y="0px"
	 viewBox="0 0 72.1 67.7" style="enable-background:new 0 0 72.1 67.7;" xml:space="preserve">
<style type="text/css">
	.st0{fill:#0A97D8;}
	.st1{fill:none;stroke:#1A96D3;stroke-width:2;stroke-linecap:round;stroke-miterlimit:10;}
	.st2{fill:none;stroke:#1796D4;stroke-miterlimit:10;}
	.st3{fill:#FFFFFF;}
	.st4{fill:#FFFFFF;stroke:#1A96D3;stroke-miterlimit:10;}
	.st5{fill:#56C847;}
</style>
<g>
	<g>
		<path class="st0" d="M40.7,67.7L40.7,67.7c-0.1,0-0.2,0-0.3,0c-2.4-0.2-2.8-3.7-3.7-10.7c-0.7-5.7-2.1-16.4-5-16.6
			c-3,0.2-4.3,10.9-5,16.6c-0.9,7-1.3,10.5-3.7,10.7c-0.1,0-0.1,0-0.2,0c-4.1,0-11.4-9.1-12.7-20.3c-0.4-3.2-0.3-6.5,0.4-9.6
			c0.1-0.5-0.1-1.5-0.4-2c-2.9-4-4.4-9.3-4.4-14.7C5.6,7.5,10.5,0,19.3,0c2.4,0,5.1,1.3,7.7,2.5c1.6,0.8,3.3,1.6,4.8,2
			c1.5-0.4,3.2-1.2,4.8-2C39.1,1.3,41.7,0,44.2,0C53,0,57.8,7.5,57.8,21.1c0,5.5-1.6,10.7-4.4,14.7c-0.3,0.5-0.5,1.4-0.4,2
			c0.7,3.2,0.8,6.4,0.4,9.7C52.1,58.6,44.8,67.7,40.7,67.7z M31.7,37.4L31.7,37.4c5.6,0.2,6.9,10.3,8,19.3c0.4,2.9,0.8,6.7,1.4,8
			c2.3-0.8,8.2-7.8,9.3-17.5c0.4-2.9,0.2-5.9-0.4-8.7c-0.3-1.4,0.1-3.2,0.9-4.3c2.5-3.5,3.9-8.1,3.9-13C54.8,12.8,53,3,44.2,3
			c-1.7,0-4.1,1.1-6.4,2.2C35.9,6.1,34,7,32.1,7.5l-0.4,0.1l-0.4-0.1c-1.9-0.5-3.8-1.4-5.7-2.3C23.4,4.1,21,3,19.3,3
			C10.5,3,8.6,12.8,8.6,21.1c0,4.8,1.4,9.4,3.9,13c0.8,1.2,1.2,3,0.9,4.3c-0.6,2.8-0.7,5.7-0.4,8.7c1.1,9.7,7,16.7,9.3,17.5
			c0.5-1.3,1-5.1,1.4-8C24.8,47.7,26.1,37.6,31.7,37.4L31.7,37.4z"/>
	</g>
	<path class="st1" d="M20.2,25.8c0,7.3,23,7.5,23,0"/>
	<g>
		<g>
			<g>
				<path class="st2" d="M44,16.3c0,3.3-1.9,5.1-4.4,5.1c-2.4,0-4.4-1.8-4.4-5.1s1.9-6,4.4-6C42.1,10.3,44,13,44,16.3z"/>
				<path class="st0" d="M43,17.8c0,2.6-1.5,3.6-3.3,3.6c-1.8,0-3.3-1-3.3-3.6s1.5-4.6,3.3-4.6C41.5,13.2,43,15.3,43,17.8z"/>
			</g>
			<path class="st3" d="M41.7,15.4c0,0.3-1.3-0.8-1.7-0.9c-0.7-0.2-1.1-0.3-1.2-0.6c0-0.3,0.6-0.4,1.3-0.2
				C41,13.9,41.7,15.1,41.7,15.4z"/>
		</g>
		<g>
			<path class="st2" d="M19.4,16.3c0,3.3,1.9,5.1,4.4,5.1s4.4-1.8,4.4-5.1s-1.9-6-4.4-6S19.4,13,19.4,16.3z"/>
			<path class="st0" d="M20.4,17.8c0,2.6,1.5,3.6,3.3,3.6s3.3-1,3.3-3.6s-1.5-4.6-3.3-4.6S20.4,15.3,20.4,17.8z"/>
		</g>
		<path class="st3" d="M21.7,15.4c0,0.3,1.3-0.8,1.7-0.9c0.7-0.2,1.1-0.3,1.2-0.6c0-0.3-0.6-0.4-1.3-0.2
			C22.4,13.9,21.7,15.1,21.7,15.4z"/>
	</g>
	<g>
		<path class="st1" d="M5.4,47.6c-5.6-12.1-4.9-18.7,1.3-25.8"/>
		<path class="st4" d="M11.1,46.4c-0.1,0.4-0.6,0.7-1,0.5l-1.5-0.5l3.3,4.2c0.3,0.4,0.2,0.9-0.1,1.1c-0.4,0.3-0.9,0.2-1.1-0.1
			l-2.5-3.2l2.1,3.9c0.2,0.4,0.1,0.9-0.3,1.1c-0.4,0.2-0.9,0.1-1.1-0.3l-2.1-4L8,52.5c0.2,0.4,0,0.9-0.5,1.1c-0.4,0.2-0.9,0-1.1-0.5
			L5,49.5l0.5,1.9c0.1,0.4-0.1,0.9-0.6,1c-0.4,0.1-0.9-0.1-1-0.6l-1.2-4.7c0,0-0.6-0.9,0.2-1.5L2.1,44l3.5-2l0.9,1.7
			c0.1,0.2,0.9,0.3,1.3,0.7l2.7,1C11.1,45.5,11.2,46,11.1,46.4z"/>
	</g>
	<g>
		<path class="st5" d="M56.3,21.9c-3.2-2.6-6.9-2.4-9.2,0.6c-0.6,0.8-0.6,1.9-0.8,2.9c-0.1,0.4-0.2,0.8-0.3,1.1c0,0,0,0,0,0
			c-0.2,0.2-0.4,0.3-0.6,0.4c0,0,0,0,0,0c0,0,0,0,0,0c-0.9,0.5-2.2,0.7-2.9,1.6c-1,1.4-1.4,2.9-1.3,4.5c0.2,1.8,1.2,3.6,2.9,5.1
			c2.1,1.7,7.1,4.5,10.4,3.8c1.2-0.2,11.4,9.3,14,7.1c1.3-1.1-10.5-7.4-8.4-10.8c2.6-3,11.1,7.7,11.8,6.1c1.5-3.2-9.7-11.4-9.8-12.7
			C62.1,28.1,58.4,23.7,56.3,21.9z M57.8,36.2L57.8,36.2c-1,0.8-7,4.4-12.8,0.8c-1.1-0.7-2.2-2.5-2.3-4c-0.1-1.2,0-2.8,1-3.5
			c1.2-1.4,3.1-1.4,3.8-1.7c0.2-0.8-0.3-2.7,0.7-4.3c0.4-1.2,1.8-1.7,3-1.9c1.4-0.2,3.3,0.5,4.2,1.4C60.1,28.1,58.2,35,57.8,36.2z"
			/>
		<path class="st3" d="M50.9,21.4c-1.2,0.2-2.6,0.7-3,2c-1,1.6-0.5,3.6-0.6,4.4c-0.7,0.4-2.6,0.4-3.8,1.8c-1,0.7-1.1,2.3-1,3.6
			c0.2,1.5,1.3,3.3,2.4,4c5.9,3.5,11.9-0.2,12.9-1l0.1-0.1c0.4-1.2,2.2-8.3-2.6-13.3C54.3,21.9,52.3,21.2,50.9,21.4z"/>
	</g>
	<g>
		<path class="st1" d="M58.3,46.4c5.5-12.1,4.8-18.7-1.5-25.8"/>
		<path class="st4" d="M52.7,45.2c0.1,0.4,0.6,0.6,1,0.5l1.5-0.5l-3.2,4.2c-0.3,0.4-0.2,0.9,0.2,1.1c0.4,0.3,0.9,0.2,1.1-0.2
			l2.4-3.2l-2,3.9c-0.2,0.4-0.1,0.9,0.3,1.1c0.4,0.2,0.9,0.1,1.1-0.3l2.1-4l-1.3,3.4c-0.2,0.4,0,0.9,0.5,1.1c0.4,0.2,0.9,0,1.1-0.5
			l1.4-3.6l-0.5,1.9c-0.1,0.4,0.1,0.9,0.6,1c0.4,0.1,0.9-0.1,1-0.6l1.2-4.8c0,0,0.6-0.9-0.2-1.5l0.9-1.6l-3.5-1.9l-0.9,1.7
			c-0.1,0.2-0.9,0.3-1.3,0.7l-2.7,1C52.7,44.3,52.5,44.8,52.7,45.2z"/>
	</g>
</g>
</svg>
