<?xml version="1.0" encoding="utf-8"?>
<!-- Generator: Adobe Illustrator 19.2.1, SVG Export Plug-In . SVG Version: 6.00 Build 0)  -->
<svg version="1.1" id="Layer_1" xmlns="http://www.w3.org/2000/svg" xmlns:xlink="http://www.w3.org/1999/xlink" x="0px" y="0px"
	 viewBox="0 0 61.9 67.7" style="enable-background:new 0 0 61.9 67.7;" xml:space="preserve">
<style type="text/css">
	.st0{fill:#0A97D8;}
	.st1{fill:#FFFFFF;}
	.st2{fill:none;stroke:#1A96D3;stroke-width:2;stroke-linecap:round;stroke-miterlimit:10;}
	.st3{fill:none;stroke:#1796D4;stroke-miterlimit:10;}
	.st4{fill:#FFFFFF;stroke:#1A96D3;stroke-miterlimit:10;}
	.st5{fill:none;stroke:#1A96D3;stroke-width:2.0813;stroke-miterlimit:10;}
	.st6{fill:#64BB49;}
</style>
<g>
	<g>
		<path class="st0" d="M40.2,67.7L40.2,67.7c-0.1,0-0.2,0-0.3,0c-2.4-0.2-2.8-3.7-3.7-10.7c-0.7-5.7-2.1-16.4-5-16.6
			c-3,0.2-4.3,10.9-5,16.6c-0.9,7-1.3,10.5-3.7,10.7c-0.1,0-0.1,0-0.2,0c-4.1,0-11.4-9.1-12.7-20.3C9.2,44.2,9.3,41,10,37.8
			c0.1-0.5-0.1-1.5-0.4-2c-2.9-4-4.4-9.3-4.4-14.7C5.1,7.5,10,0.1,18.8,0.1c2.4,0,5.1,1.3,7.7,2.5c1.6,0.8,3.3,1.6,4.8,2
			c1.5-0.4,3.2-1.2,4.8-2c2.6-1.2,5.2-2.5,7.7-2.5c8.8,0,13.7,7.5,13.7,21.1c0,5.5-1.6,10.7-4.4,14.7c-0.3,0.5-0.5,1.4-0.4,2
			c0.7,3.2,0.8,6.4,0.4,9.7C51.7,58.7,44.4,67.7,40.2,67.7z M31.2,37.4L31.2,37.4c5.6,0.2,6.9,10.3,8,19.3c0.4,2.9,0.8,6.7,1.4,8
			c2.3-0.8,8.2-7.8,9.3-17.5c0.4-2.9,0.2-5.9-0.4-8.7c-0.3-1.4,0.1-3.2,0.9-4.3c2.5-3.5,3.9-8.1,3.9-13c0-8.2-1.8-18.1-10.7-18.1
			c-1.7,0-4.1,1.1-6.4,2.2c-1.9,0.9-3.8,1.8-5.7,2.3l-0.4,0.1l-0.4-0.1C29,7.1,27,6.2,25.2,5.3c-2.3-1.1-4.6-2.2-6.4-2.2
			C10,3.1,8.1,12.9,8.1,21.1c0,4.8,1.4,9.4,3.9,13c0.8,1.2,1.2,3,0.9,4.3c-0.6,2.8-0.7,5.7-0.4,8.7c1.1,9.7,7,16.7,9.3,17.5
			c0.5-1.3,1-5.1,1.4-8C24.3,47.8,25.6,37.6,31.2,37.4L31.2,37.4z"/>
	</g>
	<ellipse transform="matrix(0.963 -0.2695 0.2695 0.963 -11.002 18.2881)" class="st1" cx="61.1" cy="49.2" rx="0.8" ry="0.8"/>
	<path class="st2" d="M19.8,25.8c0,7.3,23,7.5,23,0"/>
	<g>
		<g>
			<g>
				<path class="st3" d="M43.6,16.3c0,3.3-1.9,5.1-4.4,5.1c-2.4,0-4.4-1.8-4.4-5.1s1.9-6,4.4-6C41.6,10.3,43.6,12.9,43.6,16.3z"/>
				<path class="st0" d="M42.6,17.8c0,2.6-1.5,3.6-3.3,3.6s-3.3-1-3.3-3.6s1.5-4.6,3.3-4.6S42.6,15.3,42.6,17.8z"/>
			</g>
			<path class="st1" d="M41.3,15.4c0,0.3-1.3-0.8-1.7-0.9c-0.7-0.2-1.1-0.3-1.2-0.6c0-0.3,0.6-0.4,1.3-0.2
				C40.6,13.9,41.2,15.1,41.3,15.4z"/>
		</g>
		<g>
			<path class="st3" d="M19,16.3c0,3.3,1.9,5.1,4.4,5.1s4.4-1.8,4.4-5.1s-1.9-6-4.4-6S19,12.9,19,16.3z"/>
			<path class="st0" d="M20,17.8c0,2.6,1.5,3.6,3.3,3.6s3.3-1,3.3-3.6s-1.5-4.6-3.3-4.6S20,15.3,20,17.8z"/>
		</g>
		<path class="st1" d="M21.3,15.4c0,0.3,1.3-0.8,1.7-0.9c0.7-0.2,1.1-0.3,1.2-0.6c0-0.3-0.6-0.4-1.3-0.2
			C21.9,13.9,21.3,15.1,21.3,15.4z"/>
	</g>
	<g>
		<path class="st2" d="M5,47.6c-5.6-12.1-4.9-18.7,1.3-25.8"/>
		<path class="st4" d="M10.7,46.4c-0.1,0.4-0.6,0.7-1,0.5l-1.5-0.5l3.3,4.2c0.3,0.4,0.2,0.9-0.1,1.1c-0.4,0.3-0.9,0.2-1.1-0.1
			l-2.5-3.2l2.1,3.9c0.2,0.4,0.1,0.9-0.3,1.1C9,53.6,8.5,53.4,8.3,53l-2.1-4l1.4,3.4c0.2,0.4,0,0.9-0.5,1.1c-0.4,0.2-0.9,0-1.1-0.5
			l-1.4-3.6l0.5,1.9c0.1,0.4-0.1,0.9-0.6,1c-0.4,0.1-0.9-0.1-1-0.6l-1.2-4.7c0,0-0.6-0.9,0.2-1.5l-0.9-1.6l3.5-2l0.9,1.7
			c0.1,0.2,0.9,0.3,1.3,0.7l2.7,1C10.6,45.4,10.8,45.9,10.7,46.4z"/>
	</g>
	<path class="st5" d="M45.9,40c11,2.4,20.3-0.2,10.3-17.2"/>
	<g>
		<path class="st6" d="M41.5,31.3c-0.1,0-0.5,0.2-0.5,0.2c-1.2,0.5-2.2,1.2-3.3,1.8c-0.9,0.6-1.7,1.2-2.5,1.8
			c-0.2,0.1-0.9,0.7-1,0.7c-0.2,0.2-0.5,0.5-0.6,0.7c-0.1,0-0.3,0-0.3,0c0,0-2.1,0-2.1,0c-1.1,0-2.1,0-2.1,0c0,0-0.2,0-0.3,0
			c-0.2-0.2-0.4-0.5-0.6-0.7c-0.1-0.1-0.8-0.6-1-0.7c-0.8-0.6-1.7-1.2-2.6-1.7c-1.1-0.6-2.1-1.3-3.3-1.7c0,0-0.4-0.1-0.5-0.2
			c0,0.1-3.1,1.9-2.9,8.5c0,1.6,1.1,3.8,1.5,4.4c0.3,0.6,0.5,0.8,1.1,0.6c1.2-0.2,2-0.7,3.1-1.1c0.4-0.2,0.8-0.4,1.2-0.5
			c0.4-0.2,3.2-1.5,4-2.1c0.1,0.1,4.9,0,5,0c0.8,0.6,3.7,1.9,4.1,2c0.4,0.2,0.8,0.3,1.2,0.5c1.1,0.4,1.9,0.9,3.1,1
			c0.6,0.2,0.8-0.1,1.1-0.6c0.3-0.6,1.4-2.8,1.4-4.4C44.6,33.1,41.5,31.4,41.5,31.3z"/>
		
			<ellipse transform="matrix(0.9999 -1.470820e-002 1.470820e-002 0.9999 -0.51 0.3192)" class="st1" cx="21.4" cy="34.8" rx="0.8" ry="0.8"/>
		
			<ellipse transform="matrix(0.9999 -1.470820e-002 1.470820e-002 0.9999 -0.568 0.3093)" class="st1" cx="20.7" cy="38.8" rx="0.8" ry="0.8"/>
		
			<ellipse transform="matrix(0.9999 -1.470820e-002 1.470820e-002 0.9999 -0.6253 0.3241)" class="st1" cx="21.7" cy="42.7" rx="0.8" ry="0.8"/>
		
			<ellipse transform="matrix(0.9999 -1.470820e-002 1.470820e-002 0.9999 -0.5406 0.3693)" class="st1" cx="24.8" cy="36.9" rx="0.8" ry="0.8"/>
		
			<ellipse transform="matrix(0.9999 -1.470820e-002 1.470820e-002 0.9999 -0.5961 0.3729)" class="st1" cx="25.1" cy="40.7" rx="0.8" ry="0.8"/>
		
			<ellipse transform="matrix(0.9999 -1.470820e-002 1.470820e-002 0.9999 -0.5671 0.4211)" class="st1" cx="28.3" cy="38.8" rx="0.8" ry="0.8"/>
		
			<ellipse transform="matrix(0.9999 -1.470820e-002 1.470820e-002 0.9999 -0.5366 0.5509)" class="st1" cx="37.2" cy="36.8" rx="0.8" ry="0.8"/>
		
			<ellipse transform="matrix(0.9999 -1.470820e-002 1.470820e-002 0.9999 -0.5037 0.6033)" class="st1" cx="40.8" cy="34.5" rx="0.8" ry="0.8"/>
		
			<ellipse transform="matrix(0.9999 -1.470820e-002 1.470820e-002 0.9999 -0.5612 0.6163)" class="st1" cx="41.6" cy="38.5" rx="0.8" ry="0.8"/>
		
			<ellipse transform="matrix(0.9999 -1.470820e-002 1.470820e-002 0.9999 -0.619 0.6103)" class="st1" cx="41.2" cy="42.4" rx="0.8" ry="0.8"/>
		
			<ellipse transform="matrix(0.9999 -1.470820e-002 1.470820e-002 0.9999 -0.5922 0.5522)" class="st1" cx="37.2" cy="40.5" rx="0.8" ry="0.8"/>
	</g>
	<path class="st4" d="M44.3,34.7l0.4,1.2c-0.1,0.4-0.6,0.5-0.9,0.4l-5.1-1.7c-0.4-0.2-0.9,0-1.1,0.4c-0.2,0.4,0,0.9,0.4,1.1l3.6,1.8
		l-4.2-1.2c-0.4-0.1-0.9,0.1-1,0.6c-0.1,0.4,0.1,0.9,0.6,1l4.3,1.3l-3.6-0.6c-0.4-0.1-0.9,0.2-0.9,0.7c-0.1,0.4,0.2,0.9,0.7,0.9
		l3.8,0.7l-2-0.2c-0.4,0-0.8,0.3-0.9,0.7c0,0.4,0.3,0.8,0.7,0.9l4.9,0.2c0,0,1,0.4,1.5-0.5l2.3,0.2l0.7-3.6l-1.9-0.4
		c-0.3-0.1-0.5-0.8-0.9-1.2C45.7,37.2,44.3,34.3,44.3,34.7z"/>
</g>
</svg>
