<?xml version="1.0" encoding="utf-8"?>
<!-- Generator: Adobe Illustrator 19.2.1, SVG Export Plug-In . SVG Version: 6.00 Build 0)  -->
<svg version="1.1" id="Layer_1" xmlns="http://www.w3.org/2000/svg" xmlns:xlink="http://www.w3.org/1999/xlink" x="0px" y="0px"
	 viewBox="0 0 72.9 67.7" style="enable-background:new 0 0 72.9 67.7;" xml:space="preserve">
<style type="text/css">
	.st0{fill:#FFFFFF;}
	.st1{fill:#0A97D8;}
	.st2{fill:#64BB49;}
	.st3{fill:none;stroke:#1A96D3;stroke-width:2;stroke-linecap:round;stroke-miterlimit:10;}
	.st4{fill:none;stroke:#1796D4;stroke-miterlimit:10;}
	.st5{fill:#FFFFFF;stroke:#1A96D3;stroke-miterlimit:10;}
</style>
<g>
	<ellipse transform="matrix(0.963 -0.2695 0.2695 0.963 -10.9743 18.3736)" class="st0" cx="61.4" cy="49.2" rx="0.8" ry="0.8"/>
	<g>
		<g>
			<path class="st1" d="M40.6,67.7L40.6,67.7c-0.1,0-0.2,0-0.3,0c-2.4-0.2-2.8-3.7-3.7-10.7c-0.7-5.7-2.1-16.4-5-16.6
				c-3,0.2-4.3,10.9-5,16.6c-0.9,7-1.3,10.5-3.7,10.7c-0.1,0-0.1,0-0.2,0c-4.1,0-11.4-9.1-12.7-20.3c-0.4-3.2-0.3-6.5,0.4-9.6
				c0.1-0.5-0.1-1.5-0.4-2c-2.9-4-4.4-9.3-4.4-14.7C5.5,7.5,10.3,0,19.1,0c2.4,0,5.1,1.3,7.7,2.5c1.6,0.8,3.3,1.6,4.8,2
				c1.5-0.4,3.2-1.2,4.8-2C38.9,1.3,41.6,0,44,0c8.8,0,13.7,7.5,13.7,21.1c0,5.5-1.6,10.7-4.4,14.7c-0.3,0.5-0.5,1.4-0.4,2
				c0.7,3.2,0.8,6.4,0.4,9.7C52,58.6,44.7,67.7,40.6,67.7z M31.6,37.4L31.6,37.4c5.6,0.2,6.9,10.3,8,19.3c0.4,2.9,0.8,6.7,1.4,8
				c2.3-0.8,8.2-7.8,9.3-17.5c0.4-2.9,0.2-5.9-0.4-8.7c-0.3-1.4,0.1-3.2,0.9-4.3c2.5-3.5,3.9-8.1,3.9-13C54.6,12.8,52.8,3,44,3
				c-1.7,0-4.1,1.1-6.4,2.2c-1.9,0.9-3.8,1.8-5.7,2.3l-0.4,0.1l-0.4-0.1c-1.9-0.5-3.8-1.4-5.7-2.3C23.2,4.1,20.9,3,19.1,3
				C10.3,3,8.5,12.8,8.5,21.1c0,4.8,1.4,9.4,3.9,13c0.8,1.2,1.2,3,0.9,4.3c-0.6,2.8-0.7,5.7-0.4,8.7c1.1,9.7,7,16.7,9.3,17.5
				c0.5-1.3,1-5.1,1.4-8C24.7,47.7,25.9,37.6,31.6,37.4L31.6,37.4z"/>
		</g>
		<g>
			<path class="st2" d="M67.6,40c-0.1,0-0.4,0.3-0.4,0.3c-1,0.8-1.9,1.7-2.7,2.6c-0.7,0.8-1.4,1.6-2,2.4c-0.2,0.2-0.7,0.9-0.8,1
				c-0.2,0.2-0.3,0.6-0.4,0.8c-0.1,0-0.3,0.1-0.3,0.1c0,0-2,0.5-2,0.5c-1,0.3-2.1,0.6-2,0.6c0,0-0.2,0-0.3,0.1
				c-0.2-0.2-0.5-0.4-0.8-0.5c-0.1,0-0.9-0.4-1.2-0.4c-0.9-0.4-1.9-0.7-2.9-1c-1.2-0.4-2.4-0.7-3.7-0.8c0,0-0.4,0-0.5,0
				c0,0.1-2.5,2.6-0.6,9c0.5,1.6,2.1,3.4,2.6,3.9c0.5,0.5,0.7,0.6,1.3,0.3c1.1-0.5,1.8-1.2,2.7-1.9c0.3-0.3,0.6-0.6,1-0.8
				c0.3-0.3,2.8-2.2,3.4-3.1c0.1,0,4.7-1.2,4.8-1.3c1,0.4,4.1,0.8,4.5,0.9c0.4,0.1,0.8,0.1,1.3,0.2c1.1,0.1,2.1,0.4,3.3,0.2
				c0.6,0,0.7-0.3,0.9-0.9c0.2-0.6,0.6-3.1,0.2-4.6C71,41,67.6,40.1,67.6,40z"/>
			<ellipse transform="matrix(0.963 -0.2695 0.2695 0.963 -11.2632 15.03)" class="st0" cx="49.1" cy="48.5" rx="0.8" ry="0.8"/>
			<ellipse transform="matrix(0.963 -0.2695 0.2695 0.963 -12.326 15.2654)" class="st0" cx="49.4" cy="52.5" rx="0.8" ry="0.8"/>
			<ellipse transform="matrix(0.963 -0.2695 0.2695 0.963 -13.2041 15.9183)" class="st0" cx="51.4" cy="56" rx="0.8" ry="0.8"/>
			<ellipse transform="matrix(0.963 -0.2695 0.2695 0.963 -11.4379 16.1006)" class="st0" cx="52.9" cy="49.7" rx="0.8" ry="0.8"/>
			<ellipse transform="matrix(0.963 -0.2695 0.2695 0.963 -12.3638 16.5498)" class="st0" cx="54.1" cy="53.3" rx="0.8" ry="0.8"/>
			<ellipse transform="matrix(0.963 -0.2695 0.2695 0.963 -11.5292 17.1728)" class="st0" cx="56.8" cy="50.6" rx="0.8" ry="0.8"/>
			<ellipse transform="matrix(0.963 -0.2695 0.2695 0.963 -10.1006 19.1834)" class="st0" cx="64.8" cy="46.4" rx="0.8" ry="0.8"/>
			<ellipse transform="matrix(0.963 -0.2695 0.2695 0.963 -9.1721 19.8502)" class="st0" cx="67.7" cy="43.3" rx="0.8" ry="0.8"/>
			<ellipse transform="matrix(0.963 -0.2695 0.2695 0.963 -10.0659 20.4754)" class="st0" cx="69.5" cy="46.9" rx="0.8" ry="0.8"/>
			<ellipse transform="matrix(0.963 -0.2695 0.2695 0.963 -11.0967 20.7762)" class="st0" cx="70.1" cy="50.8" rx="0.8" ry="0.8"/>
			<ellipse transform="matrix(0.963 -0.2695 0.2695 0.963 -11.0438 19.5926)" class="st0" cx="65.8" cy="50" rx="0.8" ry="0.8"/>
		</g>
		<path class="st3" d="M20.1,25.7c0,7.3,23,7.5,23,0"/>
		<g>
			<g>
				<g>
					<path class="st4" d="M43.9,16.2c0,3.3-1.9,5.1-4.4,5.1c-2.4,0-4.4-1.8-4.4-5.1s1.9-6,4.4-6C42,10.2,43.9,12.9,43.9,16.2z"/>
					<path class="st1" d="M42.9,17.8c0,2.6-1.5,3.6-3.3,3.6c-1.8,0-3.3-1-3.3-3.6s1.5-4.6,3.3-4.6C41.4,13.1,42.9,15.2,42.9,17.8z"
						/>
				</g>
				<path class="st0" d="M41.6,15.3c0,0.3-1.3-0.8-1.7-0.9c-0.7-0.2-1.1-0.3-1.2-0.6c0-0.3,0.6-0.4,1.3-0.2
					C40.9,13.8,41.6,15,41.6,15.3z"/>
			</g>
			<g>
				<path class="st4" d="M19.3,16.2c0,3.3,1.9,5.1,4.4,5.1s4.4-1.8,4.4-5.1s-1.9-6-4.4-6S19.3,12.9,19.3,16.2z"/>
				<path class="st1" d="M20.3,17.8c0,2.6,1.5,3.6,3.3,3.6s3.3-1,3.3-3.6s-1.5-4.6-3.3-4.6S20.3,15.2,20.3,17.8z"/>
			</g>
			<path class="st0" d="M21.6,15.3c0,0.3,1.3-0.8,1.7-0.9c0.7-0.2,1.1-0.3,1.2-0.6c0-0.3-0.6-0.4-1.3-0.2
				C22.3,13.8,21.6,15,21.6,15.3z"/>
		</g>
		<g>
			<path class="st3" d="M5.3,47.5c-5.6-12.1-4.9-18.7,1.3-25.8"/>
			<path class="st5" d="M11,46.3c-0.1,0.4-0.6,0.7-1,0.5l-1.5-0.5l3.3,4.2c0.3,0.4,0.2,0.9-0.1,1.1c-0.4,0.3-0.9,0.2-1.1-0.1L8,48.3
				l2.1,3.9c0.2,0.4,0.1,0.9-0.3,1.1c-0.4,0.2-0.9,0.1-1.1-0.3l-2.1-4l1.4,3.4c0.2,0.4,0,0.9-0.5,1.1c-0.4,0.2-0.9,0-1.1-0.5
				l-1.4-3.6l0.5,1.9c0.1,0.4-0.1,0.9-0.6,1c-0.4,0.1-0.9-0.1-1-0.6L2.7,47c0,0-0.6-0.9,0.2-1.5L2,43.9l3.5-2l0.9,1.7
				c0.1,0.2,0.9,0.3,1.3,0.7l2.7,1C11,45.4,11.1,45.9,11,46.3z"/>
		</g>
		<path class="st3" d="M58.1,45.9c5.5-12.1,4.8-18.7-1.5-25.8"/>
		<path class="st5" d="M56.7,48.3l0.6,1.6l0.5,2.7c-0.1,0.4,4.3-0.3,4.9-0.8c0.3-0.3,0.2-1.9,0.1-2.3l-0.4-3.7c0,0,0.2-1-0.7-1.4
			l0.6-1.8l-4.2-0.7l-0.3,1.9c0,0.3-0.8,0.6-1,1.1l-2.6,2.1C53.9,47,56.5,47.7,56.7,48.3z"/>
	</g>
</g>
</svg>
