<?xml version="1.0" encoding="utf-8"?>
<!-- Generator: Adobe Illustrator 19.2.1, SVG Export Plug-In . SVG Version: 6.00 Build 0)  -->
<svg version="1.1" id="Layer_1" xmlns="http://www.w3.org/2000/svg" xmlns:xlink="http://www.w3.org/1999/xlink" x="0px" y="0px"
	 viewBox="0 0 57.2 67.7" style="enable-background:new 0 0 57.2 67.7;" xml:space="preserve">
<style type="text/css">
	.st0{fill:#0A97D8;}
	.st1{fill:none;stroke:#1A96D3;stroke-width:2;stroke-linecap:round;stroke-miterlimit:10;}
	.st2{fill:none;stroke:#1796D4;stroke-miterlimit:10;}
	.st3{fill:#FFFFFF;}
	.st4{fill:#56C847;}
	.st5{fill:#FFFFFF;stroke:#1A96D3;stroke-miterlimit:10;}
</style>
<g>
	<path class="st0" d="M38,67.7L38,67.7c-0.1,0-0.2,0-0.3,0C35.4,67.5,35,64,34.1,57c-0.7-5.7-2.1-16.4-5-16.6
		c-3,0.2-4.3,10.9-5,16.6c-0.9,7-1.3,10.5-3.7,10.7c-0.1,0-0.1,0-0.2,0c-4.1,0-11.4-9.1-12.7-20.3c-0.4-3.2-0.3-6.5,0.4-9.6
		c0.1-0.5-0.1-1.5-0.4-2C4.5,31.8,3,26.5,3,21.1C3,7.5,7.8,0,16.6,0c2.4,0,5.1,1.3,7.7,2.5c1.6,0.8,3.3,1.6,4.8,2
		c1.5-0.4,3.2-1.2,4.8-2C36.4,1.3,39.1,0,41.5,0c8.8,0,13.7,7.5,13.7,21.1c0,5.5-1.6,10.7-4.4,14.7c-0.3,0.5-0.5,1.4-0.4,2
		c0.7,3.2,0.8,6.4,0.4,9.7C49.5,58.6,42.2,67.7,38,67.7z M29,37.4L29,37.4c5.6,0.2,6.9,10.3,8,19.3c0.4,2.9,0.8,6.7,1.4,8
		c2.3-0.8,8.2-7.8,9.3-17.5c0.4-2.9,0.2-5.9-0.4-8.7c-0.3-1.4,0.1-3.2,0.9-4.3c2.5-3.5,3.9-8.1,3.9-13C52.1,12.8,50.3,3,41.5,3
		c-1.7,0-4.1,1.1-6.4,2.2c-1.9,0.9-3.8,1.8-5.7,2.3L29,7.6l-0.4-0.1C26.8,7,24.9,6.1,23,5.2C20.7,4.1,18.4,3,16.6,3
		C7.8,3,6,12.8,6,21.1c0,4.8,1.4,9.4,3.9,13c0.8,1.2,1.2,3,0.9,4.3c-0.6,2.8-0.7,5.7-0.4,8.7c1.1,9.7,7,16.7,9.3,17.5
		c0.5-1.3,1-5.1,1.4-8C22.2,47.7,23.4,37.6,29,37.4L29,37.4z"/>
</g>
<path class="st1" d="M17.5,25.8c0,7.3,23,7.5,23,0"/>
<g>
	<g>
		<g>
			<path class="st2" d="M41.4,16.3c0,3.3-1.9,5.1-4.4,5.1c-2.4,0-4.4-1.8-4.4-5.1s1.9-6,4.4-6C39.4,10.3,41.4,13,41.4,16.3z"/>
			<path class="st0" d="M40.3,17.8c0,2.6-1.5,3.6-3.3,3.6s-3.3-1-3.3-3.6s1.5-4.6,3.3-4.6S40.3,15.3,40.3,17.8z"/>
		</g>
		<path class="st3" d="M39.1,15.4c0,0.3-1.3-0.8-1.7-0.9c-0.7-0.2-1.1-0.3-1.2-0.6c0-0.3,0.6-0.4,1.3-0.2
			C38.4,13.9,39,15.1,39.1,15.4z"/>
	</g>
	<g>
		<path class="st2" d="M16.7,16.3c0,3.3,1.9,5.1,4.4,5.1s4.4-1.8,4.4-5.1s-1.9-6-4.4-6S16.7,13,16.7,16.3z"/>
		<path class="st0" d="M17.7,17.8c0,2.6,1.5,3.6,3.3,3.6c1.8,0,3.3-1,3.3-3.6s-1.5-4.6-3.3-4.6C19.2,13.2,17.7,15.3,17.7,17.8z"/>
	</g>
	<path class="st3" d="M19,15.4c0,0.3,1.3-0.8,1.7-0.9c0.7-0.2,1.1-0.3,1.2-0.6c0-0.3-0.6-0.4-1.3-0.2C19.7,13.9,19.1,15.1,19,15.4z"
		/>
</g>
<g>
	<rect x="16.7" y="38.1" class="st3" width="25.6" height="13.4"/>
	<path class="st4" d="M40.6,36.6h-6V34c0-0.5-0.4-0.9-0.9-0.9h-8.1c-0.5,0-0.9,0.4-0.9,0.9v2.6h-6.4c-1,0-1.6,0.5-1.6,1.3v1.5h25.6
		V38C42.3,37.3,41.8,36.6,40.6,36.6L40.6,36.6z M32.9,36.6h-6.4v-1.7h6.4V36.6z M32.9,36.6"/>
	<path class="st4" d="M16.7,51.9c0,0.7,0.3,1.2,1.2,1.2h23.3c0.8,0,1.2-0.7,1.2-1.2V40.4H16.7V51.9z M29.5,42.2c2.5,0,4.6,2,4.6,4.5
		c0,2.5-2,4.5-4.6,4.5s-4.6-2-4.6-4.5C25,44.2,27,42.2,29.5,42.2L29.5,42.2z M29.5,42.2"/>
	<path class="st4" d="M28.6,49.7h1.9v-2h2v-1.9h-2v-2h-1.9v2h-2v1.9h2V49.7z M28.6,49.7"/>
</g>
<g>
	<path class="st1" d="M13,47.1c-13.4-7.1-13.8-14.3-8.7-24"/>
	<path class="st5" d="M17.1,43c0.1,0.4-0.2,0.9-0.6,1L15,44.3l5,1.9c0.4,0.2,0.6,0.6,0.5,1c-0.2,0.4-0.6,0.6-1,0.5l-3.8-1.4l3.8,2.2
		c0.4,0.2,0.5,0.7,0.3,1.1c-0.2,0.4-0.7,0.5-1.1,0.3l-3.9-2.3l3,2.2c0.4,0.3,0.4,0.8,0.2,1.1c-0.3,0.4-0.8,0.4-1.1,0.2l-3.1-2.3
		l1.5,1.3c0.3,0.3,0.4,0.8,0.1,1.1c-0.3,0.3-0.8,0.4-1.1,0.1L10.5,48c0,0-1-0.5-0.6-1.4l-1.6-0.9l1.9-3.5l1.7,0.9
		c0.2,0.1,0.9-0.2,1.5-0.1l2.9-0.6C16.6,42.3,17,42.6,17.1,43z"/>
</g>
<g>
	<path class="st1" d="M46.1,46.8c10.4-8.4,12.5-14.5,7.3-23.7"/>
	<path class="st5" d="M41.6,43.2c-0.1,0.4,0.3,0.9,0.7,0.9l1.5,0.2l-4.8,2.3c-0.4,0.2-0.6,0.7-0.4,1.1c0.2,0.4,0.7,0.6,1.1,0.4
		l3.6-1.8l-3.6,2.6c-0.4,0.3-0.4,0.8-0.2,1.1c0.3,0.4,0.8,0.4,1.1,0.2l3.7-2.6l-2.7,2.5c-0.3,0.3-0.4,0.8-0.1,1.1
		c0.3,0.3,0.8,0.4,1.1,0.1l2.9-2.6l-1.3,1.5C44,50.5,44,51,44.4,51.3c0.3,0.3,0.8,0.3,1.1-0.1l3.2-3.7c0,0,0.9-0.6,0.5-1.5l1.5-1
		l-2.2-3.3l-1.6,1.1c-0.2,0.2-1-0.1-1.5,0l-2.9-0.3C42.1,42.4,41.7,42.7,41.6,43.2z"/>
</g>
</svg>
