<?xml version="1.0" encoding="utf-8"?>
<!-- Generator: Adobe Illustrator 19.2.1, SVG Export Plug-In . SVG Version: 6.00 Build 0)  -->
<svg version="1.1" id="Layer_1" xmlns="http://www.w3.org/2000/svg" xmlns:xlink="http://www.w3.org/1999/xlink" x="0px" y="0px"
	 viewBox="0 0 63.2 70.4" style="enable-background:new 0 0 63.2 70.4;" xml:space="preserve">
<style type="text/css">
	.st0{fill:#0A97D8;}
	.st1{fill:none;stroke:#1A96D3;stroke-width:2;stroke-linecap:round;stroke-miterlimit:10;}
	.st2{fill:none;stroke:#1796D4;stroke-miterlimit:10;}
	.st3{fill:#FFFFFF;}
	.st4{fill:#FFFFFF;stroke:#1A96D3;stroke-miterlimit:10;}
	.st5{fill:#56C847;}
</style>
<g>
	<g>
		<path class="st0" d="M40.7,68.5L40.7,68.5c-0.1,0-0.2,0-0.3,0c-2.4-0.2-2.8-3.7-3.7-10.7c-0.7-5.7-2.1-16.4-5-16.6
			c-3,0.2-4.3,10.9-5,16.6c-0.9,7-1.3,10.5-3.7,10.7c-0.1,0-0.1,0-0.2,0c-4.1,0-11.4-9.1-12.7-20.3c-0.4-3.2-0.3-6.5,0.4-9.6
			c0.1-0.5-0.1-1.5-0.4-2c-2.9-4-4.4-9.3-4.4-14.7c0-13.6,4.8-21.1,13.7-21.1c2.4,0,5.1,1.3,7.7,2.5c1.6,0.8,3.3,1.6,4.8,2
			c1.5-0.4,3.2-1.2,4.8-2c2.6-1.2,5.2-2.5,7.7-2.5c8.8,0,13.7,7.5,13.7,21.1c0,5.5-1.6,10.7-4.4,14.7c-0.3,0.5-0.5,1.4-0.4,2
			c0.7,3.2,0.8,6.4,0.4,9.7C52.2,59.5,44.9,68.5,40.7,68.5z M31.7,38.2L31.7,38.2c5.6,0.2,6.9,10.3,8,19.3c0.4,2.9,0.8,6.7,1.4,8
			c2.3-0.8,8.2-7.8,9.3-17.5c0.4-2.9,0.2-5.9-0.4-8.7c-0.3-1.4,0.1-3.2,0.9-4.3c2.5-3.5,3.9-8.1,3.9-13c0-8.2-1.8-18.1-10.7-18.1
			c-1.7,0-4.1,1.1-6.4,2.2C35.9,7,34,7.9,32.1,8.4l-0.4,0.1l-0.4-0.1c-1.9-0.5-3.8-1.4-5.7-2.3c-2.3-1.1-4.6-2.2-6.4-2.2
			c-8.8,0-10.7,9.8-10.7,18.1c0,4.8,1.4,9.4,3.9,13c0.8,1.2,1.2,3,0.9,4.3c-0.6,2.8-0.7,5.7-0.4,8.7c1.1,9.7,7,16.7,9.3,17.5
			c0.5-1.3,1-5.1,1.4-8C24.9,48.5,26.1,38.4,31.7,38.2L31.7,38.2z"/>
	</g>
	<path class="st1" d="M20.2,26.6c0,7.3,23,7.5,23,0"/>
	<g>
		<g>
			<g>
				<path class="st2" d="M44.1,17.1c0,3.3-1.9,5.1-4.4,5.1s-4.4-1.8-4.4-5.1s1.9-6,4.4-6S44.1,13.8,44.1,17.1z"/>
				<path class="st0" d="M43,18.7c0,2.6-1.5,3.6-3.3,3.6s-3.3-1-3.3-3.6s1.5-4.6,3.3-4.6S43,16.1,43,18.7z"/>
			</g>
			<path class="st3" d="M41.8,16.2c0,0.3-1.3-0.8-1.7-0.9c-0.7-0.2-1.1-0.3-1.2-0.6c0-0.3,0.6-0.4,1.3-0.2
				C41.1,14.7,41.7,16,41.8,16.2z"/>
		</g>
		<g>
			<path class="st2" d="M19.4,17.1c0,3.3,1.9,5.1,4.4,5.1s4.4-1.8,4.4-5.1s-1.9-6-4.4-6S19.4,13.8,19.4,17.1z"/>
			<path class="st0" d="M20.4,18.7c0,2.6,1.5,3.6,3.3,3.6c1.8,0,3.3-1,3.3-3.6s-1.5-4.6-3.3-4.6C21.9,14.1,20.4,16.1,20.4,18.7z"/>
		</g>
		<path class="st3" d="M21.7,16.2c0,0.3,1.3-0.8,1.7-0.9c0.7-0.2,1.1-0.3,1.2-0.6c0-0.3-0.6-0.4-1.3-0.2
			C22.4,14.7,21.8,16,21.7,16.2z"/>
	</g>
	<g>
		<path class="st1" d="M5.5,48.5c-5.6-12.1-4.9-18.7,1.3-25.8"/>
		<path class="st4" d="M11.1,47.2c-0.1,0.4-0.6,0.7-1,0.5l-1.5-0.5l3.3,4.2c0.3,0.4,0.2,0.9-0.1,1.1c-0.4,0.3-0.9,0.2-1.1-0.1
			l-2.5-3.2l2.1,3.9c0.2,0.4,0.1,0.9-0.3,1.1c-0.4,0.2-0.9,0.1-1.1-0.3l-2.1-4L8,53.4c0.2,0.4,0,0.9-0.5,1.1c-0.4,0.2-0.9,0-1.1-0.5
			l-1.4-3.6l0.5,1.9c0.1,0.4-0.1,0.9-0.6,1c-0.4,0.1-0.9-0.1-1-0.6L2.8,48c0,0-0.6-0.9,0.2-1.5l-0.9-1.6l3.5-2l0.9,1.7
			c0.1,0.2,0.9,0.3,1.3,0.7l2.7,1C11.1,46.3,11.3,46.8,11.1,47.2z"/>
	</g>
	<path class="st1" d="M58.3,47.2c5.5-12.1,4.8-18.7-1.5-25.8"/>
	<path class="st4" d="M52.7,46c0.1,0.4,0.6,0.6,1,0.5l1.5-0.5L52,50.3c-0.3,0.4-0.2,0.9,0.2,1.1c0.4,0.3,0.9,0.2,1.1-0.2l2.4-3.2
		l-2,3.9c-0.2,0.4-0.1,0.9,0.3,1.1c0.4,0.2,0.9,0.1,1.1-0.3l2.1-4l-1.3,3.4c-0.2,0.4,0,0.9,0.5,1.1c0.4,0.2,0.9,0,1.1-0.5l1.4-3.6
		L58.2,51c-0.1,0.4,0.1,0.9,0.6,1c0.4,0.1,0.9-0.1,1-0.6l1.2-4.8c0,0,0.6-0.9-0.2-1.5l0.9-1.6l-3.5-1.9l-0.9,1.7
		c-0.1,0.2-0.9,0.3-1.3,0.7l-2.7,1C52.7,45.1,52.5,45.6,52.7,46z"/>
	<g>
		<rect x="18.9" y="54.9" class="st3" width="25.6" height="13.4"/>
		<path class="st5" d="M42.9,53.4h-6v-2.6c0-0.5-0.4-0.9-0.9-0.9h-8.1c-0.5,0-0.9,0.4-0.9,0.9v2.6h-6.4c-1,0-1.6,0.5-1.6,1.3v1.5
			h25.6v-1.4C44.5,54.1,44,53.4,42.9,53.4L42.9,53.4z M35.1,53.4h-6.4v-1.7h6.4V53.4z M35.1,53.4"/>
		<path class="st5" d="M18.9,68.7c0,0.7,0.3,1.2,1.2,1.2h23.3c0.8,0,1.2-0.7,1.2-1.2V57.2H18.9V68.7z M31.7,59c2.5,0,4.6,2,4.6,4.5
			c0,2.5-2,4.5-4.6,4.5s-4.6-2-4.6-4.5C27.2,61,29.2,59,31.7,59L31.7,59z M31.7,59"/>
		<path class="st5" d="M30.8,66.5h1.9v-2h2v-1.9h-2v-2h-1.9v2h-2v1.9h2V66.5z M30.8,66.5"/>
	</g>
</g>
</svg>
