<?xml version="1.0" encoding="utf-8"?>
<!-- Generator: Adobe Illustrator 19.2.1, SVG Export Plug-In . SVG Version: 6.00 Build 0)  -->
<svg version="1.1" id="Layer_1" xmlns="http://www.w3.org/2000/svg" xmlns:xlink="http://www.w3.org/1999/xlink" x="0px" y="0px"
	 viewBox="0 0 71 68.7" style="enable-background:new 0 0 71 68.7;" xml:space="preserve">
<style type="text/css">
	.st0{fill:#0A97D8;}
	.st1{fill:none;stroke:#1A96D3;stroke-width:2;stroke-linecap:round;stroke-miterlimit:10;}
	.st2{fill:none;stroke:#1796D4;stroke-miterlimit:10;}
	.st3{fill:#FFFFFF;}
	.st4{fill:#FFFFFF;stroke:#1A96D3;stroke-miterlimit:10;}
	.st5{fill:none;stroke:#1A96D3;stroke-width:2.0813;stroke-miterlimit:10;}
	.st6{fill:#64BB49;}
	.st7{fill:#1995D3;}
</style>
<g>
	<g>
		<path class="st0" d="M40.5,67.7L40.5,67.7c-0.1,0-0.2,0-0.3,0c-2.4-0.2-2.8-3.7-3.7-10.7c-0.7-5.7-2.1-16.4-5-16.6
			c-3,0.2-4.3,10.9-5,16.6c-0.9,7-1.3,10.5-3.7,10.7c-0.1,0-0.1,0-0.2,0c-4.1,0-11.4-9.1-12.7-20.3c-0.4-3.2-0.3-6.5,0.4-9.6
			c0.1-0.5-0.1-1.5-0.4-2c-2.9-4-4.4-9.3-4.4-14.7C5.4,7.5,10.2,0,19,0c2.4,0,5.1,1.3,7.7,2.5c1.6,0.8,3.3,1.6,4.8,2
			c1.5-0.4,3.2-1.2,4.8-2C38.8,1.3,41.5,0,43.9,0c8.8,0,13.7,7.5,13.7,21.1c0,5.5-1.6,10.7-4.4,14.7c-0.3,0.5-0.5,1.4-0.4,2
			c0.7,3.2,0.8,6.4,0.4,9.7C51.9,58.6,44.6,67.7,40.5,67.7z M31.5,37.4L31.5,37.4c5.6,0.2,6.9,10.3,8,19.3c0.4,2.9,0.8,6.7,1.4,8
			c2.3-0.8,8.2-7.8,9.3-17.5c0.4-2.9,0.2-5.9-0.4-8.7c-0.3-1.4,0.1-3.2,0.9-4.3c2.5-3.5,3.9-8.1,3.9-13C54.6,12.8,52.7,3,43.9,3
			c-1.7,0-4.1,1.1-6.4,2.2c-1.9,0.9-3.8,1.8-5.7,2.3l-0.4,0.1l-0.4-0.1c-1.9-0.5-3.8-1.4-5.7-2.3C23.1,4.1,20.8,3,19,3
			C10.2,3,8.4,12.8,8.4,21.1c0,4.8,1.4,9.4,3.9,13c0.8,1.2,1.2,3,0.9,4.3c-0.6,2.8-0.7,5.7-0.4,8.7c1.1,9.7,7,16.7,9.3,17.5
			c0.5-1.3,1-5.1,1.4-8C24.6,47.7,25.9,37.6,31.5,37.4L31.5,37.4z"/>
	</g>
	<path class="st1" d="M20,25.8c0,7.3,23,7.5,23,0"/>
	<g>
		<g>
			<g>
				<path class="st2" d="M43.8,16.3c0,3.3-1.9,5.1-4.4,5.1c-2.4,0-4.4-1.8-4.4-5.1s1.9-6,4.4-6C41.8,10.3,43.8,13,43.8,16.3z"/>
				<path class="st0" d="M42.8,17.8c0,2.6-1.5,3.6-3.3,3.6c-1.8,0-3.3-1-3.3-3.6s1.5-4.6,3.3-4.6C41.3,13.2,42.8,15.3,42.8,17.8z"/>
			</g>
			<path class="st3" d="M41.5,15.4c0,0.3-1.3-0.8-1.7-0.9c-0.7-0.2-1.1-0.3-1.2-0.6c0-0.3,0.6-0.4,1.3-0.2
				C40.8,13.9,41.5,15.1,41.5,15.4z"/>
		</g>
		<g>
			<path class="st2" d="M19.2,16.3c0,3.3,1.9,5.1,4.4,5.1s4.4-1.8,4.4-5.1s-1.9-6-4.4-6S19.2,13,19.2,16.3z"/>
			<path class="st0" d="M20.2,17.8c0,2.6,1.5,3.6,3.3,3.6s3.3-1,3.3-3.6s-1.5-4.6-3.3-4.6S20.2,15.3,20.2,17.8z"/>
		</g>
		<path class="st3" d="M21.5,15.4c0,0.3,1.3-0.8,1.7-0.9c0.7-0.2,1.1-0.3,1.2-0.6c0-0.3-0.6-0.4-1.3-0.2
			C22.1,13.9,21.5,15.1,21.5,15.4z"/>
	</g>
	<g>
		<path class="st1" d="M5.2,47.6c-5.6-12.1-4.9-18.7,1.3-25.8"/>
		<path class="st4" d="M10.9,46.4c-0.1,0.4-0.6,0.7-1,0.5l-1.5-0.5l3.3,4.2c0.3,0.4,0.2,0.9-0.1,1.1c-0.4,0.3-0.9,0.2-1.1-0.1
			l-2.5-3.2l2.1,3.9c0.2,0.4,0.1,0.9-0.3,1.1c-0.4,0.2-0.9,0.1-1.1-0.3l-2.1-4l1.4,3.4c0.2,0.4,0,0.9-0.5,1.1
			c-0.4,0.2-0.9,0-1.1-0.5l-1.4-3.6l0.5,1.9c0.1,0.4-0.1,0.9-0.6,1c-0.4,0.1-0.9-0.1-1-0.6l-1.2-4.7c0,0-0.6-0.9,0.2-1.5L1.9,44
			l3.5-2l0.9,1.7c0.1,0.2,0.9,0.3,1.3,0.7l2.7,1C10.8,45.5,11,46,10.9,46.4z"/>
	</g>
	<path class="st5" d="M61.7,38.8c13.2,3.2,9.9-11-5-16.3"/>
	<g>
		<path class="st6" d="M41.4,63.5l3.4,0.9c7.2-13.1,13.7-25.7,17.1-39l-2.3-0.6C55.5,37.5,49.1,50.5,41.4,63.5z"/>
		<g>
			
				<rect x="56.5" y="14.3" transform="matrix(-0.9543 -0.2989 0.2989 -0.9543 109.5534 53.9821)" class="st3" width="4.8" height="8.6"/>
			<g>
				
					<rect x="60.1" y="12.3" transform="matrix(-0.2989 0.9543 -0.9543 -0.2989 92.1398 -38.2654)" class="st7" width="0.1" height="4.8"/>
				
					<rect x="60" y="12.6" transform="matrix(-0.2989 0.9543 -0.9543 -0.2989 92.3168 -37.749)" class="st7" width="0.1" height="4.8"/>
				
					<rect x="59.9" y="13" transform="matrix(-0.2989 0.9543 -0.9543 -0.2989 92.4937 -37.2326)" class="st7" width="0.1" height="4.8"/>
				
					<rect x="59.8" y="13.3" transform="matrix(-0.2989 0.9543 -0.9543 -0.2989 92.6706 -36.7161)" class="st7" width="0.1" height="4.8"/>
				
					<rect x="59.7" y="13.6" transform="matrix(-0.2989 0.9543 -0.9543 -0.2989 92.8475 -36.1997)" class="st7" width="0.1" height="4.8"/>
				
					<rect x="59.6" y="13.9" transform="matrix(-0.2989 0.9543 -0.9543 -0.2989 93.0245 -35.6833)" class="st7" width="0.1" height="4.8"/>
				
					<rect x="59.5" y="14.3" transform="matrix(-0.2989 0.9543 -0.9543 -0.2989 93.2014 -35.1669)" class="st7" width="0.1" height="4.8"/>
				
					<rect x="59.4" y="14.6" transform="matrix(-0.2989 0.9543 -0.9543 -0.2989 93.3783 -34.6505)" class="st7" width="0.1" height="4.8"/>
				
					<rect x="59.3" y="14.9" transform="matrix(-0.2989 0.9543 -0.9543 -0.2989 93.5553 -34.134)" class="st7" width="0.1" height="4.8"/>
				
					<rect x="59.2" y="15.2" transform="matrix(-0.2989 0.9543 -0.9543 -0.2989 93.7322 -33.6176)" class="st7" width="0.1" height="4.8"/>
				
					<rect x="59.1" y="15.6" transform="matrix(-0.2989 0.9543 -0.9543 -0.2989 93.9091 -33.1012)" class="st7" width="0.1" height="4.8"/>
				
					<rect x="59" y="15.9" transform="matrix(-0.2989 0.9543 -0.9543 -0.2989 94.0861 -32.5848)" class="st7" width="0.1" height="4.8"/>
				
					<rect x="58.9" y="16.2" transform="matrix(-0.2989 0.9543 -0.9543 -0.2989 94.263 -32.0683)" class="st7" width="0.1" height="4.8"/>
				
					<rect x="58.8" y="16.5" transform="matrix(-0.2989 0.9543 -0.9543 -0.2989 94.4399 -31.5519)" class="st7" width="0.1" height="4.8"/>
				
					<rect x="58.7" y="16.8" transform="matrix(-0.2989 0.9543 -0.9543 -0.2989 94.6168 -31.0355)" class="st7" width="0.1" height="4.8"/>
				
					<rect x="58.6" y="17.2" transform="matrix(-0.2989 0.9543 -0.9543 -0.2989 94.7938 -30.5191)" class="st7" width="0.1" height="4.8"/>
				
					<rect x="58.5" y="17.5" transform="matrix(-0.2989 0.9543 -0.9543 -0.2989 94.9707 -30.0026)" class="st7" width="0.1" height="4.8"/>
				
					<rect x="58.4" y="17.8" transform="matrix(-0.2989 0.9543 -0.9543 -0.2989 95.1476 -29.4862)" class="st7" width="0.1" height="4.8"/>
				
					<rect x="58.3" y="18.1" transform="matrix(-0.2989 0.9543 -0.9543 -0.2989 95.3246 -28.9698)" class="st7" width="0.1" height="4.8"/>
				
					<rect x="58.2" y="18.5" transform="matrix(-0.2989 0.9543 -0.9543 -0.2989 95.5015 -28.4534)" class="st7" width="0.1" height="4.8"/>
				
					<rect x="58.1" y="18.8" transform="matrix(-0.2989 0.9543 -0.9543 -0.2989 95.6784 -27.937)" class="st7" width="0.1" height="4.8"/>
				
					<rect x="58" y="19.1" transform="matrix(-0.2989 0.9543 -0.9543 -0.2989 95.8553 -27.4205)" class="st7" width="0.1" height="4.8"/>
				
					<rect x="57.9" y="19.4" transform="matrix(-0.2989 0.9543 -0.9543 -0.2989 96.0323 -26.9041)" class="st7" width="0.1" height="4.8"/>
				
					<rect x="57.8" y="19.8" transform="matrix(-0.2989 0.9543 -0.9543 -0.2989 96.2092 -26.3877)" class="st7" width="0.1" height="4.8"/>
				
					<rect x="57.7" y="20.1" transform="matrix(-0.2989 0.9543 -0.9543 -0.2989 96.3861 -25.8713)" class="st7" width="0.1" height="4.8"/>
			</g>
			<path class="st6" d="M60.3,25.9l0.5,0.1c0.5,0.2,1.1-0.1,1.3-0.7l2.9-9.7c0.2-0.5-0.1-1.1-0.7-1.3l-0.5-0.1
				c-0.5-0.2-1.1,0.1-1.3,0.7l-2.9,9.7C59.4,25.1,59.7,25.7,60.3,25.9z"/>
		</g>
	</g>
	<path class="st4" d="M60.4,31.4c-0.1-0.2-0.2,1-0.4,1.7l-0.8,1.2l-3.2,0.8c-0.4-0.2-1,1.6-1.1,2c-0.1,0.4,0.3,1.2,1,1.7
		c0,0,0.1,0.2,0.5,0.6c0.3,0.3,0.8,0.5,1.3,0.5l3.7,0.5c0,0,1,0.5,1.5-0.4l1.7,1l1.6-4l-1.8-0.7c-0.3-0.1-0.4-0.9-0.8-1.3l-1.4-2.1
		C62,32.5,60.6,31.8,60.4,31.4z"/>
</g>
</svg>
