<?xml version="1.0" encoding="utf-8"?>
<!-- Generator: Adobe Illustrator 19.2.1, SVG Export Plug-In . SVG Version: 6.00 Build 0)  -->
<svg version="1.1" id="Layer_1" xmlns="http://www.w3.org/2000/svg" xmlns:xlink="http://www.w3.org/1999/xlink" x="0px" y="0px"
	 viewBox="0 0 71 68.7" style="enable-background:new 0 0 71 68.7;" xml:space="preserve">
<style type="text/css">
	.st0{fill:#0A97D8;}
	.st1{fill:none;stroke:#1A96D3;stroke-width:2;stroke-linecap:round;stroke-miterlimit:10;}
	.st2{fill:none;stroke:#1796D4;stroke-miterlimit:10;}
	.st3{fill:#FFFFFF;}
	.st4{fill:#FFFFFF;stroke:#1A96D3;stroke-miterlimit:10;}
	.st5{fill:none;stroke:#1A96D3;stroke-width:2.0813;stroke-miterlimit:10;}
	.st6{fill:#64BB49;}
	.st7{fill:#1995D3;}
</style>
<g>
	<g>
		<path class="st0" d="M40.1,68.4L40.1,68.4c-0.1,0-0.2,0-0.3,0c-2.4-0.2-2.8-3.7-3.7-10.7c-0.7-5.7-2.1-16.4-5-16.6
			c-3,0.2-4.3,10.9-5,16.6c-0.9,7-1.3,10.5-3.7,10.7c-0.1,0-0.1,0-0.2,0c-4.1,0-11.4-9.1-12.7-20.3c-0.4-3.2-0.3-6.5,0.4-9.6
			c0.1-0.5-0.1-1.5-0.4-2C6.6,32.5,5,27.3,5,21.8C5,8.2,9.8,0.8,18.6,0.8c2.4,0,5.1,1.3,7.7,2.5c1.6,0.8,3.3,1.6,4.8,2
			c1.5-0.4,3.2-1.2,4.8-2c2.6-1.2,5.2-2.5,7.7-2.5c8.8,0,13.7,7.5,13.7,21.1c0,5.5-1.6,10.7-4.4,14.7c-0.3,0.5-0.5,1.4-0.4,2
			c0.7,3.2,0.8,6.4,0.4,9.7C51.5,59.4,44.2,68.4,40.1,68.4z M31.1,38.1L31.1,38.1c5.6,0.2,6.9,10.3,8,19.3c0.4,2.9,0.8,6.7,1.4,8
			c2.3-0.8,8.2-7.8,9.3-17.5c0.4-2.9,0.2-5.9-0.4-8.7c-0.3-1.4,0.1-3.2,0.9-4.3c2.5-3.5,3.9-8.1,3.9-13c0-8.2-1.8-18.1-10.7-18.1
			c-1.7,0-4.1,1.1-6.4,2.2c-1.9,0.9-3.8,1.8-5.7,2.3l-0.4,0.1l-0.4-0.1C28.8,7.8,26.9,6.9,25,6c-2.3-1.1-4.6-2.2-6.4-2.2
			C9.8,3.8,8,13.6,8,21.8c0,4.8,1.4,9.4,3.9,13c0.8,1.2,1.2,3,0.9,4.3c-0.6,2.8-0.7,5.7-0.4,8.7c1.1,9.7,7,16.7,9.3,17.5
			c0.5-1.3,1-5.1,1.4-8C24.2,48.5,25.5,38.3,31.1,38.1L31.1,38.1z"/>
	</g>
	<path class="st1" d="M19.6,26.5c0,7.3,23,7.5,23,0"/>
	<g>
		<g>
			<g>
				<path class="st2" d="M43.4,17.1c0,3.3-1.9,5.1-4.4,5.1s-4.4-1.8-4.4-5.1s1.9-6,4.4-6S43.4,13.7,43.4,17.1z"/>
				<path class="st0" d="M42.4,18.6c0,2.6-1.5,3.6-3.3,3.6s-3.3-1-3.3-3.6S37.2,14,39,14S42.4,16,42.4,18.6z"/>
			</g>
			<path class="st3" d="M41.1,16.2c0,0.3-1.3-0.8-1.7-0.9c-0.7-0.2-1.1-0.3-1.2-0.6c0-0.3,0.6-0.4,1.3-0.2
				C40.4,14.7,41.1,15.9,41.1,16.2z"/>
		</g>
		<g>
			<path class="st2" d="M18.8,17.1c0,3.3,1.9,5.1,4.4,5.1s4.4-1.8,4.4-5.1s-1.9-6-4.4-6S18.8,13.7,18.8,17.1z"/>
			<path class="st0" d="M19.8,18.6c0,2.6,1.5,3.6,3.3,3.6c1.8,0,3.3-1,3.3-3.6S25,14,23.1,14C21.3,14,19.8,16,19.8,18.6z"/>
		</g>
		<path class="st3" d="M21.1,16.2c0,0.3,1.3-0.8,1.7-0.9c0.7-0.2,1.1-0.3,1.2-0.6c0-0.3-0.6-0.4-1.3-0.2
			C21.7,14.7,21.1,15.9,21.1,16.2z"/>
	</g>
	<g>
		<path class="st1" d="M4.8,48.4c-5.6-12.1-4.9-18.7,1.3-25.8"/>
		<path class="st4" d="M10.5,47.1c-0.1,0.4-0.6,0.7-1,0.5L8,47.1l3.3,4.2c0.3,0.4,0.2,0.9-0.1,1.1c-0.4,0.3-0.9,0.2-1.1-0.1
			l-2.5-3.2l2.1,3.9c0.2,0.4,0.1,0.9-0.3,1.1c-0.4,0.2-0.9,0.1-1.1-0.3l-2.1-4l1.4,3.4c0.2,0.4,0,0.9-0.5,1.1
			c-0.4,0.2-0.9,0-1.1-0.5l-1.4-3.6l0.5,1.9c0.1,0.4-0.1,0.9-0.6,1c-0.4,0.1-0.9-0.1-1-0.6l-1.2-4.7c0,0-0.6-0.9,0.2-1.5l-0.9-1.6
			l3.5-2l0.9,1.7c0.1,0.2,0.9,0.3,1.3,0.7l2.7,1C10.4,46.2,10.6,46.7,10.5,47.1z"/>
	</g>
	<path class="st5" d="M61,39.5c13.4,2.2,10.3-8.2-4.3-14.3"/>
	<g>
		<path class="st6" d="M53.9,68.6l3.5-0.6c1.2-14.9,1.6-29-0.2-42.6l-2.3,0.4C56.3,39,55.8,53.5,53.9,68.6z"/>
		<g>
			
				<rect x="49.4" y="16.1" transform="matrix(-0.9935 0.1138 -0.1138 -0.9935 105.4989 34.8143)" class="st3" width="4.8" height="8.6"/>
			<g>
				
					<rect x="51.2" y="14" transform="matrix(0.1138 0.9935 -0.9935 0.1138 61.7064 -36.4599)" class="st7" width="0.1" height="4.8"/>
				
					<rect x="51.3" y="14.3" transform="matrix(0.1138 0.9935 -0.9935 0.1138 62.0749 -36.2)" class="st7" width="0.1" height="4.8"/>
				
					<rect x="51.3" y="14.6" transform="matrix(0.1138 0.9935 -0.9935 0.1138 62.4433 -35.9401)" class="st7" width="0.1" height="4.8"/>
				
					<rect x="51.4" y="15" transform="matrix(0.1138 0.9935 -0.9935 0.1138 62.8118 -35.6802)" class="st7" width="0.1" height="4.8"/>
				
					<rect x="51.4" y="15.3" transform="matrix(0.1138 0.9935 -0.9935 0.1138 63.1803 -35.4204)" class="st7" width="0.1" height="4.8"/>
				
					<rect x="51.4" y="15.7" transform="matrix(0.1138 0.9935 -0.9935 0.1138 63.5487 -35.1605)" class="st7" width="0.1" height="4.8"/>
				
					<rect x="51.5" y="16" transform="matrix(0.1138 0.9935 -0.9935 0.1138 63.9172 -34.9006)" class="st7" width="0.1" height="4.8"/>
				
					<rect x="51.5" y="16.3" transform="matrix(0.1138 0.9935 -0.9935 0.1138 64.2856 -34.6407)" class="st7" width="0.1" height="4.8"/>
				
					<rect x="51.6" y="16.7" transform="matrix(0.1138 0.9935 -0.9935 0.1138 64.6541 -34.3808)" class="st7" width="0.1" height="4.8"/>
				
					<rect x="51.6" y="17" transform="matrix(0.1138 0.9935 -0.9935 0.1138 65.0226 -34.1209)" class="st7" width="0.1" height="4.8"/>
				
					<rect x="51.6" y="17.3" transform="matrix(0.1138 0.9935 -0.9935 0.1138 65.391 -33.861)" class="st7" width="0.1" height="4.8"/>
				
					<rect x="51.7" y="17.7" transform="matrix(0.1138 0.9935 -0.9935 0.1138 65.7595 -33.6011)" class="st7" width="0.1" height="4.8"/>
				
					<rect x="51.7" y="18" transform="matrix(0.1138 0.9935 -0.9935 0.1138 66.128 -33.3412)" class="st7" width="0.1" height="4.8"/>
				
					<rect x="51.7" y="18.3" transform="matrix(0.1138 0.9935 -0.9935 0.1138 66.4964 -33.0813)" class="st7" width="0.1" height="4.8"/>
				
					<rect x="51.8" y="18.7" transform="matrix(0.1138 0.9935 -0.9935 0.1138 66.8649 -32.8214)" class="st7" width="0.1" height="4.8"/>
				
					<rect x="51.8" y="19" transform="matrix(0.1138 0.9935 -0.9935 0.1138 67.2333 -32.5615)" class="st7" width="0.1" height="4.8"/>
				
					<rect x="51.9" y="19.4" transform="matrix(0.1138 0.9935 -0.9935 0.1138 67.6018 -32.3016)" class="st7" width="0.1" height="4.8"/>
				
					<rect x="51.9" y="19.7" transform="matrix(0.1138 0.9935 -0.9935 0.1138 67.9703 -32.0417)" class="st7" width="0.1" height="4.8"/>
				
					<rect x="51.9" y="20" transform="matrix(0.1138 0.9935 -0.9935 0.1138 68.3387 -31.7818)" class="st7" width="0.1" height="4.8"/>
				
					<rect x="52" y="20.4" transform="matrix(0.1138 0.9935 -0.9935 0.1138 68.7072 -31.5219)" class="st7" width="0.1" height="4.8"/>
				
					<rect x="52" y="20.7" transform="matrix(0.1138 0.9935 -0.9935 0.1138 69.0756 -31.262)" class="st7" width="0.1" height="4.8"/>
				
					<rect x="52.1" y="21" transform="matrix(0.1138 0.9935 -0.9935 0.1138 69.4441 -31.0021)" class="st7" width="0.1" height="4.8"/>
				
					<rect x="52.1" y="21.4" transform="matrix(0.1138 0.9935 -0.9935 0.1138 69.8126 -30.7422)" class="st7" width="0.1" height="4.8"/>
				
					<rect x="52.1" y="21.7" transform="matrix(0.1138 0.9935 -0.9935 0.1138 70.181 -30.4823)" class="st7" width="0.1" height="4.8"/>
				
					<rect x="52.2" y="22" transform="matrix(0.1138 0.9935 -0.9935 0.1138 70.5495 -30.2224)" class="st7" width="0.1" height="4.8"/>
			</g>
			<path class="st6" d="M55.9,26.5l0.5-0.1c0.6-0.1,1-0.6,0.9-1.1L56,15.2c-0.1-0.6-0.6-1-1.1-0.9l-0.5,0.1c-0.6,0.1-1,0.6-0.9,1.1
				l1.3,10.1C54.8,26.2,55.4,26.6,55.9,26.5z"/>
		</g>
	</g>
	<path class="st4" d="M58.5,31.8c-0.5-0.3,0,0.8-0.1,1.5l-0.2,1l-2.5,0.4c-0.4-0.3-0.8,1.7-1,2.1c-0.2,0.4,0.2,1.1,0.6,1.3
		c0,0,0.1,0.3,0.3,1c0.2,0.4,0.8,0.6,1.2,0.7l3.6,0.8c0,0,0.9,0.5,1.5-0.3l1.5,1.2l2-3.8l-1.7-0.9c-0.2-0.1-0.3-0.9-0.7-1.3
		l-1.2-2.2C61.7,32.7,58.8,32.1,58.5,31.8z"/>
</g>
</svg>
