<?xml version="1.0" encoding="utf-8"?>
<!-- Generator: Adobe Illustrator 19.2.1, SVG Export Plug-In . SVG Version: 6.00 Build 0)  -->
<svg version="1.1" id="Layer_1" xmlns="http://www.w3.org/2000/svg" xmlns:xlink="http://www.w3.org/1999/xlink" x="0px" y="0px"
	 viewBox="0 0 65.4 79.8" style="enable-background:new 0 0 65.4 79.8;" xml:space="preserve">
<style type="text/css">
	.st0{fill:#0A97D8;}
	.st1{fill:none;stroke:#1A96D3;stroke-width:2;stroke-linecap:round;stroke-miterlimit:10;}
	.st2{fill:none;stroke:#1796D4;stroke-miterlimit:10;}
	.st3{fill:#FFFFFF;}
	.st4{fill:#FFFFFF;stroke:#1A96D3;stroke-miterlimit:10;}
	.st5{fill-rule:evenodd;clip-rule:evenodd;fill:#56C847;}
</style>
<g>
	<g>
		<path class="st0" d="M42.9,79.8L42.9,79.8c-0.1,0-0.2,0-0.3,0c-2.4-0.2-2.8-3.7-3.7-10.7c-0.7-5.7-2.1-16.4-5-16.6
			c-3,0.2-4.3,10.9-5,16.6c-0.9,7-1.3,10.5-3.7,10.7c-0.1,0-0.1,0-0.2,0c-4.1,0-11.4-9.1-12.7-20.3c-0.4-3.2-0.3-6.5,0.4-9.6
			c0.1-0.5-0.1-1.5-0.4-2c-2.9-4-4.4-9.3-4.4-14.7c0-13.6,4.8-21.1,13.7-21.1c2.4,0,5.1,1.3,7.7,2.5c1.6,0.8,3.3,1.6,4.8,2
			c1.5-0.4,3.2-1.2,4.8-2c2.6-1.2,5.2-2.5,7.7-2.5c8.8,0,13.7,7.5,13.7,21.1c0,5.5-1.6,10.7-4.4,14.7c-0.3,0.5-0.5,1.4-0.4,2
			c0.7,3.2,0.8,6.4,0.4,9.7C54.3,70.7,47,79.8,42.9,79.8z M33.9,49.5L33.9,49.5c5.6,0.2,6.9,10.3,8,19.3c0.4,2.9,0.8,6.7,1.4,8
			c2.3-0.8,8.2-7.8,9.3-17.5c0.4-2.9,0.2-5.9-0.4-8.7c-0.3-1.4,0.1-3.2,0.9-4.3c2.5-3.5,3.9-8.1,3.9-13c0-8.2-1.8-18.1-10.7-18.1
			c-1.7,0-4.1,1.1-6.4,2.2c-1.9,0.9-3.8,1.8-5.7,2.3l-0.4,0.1l-0.4-0.1c-1.9-0.5-3.8-1.4-5.7-2.3c-2.3-1.1-4.6-2.2-6.4-2.2
			c-8.8,0-10.6,9.8-10.6,18.1c0,4.8,1.4,9.4,3.9,13c0.8,1.2,1.2,3,0.9,4.3c-0.6,2.8-0.7,5.7-0.4,8.7c1.1,9.7,7,16.7,9.3,17.5
			c0.5-1.3,1-5.1,1.4-8C27,59.8,28.2,49.7,33.9,49.5L33.9,49.5z"/>
	</g>
	<path class="st1" d="M22,36.3c0,7.3,23,7.5,23,0"/>
	<path class="st1" d="M33.2,49.7c-13.3,0.5-19.1-2.6-23.3-11.1"/>
	<g>
		<g>
			<g>
				<path class="st2" d="M46.2,28.6c0,3.3-1.9,5.1-4.4,5.1s-4.4-1.8-4.4-5.1s1.9-6,4.4-6S46.2,25.2,46.2,28.6z"/>
				<path class="st0" d="M45.2,30.1c0,2.6-1.5,3.6-3.3,3.6s-3.3-1-3.3-3.6s1.5-4.6,3.3-4.6S45.2,27.6,45.2,30.1z"/>
			</g>
			<path class="st3" d="M43.9,27.7c0,0.3-1.3-0.8-1.7-0.9c-0.7-0.2-1.1-0.3-1.2-0.6s0.6-0.4,1.3-0.2C43.2,26.2,43.8,27.4,43.9,27.7z
				"/>
		</g>
		<g>
			<path class="st2" d="M21.5,28.6c0,3.3,1.9,5.1,4.4,5.1s4.4-1.8,4.4-5.1s-1.9-6-4.4-6S21.5,25.2,21.5,28.6z"/>
			<path class="st0" d="M22.6,30.1c0,2.6,1.5,3.6,3.3,3.6c1.8,0,3.3-1,3.3-3.6s-1.5-4.6-3.3-4.6C24.1,25.5,22.6,27.6,22.6,30.1z"/>
		</g>
		<path class="st3" d="M23.8,27.7c0,0.3,1.3-0.8,1.7-0.9c0.7-0.2,1.1-0.3,1.2-0.6s-0.6-0.4-1.3-0.2C24.5,26.2,23.9,27.4,23.8,27.7z"
			/>
	</g>
	<path class="st4" d="M33.5,52.5l1.4-0.1l0.9-0.1l0.5-0.1c0.4,0,0.7-0.5,0.7-0.9c0-0.2-0.2-0.5-0.4-0.6c0.4-0.1,0.6-0.5,0.6-0.9
		c0-0.3-0.2-0.5-0.5-0.6c0.3-0.1,0.5-0.5,0.5-0.8c0-0.3-0.2-0.5-0.4-0.6c0.4-0.1,0.6-0.4,0.6-0.8c0-0.4-0.4-0.7-0.9-0.7l-2.4,0.3
		l-0.6,0.1c0.4-0.9,0.7-1.8,0.9-2.8c0.1-0.5-0.3-1-0.7-1c-0.4,0-0.8,0.3-0.9,0.7c-0.2,1.3-0.7,2.4-1.4,3.5c-0.1,0.1-0.2,0.5-0.4,0.8
		c-0.1,0.1-0.1,0.3-0.1,0.4l-1.7,0.2l0.3,3.1l1.7-0.2C31.8,52.1,32.7,52.6,33.5,52.5z"/>
	<g>
		<path class="st1" d="M60.5,60.5c5.6-12.1,4.9-18.7-1.3-25.8"/>
		<path class="st4" d="M54.8,59.3c0.1,0.4,0.6,0.7,1,0.5l1.5-0.5l-3.3,4.2c-0.3,0.4-0.2,0.9,0.1,1.1c0.4,0.3,0.9,0.2,1.1-0.1
			l2.5-3.2l-2.1,3.9c-0.2,0.4-0.1,0.9,0.3,1.1c0.4,0.2,0.9,0.1,1.1-0.3l2.1-4l-1.4,3.4c-0.2,0.4,0,0.9,0.5,1.1
			c0.4,0.2,0.9,0,1.1-0.5l1.4-3.6l-0.5,1.9c-0.1,0.4,0.1,0.9,0.6,1c0.4,0.1,0.9-0.1,1-0.6l1.2-4.7c0,0,0.6-0.9-0.2-1.5l0.9-1.6
			l-3.5-2l-0.9,1.7c-0.1,0.2-0.9,0.3-1.3,0.7l-2.7,1C54.8,58.4,54.7,58.9,54.8,59.3z"/>
	</g>
	<path class="st5" d="M18.3,8.1c-0.7,0.2-1.4-0.2-1.6-0.9l-1.2-3.6c0.3-0.4,0.5-0.9,0.3-1.4c-0.2-0.7-1-1.1-1.8-0.8
		c-0.8,0.3-1.2,1.1-0.9,1.8c0.2,0.5,0.6,0.8,1.1,0.9l1.1,3.5c0.2,0.7-0.1,1.5-0.8,1.8l-0.1,0.1c-0.7,0.3-1.4,0.1-1.8-0.5l-1.9-3.1
		c0.2-0.4,0.3-1,0-1.4c-0.4-0.6-1.3-0.8-1.9-0.4C8,4.4,7.8,5.2,8.2,5.8c0.3,0.4,0.8,0.7,1.2,0.6l1.9,3.1c0.4,0.6,0.2,1.4-0.3,1.8
		l-0.1,0.1c-0.6,0.5-1.4,0.5-2,0L6.4,8.9c0.1-0.5,0-1-0.3-1.3C5.5,7,4.6,7,4,7.6C3.4,8.1,3.4,9,4,9.6C4.3,9.9,4.9,10,5.3,9.9
		l2.7,2.7c0.5,0.5,0.5,1.3,0.1,1.8l-0.1,0.1c-0.5,0.6-1.3,0.8-1.9,0.4l-3.3-2c0-0.5-0.2-1-0.6-1.2c-0.7-0.4-1.5-0.2-2,0.5
		c-0.4,0.7-0.3,1.5,0.4,1.9c0.4,0.3,1,0.3,1.4,0l8.3,5c1.4-1.2,3.3-3.6,5.2-4.8c1.9-1.2,4.1-1.5,5.8-2.2l-0.7-9.6
		c0.4-0.3,0.7-0.8,0.6-1.3c-0.1-0.8-0.8-1.3-1.5-1.2c-0.8,0.1-1.4,0.8-1.3,1.6c0,0.5,0.4,0.9,0.8,1.1l0.3,3.8
		C19.7,7.3,19.1,7.9,18.3,8.1L18.3,8.1z"/>
</g>
</svg>
