<?xml version="1.0" encoding="utf-8"?>
<!-- Generator: Adobe Illustrator 19.2.1, SVG Export Plug-In . SVG Version: 6.00 Build 0)  -->
<svg version="1.1" id="Layer_1" xmlns="http://www.w3.org/2000/svg" xmlns:xlink="http://www.w3.org/1999/xlink" x="0px" y="0px"
	 viewBox="0 0 63.3 68.6" style="enable-background:new 0 0 63.3 68.6;" xml:space="preserve">
<style type="text/css">
	.st0{fill:#0A97D8;}
	.st1{fill:none;stroke:#1A96D3;stroke-width:2;stroke-linecap:round;stroke-miterlimit:10;}
	.st2{fill:none;stroke:#1796D4;stroke-miterlimit:10;}
	.st3{fill:#FFFFFF;}
	.st4{fill:#FFFFFF;stroke:#1A96D3;stroke-miterlimit:10;}
	.st5{fill:#56C847;}
</style>
<g>
	<g>
		<path class="st0" d="M40.8,68.3L40.8,68.3c-0.1,0-0.2,0-0.3,0c-2.4-0.2-2.8-3.7-3.7-10.7c-0.7-5.7-2.1-16.4-5-16.6
			c-3,0.2-4.3,10.9-5,16.6c-0.9,7-1.3,10.5-3.7,10.7c-0.1,0-0.1,0-0.2,0c-4.1,0-11.4-9.1-12.7-20.3c-0.4-3.2-0.3-6.5,0.4-9.6
			c0.1-0.5-0.1-1.5-0.4-2c-2.9-4-4.4-9.3-4.4-14.7c0-13.6,4.8-21.1,13.7-21.1c2.4,0,5.1,1.3,7.7,2.5c1.6,0.8,3.3,1.6,4.8,2
			c1.5-0.4,3.2-1.2,4.8-2c2.6-1.2,5.2-2.5,7.7-2.5c8.8,0,13.7,7.5,13.7,21.1c0,5.5-1.6,10.7-4.4,14.7c-0.3,0.5-0.5,1.4-0.4,2
			c0.7,3.2,0.8,6.4,0.4,9.7C52.2,59.3,44.9,68.3,40.8,68.3z M31.8,38L31.8,38c5.6,0.2,6.9,10.3,8,19.3c0.4,2.9,0.8,6.7,1.4,8
			c2.3-0.8,8.2-7.8,9.3-17.5c0.4-2.9,0.2-5.9-0.4-8.7c-0.3-1.4,0.1-3.2,0.9-4.3c2.5-3.5,3.9-8.1,3.9-13c0-8.2-1.8-18.1-10.7-18.1
			c-1.7,0-4.1,1.1-6.4,2.2C36,6.8,34,7.7,32.1,8.2l-0.4,0.1l-0.4-0.1c-1.9-0.5-3.8-1.4-5.7-2.3c-2.3-1.1-4.6-2.2-6.4-2.2
			c-8.8,0-10.7,9.8-10.7,18.1c0,4.8,1.4,9.4,3.9,13c0.8,1.2,1.2,3,0.9,4.3c-0.6,2.8-0.7,5.7-0.4,8.7c1.1,9.7,7,16.7,9.3,17.5
			c0.5-1.3,1-5.1,1.4-8C24.9,48.3,26.2,38.2,31.8,38L31.8,38z"/>
	</g>
	<path class="st1" d="M20.3,26.4c0,7.3,23,7.5,23,0"/>
	<g>
		<g>
			<g>
				<path class="st2" d="M44.1,16.9c0,3.3-1.9,5.1-4.4,5.1s-4.4-1.8-4.4-5.1s1.9-6,4.4-6S44.1,13.6,44.1,16.9z"/>
				<path class="st0" d="M43.1,18.5c0,2.6-1.5,3.6-3.3,3.6s-3.3-1-3.3-3.6s1.5-4.6,3.3-4.6S43.1,15.9,43.1,18.5z"/>
			</g>
			<path class="st3" d="M41.8,16.1c0,0.3-1.3-0.8-1.7-0.9c-0.7-0.2-1.1-0.3-1.2-0.6c0-0.3,0.6-0.4,1.3-0.2
				C41.1,14.6,41.8,15.8,41.8,16.1z"/>
		</g>
		<g>
			<path class="st2" d="M19.5,16.9c0,3.3,1.9,5.1,4.4,5.1s4.4-1.8,4.4-5.1s-1.9-6-4.4-6S19.5,13.6,19.5,16.9z"/>
			<path class="st0" d="M20.5,18.5c0,2.6,1.5,3.6,3.3,3.6c1.8,0,3.3-1,3.3-3.6s-1.5-4.6-3.3-4.6C22,13.9,20.5,15.9,20.5,18.5z"/>
		</g>
		<path class="st3" d="M21.8,16.1c0,0.3,1.3-0.8,1.7-0.9c0.7-0.2,1.1-0.3,1.2-0.6c0-0.3-0.6-0.4-1.3-0.2
			C22.4,14.6,21.8,15.8,21.8,16.1z"/>
	</g>
	<g>
		<path class="st1" d="M5.5,48.3c-5.6-12.1-4.9-18.7,1.3-25.8"/>
		<path class="st4" d="M11.2,47c-0.1,0.4-0.6,0.7-1,0.5L8.7,47l3.3,4.2c0.3,0.4,0.2,0.9-0.1,1.1c-0.4,0.3-0.9,0.2-1.1-0.1L8.2,49
			l2.1,3.9c0.2,0.4,0.1,0.9-0.3,1.1c-0.4,0.2-0.9,0.1-1.1-0.3l-2.1-4L8,53.2c0.2,0.4,0,0.9-0.5,1.1c-0.4,0.2-0.9,0-1.1-0.5l-1.4-3.6
			l0.5,1.9c0.1,0.4-0.1,0.9-0.6,1c-0.4,0.1-0.9-0.1-1-0.6l-1.2-4.7c0,0-0.6-0.9,0.2-1.5l-0.9-1.6l3.5-2l0.9,1.7
			C6.8,44.6,7.5,44.6,8,45l2.7,1C11.1,46.1,11.3,46.6,11.2,47z"/>
	</g>
	<g>
		<path class="st1" d="M58.4,47c5.5-12.1,4.8-18.7-1.5-25.8"/>
		<path class="st4" d="M52.7,45.8c0.1,0.4,0.6,0.6,1,0.5l1.5-0.5L52,50.1c-0.3,0.4-0.2,0.9,0.2,1.1c0.4,0.3,0.9,0.2,1.1-0.2l2.4-3.2
			l-2,3.9c-0.2,0.4-0.1,0.9,0.3,1.1c0.4,0.2,0.9,0.1,1.1-0.3l2.1-4l-1.3,3.4c-0.2,0.4,0,0.9,0.5,1.1c0.4,0.2,0.9,0,1.1-0.5l1.4-3.6
			l-0.5,1.9c-0.1,0.4,0.1,0.9,0.6,1c0.4,0.1,0.9-0.1,1-0.6l1.2-4.8c0,0,0.6-0.9-0.2-1.5l0.9-1.6l-3.5-1.9l-0.9,1.7
			c-0.1,0.2-0.9,0.3-1.3,0.7l-2.7,1C52.7,44.9,52.6,45.4,52.7,45.8z"/>
	</g>
	<ellipse class="st5" cx="17.1" cy="40.8" rx="2.1" ry="3.4"/>
	<ellipse class="st5" cx="14.8" cy="31.1" rx="1.3" ry="2.1"/>
	<ellipse class="st5" cx="48.5" cy="10.5" rx="2.1" ry="3.4"/>
	<ellipse class="st5" cx="51.8" cy="16.7" rx="1.3" ry="2.1"/>
	<ellipse class="st5" cx="16.1" cy="8.6" rx="0.9" ry="1.5"/>
</g>
</svg>
